<?xml version="1.0" encoding="UTF-8"?>
<svg id="Layer_1" data-name="Layer 1" xmlns="http://www.w3.org/2000/svg" viewBox="0 0 48 48">
  <defs>
    <style>
      .cls-1 {
        fill: #ea9c00;
      }

      .cls-2 {
        fill: #0f22b2;
      }
    </style>
  </defs>
  <rect class="cls-2" width="48" height="48" rx="8.5" ry="8.5"/>
  <g>
    <path class="cls-1" d="M5.292,34.597c.475-1.345,1.432-1.877,2.846-1.874,10.579,.022,21.158,.023,31.736-.001,1.368-.003,2.296,.526,2.834,1.767v1.183c-.332,.94-.973,1.555-1.935,1.828H7.12c-.877-.342-1.527-.91-1.828-1.828v-1.075Zm18.708-.298s0,.003,0,.005c-1.326,0-2.652,0-3.978,0-1.104,0-.922-.106-.933,.943-.008,.702,0,.704,.718,.704,2.688,0,5.375,.004,8.063-.001,1.188-.002,1.015,.129,1.053-1.077,.014-.44-.114-.592-.569-.583-1.451,.026-2.902,.01-4.354,.01Z"/>
    <path class="cls-1" d="M23.966,10.5c4.102,0,8.204-.001,12.306,0,2.086,0,3.548,1.459,3.549,3.554,.004,5.858,.002,11.715,0,17.573,0,.728-.003,.735-.75,.728-1.193-.012-1.085,.173-1.085-1.092-.003-5.661-.001-11.321-.002-16.982,0-1.453-.486-1.948-1.918-1.948-8.079,0-16.158,0-24.237,.001-1.298,0-1.816,.523-1.816,1.829,0,5.786,0,11.572,0,17.358,0,.835-.001,.84-.807,.835-1.154-.007-1.028,.122-1.029-1.04-.004-5.714-.002-11.429-.001-17.143,0-2.273,1.434-3.676,3.698-3.669,4.03,.012,8.061,.003,12.091,.003,0-.002,0-.004,0-.006Z"/>
    <path class="cls-1" d="M24,16.752c-4.173,0-8.347,0-12.52,0-.706,0-.707-.003-.709-.72-.002-.537,0-1.075,0-1.612,0-1.136,.179-1.321,1.299-1.321,3.493-.002,6.985-.003,10.478-.003,4.281,0,8.562,0,12.842,.002,.233,0,.466,0,.698,.006,.921,.019,1.139,.239,1.142,1.156,.002,.609-.027,1.22,.009,1.827,.03,.51-.137,.68-.664,.676-3.17-.022-6.341-.01-9.511-.01-1.021,0-2.042,0-3.063,0Zm-8.478-1.794c.067,.317,.254,.565,.633,.542,.339-.02,.572-.239,.567-.588-.005-.361-.207-.612-.598-.605-.382,.006-.567,.242-.603,.651Zm-1.868-.041c-.045-.35-.228-.599-.604-.606-.379-.008-.603,.234-.609,.596-.006,.347,.237,.563,.571,.586,.372,.026,.587-.193,.642-.576Zm1.521,.002c-.006-.361-.205-.58-.548-.602-.382-.025-.602,.204-.617,.586-.014,.362,.201,.589,.544,.608,.374,.021,.59-.204,.622-.592Z"/>
    <path class="cls-1" d="M28,25.363c.95,0,1.754-.015,2.557,.006,.456,.012,.645-.156,.643-.625-.001-.454-.201-.59-.622-.589-2.467,.005-4.934,.004-7.401-.015-.352-.003-.4,.173-.368,.428,.038,.298-.181,.756,.375,.783,.589,.029,1.181,.017,1.772,.007,.331-.005,.55,.056,.542,.466-.009,.394-.241,.416-.534,.416-2.578-.003-5.156,.005-7.734-.006-.858-.004-1.292-.485-1.292-1.366,0-1.096,.375-1.575,1.296-1.581,2.109-.013,4.218-.005,6.327-.005,2.324,0,4.648-.002,6.972,0,1.303,.001,1.978,1.107,1.398,2.298-.195,.401-.533,.632-.981,.646-.608,.019-1.217,.014-1.826,.008-.526-.005-.732-.434-1.124-.87Z"/>
    <path class="cls-1" d="M26.037,27.518c0-.824-.002-1.647,.002-2.47,0-.138-.03-.307,.124-.386,.188-.097,.241,.101,.332,.191,.646,.637,1.269,1.298,1.933,1.916,.536,.499,1.041,1.024,1.534,1.564,.059,.065,.154,.103,.131,.207-.03,.135-.152,.135-.256,.141-.232,.012-.465,.011-.698,.025-.31,.02-.395,.285-.258,.449,.406,.488,.461,1.146,.861,1.632,.208,.252-.016,.742-.38,.921-.249,.123-.81-.134-.898-.486-.151-.61-.634-1.056-.749-1.688-.052-.284-.381-.261-.558-.069-.222,.242-.438,.485-.693,.695-.087,.071-.093,.25-.268,.191-.181-.061-.152-.226-.153-.363-.004-.823-.002-1.647-.002-2.47h-.004Z"/>
    <path class="cls-1" d="M19.424,28.806c-1.77,0-3.541,0-5.311,0-.143,0-.288,.004-.428-.02-.266-.047-.409-.233-.405-.491,.003-.238,.161-.395,.392-.45,.12-.029,.248-.028,.373-.028,3.63,0,7.261,.009,10.891-.005,.47-.002,.58,.188,.563,.608-.018,.45-.321,.396-.603,.397-1.824,.002-3.648,.001-5.472,.001,0-.004,0-.007,0-.011Z"/>
    <path class="cls-1" d="M19.479,30.52c-1.755,0-3.51,0-5.265,0-.161,0-.325,.008-.482-.017-.281-.045-.466-.214-.448-.509,.016-.259,.179-.426,.45-.451,.142-.014,.286-.013,.429-.013,3.564-.003,7.128-.006,10.692-.007,.3,0,.627-.062,.641,.419,.012,.397-.092,.586-.537,.581-1.827-.018-3.653-.008-5.48-.008,0,.002,0,.004,0,.005Z"/>
    <path class="cls-1" d="M33.223,29.522c.875,0,1.75-.003,2.624,.001,.359,.002,.732,.052,.716,.518-.016,.462-.388,.477-.748,.477-1.66-.003-3.321,0-4.981,.005-.278,0-.542-.015-.702-.285-.101-.17-.201-.366-.12-.552,.084-.193,.304-.153,.479-.154,.91-.003,1.821-.001,2.731-.001v-.007Z"/>
    <path class="cls-1" d="M30.54,27.883c.368-.124,.69-.058,1.005-.06,1.429-.008,2.857-.004,4.286-.003,.359,0,.728,.039,.73,.503,.001,.432-.348,.488-.69,.489-1.536,.004-3.072-.014-4.607,.01-.737,.012-.421-.649-.724-.94Z"/>
    <path class="cls-1" d="M12.624,28.333c-.029,.349-.205,.573-.571,.576-.385,.003-.61-.225-.618-.597-.008-.354,.216-.575,.57-.581,.379-.007,.589,.214,.619,.603Z"/>
    <path class="cls-1" d="M12.025,29.418c.366,.025,.577,.204,.583,.571,.006,.388-.2,.614-.584,.616-.354,.002-.582-.21-.59-.562-.008-.378,.229-.578,.592-.626Z"/>
  </g>
</svg>