<?xml version="1.0" encoding="UTF-8"?>
<svg id="Layer_1" data-name="Layer 1" xmlns="http://www.w3.org/2000/svg" viewBox="0 0 383 300">
  <defs>
    <style>
      .cls-1 {
        fill: #000;
      }

      .cls-2 {
        fill: #fff;
      }
    </style>
  </defs>
  <rect class="cls-1" x="0" y="-.215" width="383" height="300.715"/>
  <g>
    <path class="cls-2" d="M117.635,84.306c-6.14-.002-12.281,.03-18.421-.01-7.542-.049-12.999-5.531-12.959-12.947,.039-7.236,5.522-12.639,12.968-12.664,11.491-.039,22.983-.031,34.474-.003,6.704,.016,11.789,4.087,12.904,10.781,1.887,11.318,3.506,22.681,5.217,34.029,1.436,9.528,2.881,19.056,4.23,28.597,.273,1.928,1.211,2.425,2.994,2.404,5.789-.07,11.58,.05,17.368-.061,2.157-.041,2.955,.663,2.881,2.855-.135,4.031-.088,8.07-.022,12.104,.028,1.704-.656,2.323-2.333,2.305-5.087-.056-10.176,.045-15.263-.042-2.003-.034-2.687,.615-2.292,2.637,1.172,5.983-.29,5.432,6.394,5.443,3.684,.006,7.37,.068,11.052-.02,1.829-.044,2.483,.661,2.447,2.467-.082,4.121-.087,8.246,0,12.367,.04,1.858-.721,2.455-2.496,2.418-3.77-.078-7.544,.033-11.315-.04-1.866-.036-2.675,.313-2.309,2.536,1.122,6.825,.356,5.371,6.545,5.527,2.455,.062,4.913,.062,7.368,.003,1.559-.037,2.213,.583,2.194,2.167-.052,4.298-.052,8.597,0,12.894,.019,1.586-.641,2.197-2.197,2.165-2.718-.056-5.44,.052-8.157-.027-1.722-.05-2.297,.409-1.977,2.286,.928,5.439,1.568,10.927,2.473,16.371,.322,1.939,.085,2.927-2.155,2.534-.673-.118-1.398-.02-2.09,.061-4.488,.523-4.458,.526-5.114-3.855-4.188-27.982-8.389-55.963-12.588-83.944-2.444-16.286-4.936-32.565-7.282-48.865-.303-2.107-1.189-2.526-3.067-2.502-6.49,.083-12.982,.032-19.474,.03Z"/>
    <path class="cls-2" d="M195.731,65.831c0-8.027,.071-14.604-.04-21.179-.037-2.179,.714-2.825,2.866-2.871,16.712-.361,32.141-4.906,45.922-14.537,1.47-1.028,2.553-.971,3.989,.032,13.709,9.57,29.055,14.114,45.669,14.486,2.491,.056,3.08,.913,3.062,3.223-.093,12.013,.438,24.05-.149,36.035-1.534,31.355-16.594,54.349-44.191,69.155-4.201,2.254-8.675,2.207-12.897-.031-25.176-13.345-39.859-34.082-43.722-62.382-1.061-7.774-.202-15.59-.509-21.93Zm92.636,.627c0-4.034,.001-8.069,0-12.103-.002-3.731,.005-3.808-3.612-4.205-13.012-1.427-25.123-5.539-36.352-12.217-1.534-.912-2.636-.777-4.06,.098-4.416,2.715-9.092,4.923-13.946,6.751-7.168,2.7-14.532,4.553-22.161,5.394-1.611,.178-3.842-.261-3.751,2.768,.306,10.163-.447,20.344,.446,30.498,2.279,25.922,14.994,45.076,37.53,57.894,2.72,1.547,5.129,1.575,7.887,.054,17.962-9.908,29.824-24.644,35.409-44.391,2.829-10.005,2.724-20.275,2.612-30.539Z"/>
    <path class="cls-2" d="M128.56,168.094c4.91-.132,9.556,.999,14.125,2.688,1.704,.63,2.488,1.689,2.746,3.427,2.444,16.463,4.91,32.922,7.414,49.376,.308,2.022-.068,3.327-2.033,4.496-5.031,2.993-8.69,7.355-10.984,12.744-.711,1.671-1.779,2.392-3.446,2.771-22.836,5.198-45.481-12.923-46.009-36.317-.408-18.122,12.502-35.994,33.2-38.916,1.642-.232,3.323-.186,4.986-.269Zm16.626,51.739c0-1.579,.057-3.16-.01-4.737-.321-7.609-5.278-12.565-12.88-12.864-2.015-.079-4.035-.018-6.052-.022-5.172-.01-6.576-1.536-6.332-6.615,.075-1.554,.608-2.21,2.187-2.184,3.508,.057,7.018,.028,10.526,.015,1.968-.007,3.438,.878,4.165,2.65,.54,1.318,1.388,1.627,2.651,1.565,1.313-.065,2.632-.051,3.947-.009,1.291,.042,1.687-.473,1.476-1.762-.711-4.329-2.926-8.084-7.028-9.074-4.745-1.145-6.046-3.451-5.298-7.798,.173-1.005-.096-1.821-1.421-2.056-5.495-.975-6.536-.169-6.603,5.339-.003,.263-.027,.528-.004,.789,.152,1.698-.626,2.354-2.309,2.309-2.717-.073-5.44,.04-8.157-.028-1.575-.039-2.211,.564-2.177,2.157,.071,3.332-.082,6.671,.054,9.999,.284,6.93,4.31,11.502,11.175,12.508,2.581,.379,5.247,.217,7.874,.238,5.027,.04,6.365,1.488,6.204,6.491-.054,1.679-.628,2.358-2.324,2.321-3.332-.071-6.667-.059-10-.003-2.164,.036-3.784-.793-4.631-2.782-.449-1.054-1.07-1.489-2.186-1.446-1.402,.053-2.809,.058-4.21-.001-1.421-.061-1.786,.479-1.599,1.898,.599,4.562,4.311,8.911,9.107,9.765,2.713,.483,3.286,1.723,3.237,4.209-.107,5.408-.735,4.659,4.952,4.872,2.479,.093,3.131-.761,3.101-3.149-.076-5.994-.825-5.283,5.285-5.314,7.294-.037,7.294-.009,7.282-7.281Z"/>
    <path class="cls-2" d="M128.597,269.565c-6.766-.113-5.307,1.055-7.423-5.464-.804-2.477-1.966-3.719-4.575-4.212-6.443-1.219-12.402-3.818-17.831-7.475-1.952-1.315-3.496-1.263-5.541-.249-6.838,3.389-4.524,3.786-10.159-1.632-.695-.668-1.334-1.397-2.049-2.043-1.014-.915-1.215-1.989-.4-3.029,3.553-4.533,2.837-8.612-.381-13.19-3.024-4.302-4.521-9.478-5.508-14.684-.363-1.914-1.181-3.039-3.137-3.673-6.427-2.08-6.424-2.155-6.394-8.87,.023-5.018-.598-4.41,4.171-5.709,3.467-.945,5.232-2.608,5.862-6.242,1.044-6.023,3.701-11.511,7.093-16.572,1.293-1.929,1.391-3.477,.316-5.535-2.976-5.698-2.904-5.756,1.74-10.359,3.799-3.766,2.853-3.594,7.193-1.108,3.259,1.866,5.682,1.715,8.791-.408,4.948-3.378,10.586-5.492,16.499-6.604,2.263-.426,3.415-1.448,4.144-3.651,2.382-7.199,.663-5.798,8.125-5.967,.175-.004,.351-.003,.526,0,5.051,.071,4.301-.626,5.898,4.345,.851,2.649,1.493,5.269,5.044,5.404,1.018,.039,1.649,.821,1.794,1.955,.222,1.736,.584,3.454,.849,5.186,.381,2.492,.03,2.815-2.466,2.131-8.404-2.305-16.776-2.232-25.154,.162-18.006,5.145-31.121,21.328-32.866,39.954-2.294,24.481,15.126,45.943,38.734,49.703,4.342,.691,8.728,.823,13.084,.079,1.714-.293,2.226,.144,2.751,1.953,1.597,5.507-1.519,9.908-2.89,14.72-.26,.914-1.061,1.082-1.897,1.084-1.315,.004-2.631,.001-3.946,.001Z"/>
    <path class="cls-2" d="M187.67,252.496c.011,12.006-9.295,21.306-21.307,21.292-11.847-.014-21.149-9.324-21.159-21.178-.01-12.011,9.29-21.302,21.307-21.288,11.856,.014,21.147,9.312,21.158,21.174Z"/>
    <path class="cls-2" d="M284.42,231.322c11.963,.015,21.192,9.37,21.153,21.442-.037,11.797-9.406,21.039-21.312,21.025-11.95-.015-21.192-9.384-21.154-21.446,.037-11.796,9.405-21.035,21.312-21.021Z"/>
    <path class="cls-2" d="M182.378,227.263h86.08c.137,.188,.274,.375,.411,.563-3.235,2.119-5.909,4.786-8.393,7.651-.544,.628-1.486,.413-2.265,.413-21.903,.006-43.806-.004-65.709,.025-1.445,.002-2.466-.434-3.344-1.613-1.929-2.59-4.56-4.489-6.781-7.039Z"/>
    <path class="cls-2" d="M299.267,134.475c2.716-.001,5.434,.049,8.148-.02,1.621-.041,2.373,.486,2.398,2.24,.065,4.496-.902,8.875-1.323,13.314-.122,1.285-1.001,1.68-2.226,1.673-5.257-.029-10.514-.042-15.771,.006-1.609,.015-2.149-.7-2.132-2.224,.046-4.293,.052-8.587,0-12.879-.02-1.616,.716-2.151,2.233-2.123,2.89,.053,5.783,.015,8.674,.014Z"/>
    <path class="cls-2" d="M297.974,159.738c2.277,.001,4.556,.051,6.832-.015,1.667-.049,2.458,.546,2.227,2.308-.557,4.249-1.088,8.502-1.589,12.759-.19,1.616-1.021,2.205-2.632,2.175-4.028-.074-8.059-.067-12.087-.006-1.636,.025-2.4-.517-2.372-2.259,.068-4.203,.083-8.41-.007-12.612-.041-1.895,.805-2.431,2.534-2.37,2.362,.083,4.729,.021,7.094,.022Z"/>
    <path class="cls-2" d="M195.908,134.481c2.189,0,4.379,.032,6.568-.012,1.437-.029,2.053,.586,2.042,2.031-.035,4.378-.034,8.757,0,13.135,.011,1.437-.587,2.053-2.032,2.042-4.378-.035-8.757-.034-13.135,0-1.437,.011-2.053-.587-2.042-2.032,.035-4.378,.034-8.757,0-13.135-.011-1.437,.587-2.071,2.032-2.041,2.188,.045,4.378,.012,6.568,.011Z"/>
    <path class="cls-2" d="M195.931,159.746c2.189,0,4.379,.034,6.568-.011,1.456-.03,2.031,.627,2.02,2.053-.034,4.378-.036,8.757-.001,13.135,.012,1.455-.628,2.031-2.054,2.02-4.378-.034-8.757-.036-13.135-.001-1.455,.012-2.031-.628-2.02-2.054,.034-4.378,.036-8.757,.001-13.135-.012-1.455,.627-2.047,2.054-2.019,2.188,.043,4.378,.011,6.568,.012Z"/>
    <path class="cls-2" d="M229.775,168.447c0,2.102-.045,4.205,.015,6.305,.044,1.546-.562,2.22-2.153,2.201-4.29-.052-8.582-.049-12.873,0-1.545,.017-2.22-.564-2.201-2.154,.052-4.29,.049-8.582,0-12.873-.017-1.545,.564-2.22,2.154-2.201,4.29,.052,8.582,.049,12.873,0,1.545-.017,2.246,.563,2.199,2.154-.065,2.187-.016,4.378-.016,6.567Z"/>
    <path class="cls-2" d="M246.255,176.942c-1.839,.002-3.685-.098-5.515,.028-2.089,.144-3.021-.519-2.939-2.779,.143-3.936,.101-7.881,.013-11.82-.042-1.852,.499-2.719,2.515-2.666,4.113,.108,8.232,.095,12.346,.006,1.874-.04,2.426,.762,2.394,2.511-.074,4.115-.086,8.233,.002,12.347,.04,1.874-.761,2.464-2.512,2.391-2.098-.087-4.203-.021-6.304-.019Z"/>
    <path class="cls-2" d="M280.309,168.511c0,2.014-.079,4.032,.022,6.041,.094,1.86-.724,2.445-2.491,2.412-4.114-.077-8.233-.086-12.347,.002-1.858,.04-2.444-.729-2.411-2.495,.077-4.114,.086-8.233-.002-12.347-.04-1.859,.729-2.444,2.495-2.411,4.115,.077,8.233,.086,12.347-.002,1.858-.04,2.484,.727,2.408,2.496-.09,2.098-.021,4.203-.022,6.304Z"/>
    <path class="cls-2" d="M204.51,193.757c0,2.102-.05,4.205,.016,6.305,.05,1.591-.653,2.172-2.198,2.155-4.291-.048-8.582-.052-12.873,0-1.59,.019-2.172-.655-2.155-2.2,.048-4.291,.052-8.582,0-12.873-.019-1.59,.656-2.172,2.201-2.154,4.291,.048,8.582,.052,12.873,0,1.59-.019,2.195,.654,2.153,2.2-.06,2.188-.015,4.378-.016,6.568Z"/>
    <path class="cls-2" d="M221.899,185.006c2.168,.337,5.549-1.21,7.332,.673,1.643,1.735,.432,5.027,.536,7.629,.087,2.186-.044,4.38,.029,6.567,.056,1.657-.559,2.377-2.279,2.35-4.202-.067-8.407-.063-12.61,0-1.656,.025-2.377-.561-2.349-2.281,.067-4.202,.063-8.407,0-12.61-.025-1.656,.56-2.41,2.281-2.347,2.186,.081,4.378,.02,7.059,.02Z"/>
    <path class="cls-2" d="M237.851,193.358c0-2.102,.032-4.204-.012-6.305-.03-1.427,.564-2.066,2.019-2.054,4.378,.035,8.757,.033,13.135-.001,1.427-.011,2.065,.565,2.054,2.02-.035,4.378-.033,8.757,.001,13.135,.011,1.427-.565,2.065-2.02,2.054-4.378-.035-8.757-.033-13.135,.001-1.427,.011-2.082-.564-2.053-2.02,.045-2.276,.012-4.553,.011-6.83Z"/>
    <path class="cls-2" d="M271.707,202.196c-2.189,0-4.379-.033-6.568,.012-1.443,.029-2.047-.598-2.035-2.038,.034-4.378,.035-8.757,0-13.135-.011-1.442,.599-2.047,2.039-2.035,4.378,.034,8.757,.035,13.135,0,1.442-.011,2.047,.599,2.035,2.039-.034,4.378-.035,8.757,0,13.135,.011,1.442-.599,2.064-2.039,2.034-2.188-.044-4.378-.012-6.568-.012Z"/>
    <path class="cls-2" d="M296.15,185.021c2.01,0,4.019-.002,6.029,0,.993,.002,1.592,.34,1.73,1.48,.805,6.606-3.615,13.462-9.909,15.275-.335,.097-.668,.211-1.01,.275-4.011,.753-4.619,.263-4.622-3.731-.003-3.67,.05-7.34-.014-11.009-.029-1.666,.59-2.399,2.292-2.325,1.831,.079,3.669,.018,5.504,.018,0,.005,0,.011,0,.016Z"/>
    <path class="cls-2" d="M225.709,151.601c-3.965,0-7.931,.024-11.896-.016-1.037-.011-1.206-.858-1.211-1.69-.016-2.623-.024-5.247-.008-7.87,.007-1.134,.477-1.874,1.526-.855,3.677,3.571,7.67,6.77,11.588,10.432Z"/>
    <path class="cls-2" d="M266.991,150.956c4.202-2.948,8.062-6.295,11.831-9.75,.851-.78,1.452-.465,1.459,.681,.019,2.788-.002,5.577-.027,8.365-.009,.984-.625,1.386-1.53,1.388-3.819,.01-7.639,.004-11.459,.004-.092-.229-.183-.459-.275-.688Z"/>
    <path class="cls-2" d="M280.31,73.264c.579,8.969-.552,19.421-4.762,29.413-5.53,13.126-14.489,23.232-26.667,30.565-1.714,1.032-3.129,1.049-4.84,.005-17.536-10.698-28.006-26.117-30.909-46.482-1.291-9.056-.316-18.204-.557-27.306-.038-1.427,.669-2.055,1.977-2.279,10.711-1.831,20.877-5.254,30.41-10.494,1.144-.629,2.136-.462,3.214,.122,9.402,5.092,19.385,8.522,29.924,10.294,1.597,.269,2.262,.945,2.233,2.582-.069,3.943-.022,7.888-.022,13.581Zm-6.466,5.57c-.16-1.016-.874-1.452-1.411-2.003q-3.623-3.724-7.22-.131c-8.43,8.428-16.885,16.829-25.26,25.311-1.438,1.457-2.458,1.619-3.826,.015-1.19-1.396-2.58-2.622-3.881-3.924-4.067-4.067-4.016-4.019-8,.143-1.165,1.218-.985,1.928,.101,2.991,4.071,3.985,8.106,8.008,12.082,12.087,1.224,1.256,2.084,1.112,3.253-.063,11.004-11.059,22.047-22.079,33.072-33.117,.422-.423,.769-.921,1.09-1.309Z"/>
  </g>
</svg>