<?xml version="1.0" encoding="UTF-8"?>
<svg id="Layer_1" data-name="Layer 1" xmlns="http://www.w3.org/2000/svg" viewBox="0 0 383 300">
  <defs>
    <style>
      .cls-1 {
        fill: #000;
      }

      .cls-2 {
        fill: #fff;
      }
    </style>
  </defs>
  <rect class="cls-1" x="0" y="-.215" width="383" height="300.715"/>
  <g>
    <path class="cls-2" d="M230.005,233.186h-40.244c-1.008,2.353,.961,3.901,1.479,5.719,2.392,8.385-.623,16.939-7.794,21.463-7.13,4.499-16.702,3.74-22.798-1.807-6.38-5.806-8.393-14.804-4.102-22.34,2.168-3.807,1.438-5.154-1.888-7.501-11.714-8.265-12.501-25.139-1.497-34.249,3.29-2.724,3.318-4.792,2.121-8.363-8.728-26.033-17.269-52.128-25.822-78.219-2.756-8.408-1.422-10.252,7.292-10.257,32.59-.018,65.179-.08,97.768,.083,4.181,.021,7.069-1.095,9.608-4.457,3.414-4.519,7.409-8.594,11.009-12.979,2.908-3.541,5.697-3.621,9.03-.54,4.629,4.28,9.948,7.921,14.038,12.644,4.041,4.667,8.533,5.554,14.244,5.35,10.454-.372,11.709,1.553,8.417,11.216-9.261,27.186-18.696,54.314-27.693,81.587-1.935,5.867-5.025,7.66-10.977,7.609-29.434-.25-58.871-.114-88.306-.113-1.892,0-3.789-.062-5.676,.038-8.413,.447-13.897,5.876-13.597,13.401,.29,7.272,5.798,12.327,13.938,12.348,29.646,.075,59.292,.03,88.938,.032,2.944,0,5.888-.032,8.83,.029,3.169,.066,5.435,1.591,5.344,4.868-.084,3.008-2.371,4.127-5.246,4.258-2.505,.114-5.723-1.027-3.687,4.147,3.65,9.274,.888,17.778-6.4,22.901-6.588,4.631-16.542,4.183-22.912-1.032-6.538-5.353-8.276-13.918-4.641-22.879,.295-.728,.599-1.452,1.222-2.96Zm-20.634-66.382c2.074-.139,3.845-2.251,5.661-4.305,16.554-18.719,33.08-37.461,49.681-56.138,6.938-7.805,6.889-7.609-.59-14.481-2.934-2.696-4.569-2.871-7.297,.399-12.106,14.508-24.463,28.807-36.801,43.12-12.984,15.061-9.497,14.524-24.526,1.76-8.269-7.023-8.146-6.937-15.302,1.18-2.343,2.658-2.34,4.102,.435,6.435,7.229,6.078,14.156,12.514,21.218,18.792,1.884,1.674,3.749,3.43,7.521,3.238Z"/>
    <path class="cls-2" d="M98.831,36.73c1.259-.003,2.517-.003,3.776-.003,14.058,0,15.004,.78,17.886,14.896,.573,2.809,.807,5.663-2.732,6.663-3.342,.944-5.604-1.021-5.951-3.974-.951-8.1-5.946-9.214-12.731-8.517-4.151,.426-8.383,.014-12.577,.093-3.403,.064-6.062-1.122-5.979-4.789,.074-3.27,2.545-4.462,5.724-4.389,4.193,.096,8.39,.024,12.585,.021Z"/>
    <path class="cls-2" d="M130.493,81.6c.419,4.056-.651,5.739-3.008,6.287-2.21,.514-4.325-.014-5.209-2.34-1.335-3.509-2.497-7.091-3.547-10.697-.75-2.574,.276-4.554,2.793-5.525,2.659-1.025,4.598,.212,5.56,2.582,1.483,3.658,2.636,7.45,3.412,9.692Z"/>
  </g>
</svg>