<?xml version="1.0" encoding="UTF-8"?>
<svg id="Layer_1" data-name="Layer 1" xmlns="http://www.w3.org/2000/svg" viewBox="0 0 383 300">
  <defs>
    <style>
      .cls-1 {
        fill: #000;
      }

      .cls-2, .cls-3 {
        fill: #fff;
      }

      .cls-3 {
        font-family: AlSharkTitle-Bold, AlSharkTitle;
        font-size: 41.319px;
        font-weight: 700;
      }
    </style>
  </defs>
  <rect class="cls-1" x="0" y="-.215" width="383" height="300.715"/>
  <g>
    <path class="cls-2" d="M174.204,33.5c4.816,1.507,8.271,4.338,9.301,9.521,.147,.809,.221,1.654,.221,2.5q.074,3.492,3.676,3.492h42.569c1.397,0,2.389,.404,3.382,1.397,15.366,15.44,30.769,30.842,46.172,46.209,.919,.919,1.323,1.838,1.323,3.161-.037,18.675-.037,37.349,0,55.987,0,1.765-.551,2.132-2.169,2.095-5.624-.037-5.624,0-5.624-5.698,0-15.403,0-30.806,.037-46.209,0-1.948-.404-2.573-2.463-2.537-13.896,.11-27.791,0-41.65,.11-1.985,0-2.537-.478-2.537-2.5,.11-13.969,0-27.938,.11-41.871,0-1.912-.515-2.389-2.389-2.389-12.683,.074-25.328,.11-38.011,0-2.132,0-2.426,.698-2.426,2.573,.037,31.284,.037,62.53,0,93.814,0,6.286-3.456,10.918-9.153,12.205-1.25,.294-2.573,.294-3.823,.294-19.52,0-39.003,.037-58.524,0-1.912,0-2.353,.551-2.353,2.389,.074,29.519,.074,59.038,0,88.557,0,2.132,.662,2.426,2.573,2.426,52.752-.037,105.467-.037,158.219,0,2.095,0,2.463-.588,2.463-2.537-.074-13.969,0-27.938-.074-41.871,0-1.801,.478-2.316,2.279-2.316,5.514,.037,5.514,0,5.514,5.367,0,15.403-.037,30.806,.037,46.209,0,2.169-.331,2.904-2.794,2.904-57.752-.074-115.503-.074-173.255,0-2.169,0-2.757-.441-2.757-2.684,.074-31.872,0-63.744,.11-95.615,0-2.316-.551-2.978-2.867-2.867-4.228,.184-8.492,.11-12.756,.037-6.654-.11-11.653-5.073-11.653-11.727,0-36.283,0-72.456,.037-108.666,0-6.323,3.786-9.925,9.521-11.764h89.734ZM82.669,99.56v52.568c0,4.558,1.103,5.698,5.588,5.698h82.161c4.375,0,5.551-1.176,5.551-5.477V46.734c0-4.301-1.213-5.477-5.588-5.477H88.22c-4.375,0-5.551,1.176-5.551,5.514,0,17.609,0,35.217,0,52.789ZM234.418,62.982s-.147,.368-.147,.551c0,10.183,0,20.329-.037,30.512,0,1.875,1.066,1.617,2.206,1.617h28.674c.625,0,1.36,.294,1.765-.294-10.808-10.808-21.615-21.579-32.46-32.386Z"/>
    <path class="cls-2" d="M308.088,167.384c-.919,3.86-3.456,6.58-6.176,9.264-20.917,20.843-41.761,41.724-62.604,62.604-1.25,1.25-2.61,2.242-4.264,2.978-5.955,2.684-11.874,5.404-17.756,8.161-1.912,.882-3.639,1.14-5.22-.441-1.581-1.617-1.287-3.419-.368-5.257,0-.074,.074-.147,.11-.184,3.051-6.58,5.33-13.712,9.411-19.63,4.007-5.771,9.778-10.293,14.851-15.329,17.094-17.131,34.224-34.224,51.318-51.318,4.448-4.448,10.44-5.22,15.329-2.095,3.014,1.912,4.375,4.889,5.33,8.124v3.198l.037-.074Zm-84.881,71.5c4.007-2.022,8.492-2.941,11.837-6.323,14.594-14.704,29.262-29.299,43.893-43.966,1.176-1.176,3.161-2.389,3.235-3.603,.037-1.47-2.206-2.426-3.272-3.786-1.176-1.507-1.985-1.581-3.492-.11-14.668,14.815-29.335,29.666-44.297,44.223-3.97,3.897-5.771,8.676-7.904,13.565Zm72.493-76.978c-1.765,0-3.235,1.801-4.301,3.492-.846,1.287,1.25,1.838,1.948,2.794,.588,.846,1.47,1.507,2.206,2.242,.478,.515,.919,.735,1.47,.11,.809-.882,1.728-1.691,2.463-2.647,.956-1.25,.993-2.684,.221-4.044-.698-1.25-1.838-1.948-4.007-1.948Zm-4.852,15.072c-.294-.441-.404-.662-.551-.809-1.434-1.434-2.867-2.867-4.301-4.338-.515-.515-.846-.294-1.323,.074-2.022,1.544-2.095,1.948-.331,3.713,.919,.919,1.801,1.838,2.72,2.72,.404,.368,.735,1.176,1.434,.662,.846-.625,1.617-1.36,2.353-2.022Z"/>
    <path class="cls-2" d="M203.172,212.195c.074,21.321-17.351,38.856-38.709,38.967-21.358,.11-38.93-17.278-39.04-38.599-.074-21.652,17.314-39.187,38.856-39.187,21.321,0,38.783,17.461,38.856,38.82h.037Zm-7.793-.037c-.11-17.204-14.153-31.137-31.247-30.99-17.167,.147-30.99,14.153-30.916,31.357,.074,17.02,14.116,30.953,31.137,30.879,17.131-.037,31.137-14.153,31.026-31.247Z"/>
    <path class="cls-2" d="M237.948,153.966c-7.058,0-14.116-.037-21.138,0-1.581,0-2.059-.478-2.059-2.059,0-5.771-.074-5.771,5.808-5.771,12.83,0,25.622,.037,38.452-.037,1.985,0,2.573,.515,2.537,2.537-.11,5.33,0,5.33-5.404,5.33h-18.197Z"/>
    <path class="cls-2" d="M238.058,138.379c-7.058,0-14.116-.037-21.138,.037-1.728,0-2.169-.515-2.169-2.169,.037-5.624,0-5.624,5.698-5.624,12.903,0,25.769,.037,38.673-.037,1.912,0,2.426,.515,2.426,2.426-.074,5.404,0,5.404-5.294,5.404h-18.197v-.037Z"/>
    <path class="cls-2" d="M238.095,122.829h-21.395c-1.434,0-1.985-.294-1.985-1.875-.037-5.919-.11-5.919,5.882-5.919h38.673c1.654,0,2.242,.331,2.242,2.095,0,5.698,.074,5.698-5.661,5.698s-11.837,0-17.756,0Z"/>
    <path class="cls-2" d="M238.168,161.759c7.058,0,14.116,.037,21.138,0,1.654,0,2.206,.404,2.206,2.169,0,5.661,.037,5.661-5.477,5.661-12.977,0-25.917-.037-38.893,.037-1.875,0-2.463-.478-2.426-2.389,.11-5.441,0-5.441,5.477-5.441h17.976v-.037Z"/>
    <path class="cls-2" d="M207.032,150.106c0,2.573-1.323,3.86-3.97,3.86s-3.909-1.274-3.786-3.823c.123-2.549,1.483-3.872,4.08-3.97,2.598-.098,3.823,1.213,3.676,3.933Z"/>
    <path class="cls-2" d="M202.914,169.552c-2.426,0-3.639-1.238-3.639-3.713s1.336-3.823,4.007-4.044,3.921,1.054,3.75,3.823c-.172,2.769-1.544,4.093-4.117,3.97v-.037Z"/>
    <path class="cls-2" d="M207.032,119.006c0,2.573-1.323,3.86-3.97,3.86s-3.909-1.262-3.786-3.786c.123-2.524,1.483-3.848,4.08-3.97s3.823,1.189,3.676,3.933v-.037Z"/>
    <path class="cls-2" d="M207.032,134.519c0,2.573-1.323,3.86-3.97,3.86s-3.921-1.262-3.823-3.786c.098-2.524,1.458-3.848,4.08-3.97,2.622-.123,3.848,1.189,3.676,3.933l.037-.037Z"/>
    <path class="cls-2" d="M129.429,72.32h-40.511c-1.728,0-2.353-.368-2.316-2.242,.11-7.573,.074-15.182,0-22.755,0-1.654,.368-2.206,2.132-2.206,27.093,.074,54.186,.037,81.279,0,1.544,0,2.095,.368,2.095,1.985-.074,7.757-.074,15.476,0,23.233,0,1.691-.625,1.985-2.132,1.948-13.491-.037-27.019,0-40.511,0l-.037,.037Zm-.257-7.757c10.992,0,21.983-.037,32.975,.037,1.728,0,2.242-.478,2.132-2.169-.147-2.353-.184-4.705,0-7.058,.184-2.095-.625-2.463-2.537-2.463-20.549,.074-41.062,.037-61.611,.037-1.434,0-2.867,.037-4.338,0-1.103-.037-1.47,.404-1.434,1.47,.037,2.647,.147,5.33,0,7.94-.11,1.875,.625,2.206,2.316,2.206,10.844-.074,21.689,0,32.533,0h-.037Z"/>
    <path class="cls-2" d="M117.702,142.313v-3.639c.074-4.558,3.014-7.757,7.573-8.014,2.647-.147,5.33-.147,7.977,0,4.669,.221,7.646,3.419,7.72,8.124,0,2.5,.037,4.999,0,7.499-.11,4.117-2.904,7.242-7.021,7.573-2.941,.221-5.919,.221-8.859,.037-4.448-.257-7.279-3.456-7.389-7.94,0-1.213,0-2.426,0-3.639Zm11.69-3.933c-2.622,0-3.933,1.299-3.933,3.897v.221c0,2.451,1.238,3.676,3.713,3.676s3.823-1.336,4.044-4.007c.221-2.671-1.054-3.933-3.823-3.786Z"/>
    <path class="cls-2" d="M144.905,142.129c0-1.213-.037-2.426,0-3.639,.184-4.558,3.161-7.646,7.757-7.83,2.573-.11,5.147-.11,7.72,0,4.558,.221,7.646,3.345,7.793,7.867,.074,2.5,.074,4.999,0,7.499-.147,4.558-3.125,7.683-7.72,7.904-2.426,.11-4.852,.074-7.279,0-5.257-.11-8.234-3.161-8.308-8.455v-3.419h0l.037,.074Zm11.764-3.713c-2.647,0-3.97,1.299-3.97,3.897s1.262,3.884,3.786,3.86c2.524-.025,3.86-1.323,4.007-3.897,.147-2.573-1.115-3.86-3.786-3.86h-.037Z"/>
    <path class="cls-2" d="M113.695,142.313c0,1.507,.074,3.051,0,4.558-.221,3.566-2.867,6.47-6.396,6.911-3.382,.404-6.838,.404-10.22,0-3.713-.441-6.396-3.456-6.58-7.279-.11-2.794-.147-5.624,0-8.418,.184-4.154,3.235-7.168,7.499-7.426,2.72-.147,5.477-.147,8.198,0,4.485,.221,7.426,3.345,7.573,7.793,.037,1.287,0,2.573,0,3.86h-.074Zm-7.72,0c0-2.622-1.311-3.933-3.933-3.933s-3.897,1.274-3.823,3.823c.074,2.549,1.397,3.86,3.97,3.933,2.573,.074,3.848-1.201,3.823-3.823h-.037Z"/>
    <path class="cls-2" d="M129.392,76.29c1.434,0,2.904-.074,4.338,0,3.897,.221,7.058,3.272,7.205,7.168,.147,2.941,.147,5.919,0,8.859-.184,3.86-3.345,7.021-7.205,7.168-2.941,.11-5.919,.147-8.859,0-3.86-.184-6.948-3.382-7.095-7.279-.11-2.794-.074-5.624,0-8.418,.11-4.228,3.308-7.389,7.573-7.536,1.36-.037,2.72,0,4.08,0h0l-.037,.037Zm3.823,11.653c0-2.598-1.225-3.897-3.676-3.897s-3.811,1.323-4.08,3.97c-.27,2.647,1.005,3.909,3.823,3.786,2.818-.123,4.129-1.409,3.933-3.86Z"/>
    <path class="cls-2" d="M102.042,76.29c1.507,0,3.051-.074,4.558,0,3.823,.221,6.874,3.198,7.095,7.021,.147,3.014,.147,6.066,0,9.08-.184,3.897-3.308,6.948-7.279,7.095-2.794,.11-5.624,.074-8.418,0-4.117-.11-7.315-3.235-7.499-7.389-.147-2.794-.147-5.624,0-8.418,.184-4.264,3.419-7.315,7.683-7.426h3.86v.037Zm.11,15.476c2.549,0,3.823-1.25,3.823-3.75,0-3.75,0-.147,0-.221,0-2.524-1.262-3.786-3.786-3.786-2.524,0-3.848,1.287-3.97,3.86-.123,2.573,1.189,3.872,3.933,3.897Z"/>
    <path class="cls-2" d="M156.448,99.523c-1.36,0-2.72,.037-4.08,0-4.044-.184-7.205-3.161-7.389-7.205-.147-2.941-.147-5.919,0-8.859,.184-4.044,3.345-7.021,7.426-7.132,2.573-.074,5.147-.037,7.72,0,4.742,.074,7.94,3.235,8.087,8.014,.074,2.353,.037,4.705,0,7.058-.11,5.036-3.308,8.161-8.345,8.198h-3.419v-.074Zm.147-7.757c2.573,0,3.86-1.25,3.86-3.75,0-3.75,0-.147,0-.221,0-2.524-1.274-3.786-3.823-3.786-2.549,0-3.86,1.287-3.933,3.86-.074,2.573,1.238,3.872,3.933,3.897h-.037Z"/>
    <path class="cls-2" d="M117.702,115.073c0-1.434-.074-2.867,0-4.338,.184-3.823,3.088-6.985,6.911-7.205,3.088-.184,6.213-.184,9.337,0,3.823,.221,6.801,3.272,6.985,7.132,.11,2.941,.147,5.919,0,8.859-.184,3.933-3.345,6.985-7.462,7.205-2.794,.147-5.624,.147-8.418,0-4.264-.257-7.242-3.492-7.352-7.793v-3.86h0Zm7.757,.074c0,2.573,1.25,3.86,3.75,3.86,3.75,0,.147,0,.221,0,2.524,0,3.786-1.274,3.786-3.823s-1.287-3.872-3.86-3.97c-2.573-.098-3.872,1.201-3.897,3.897v.037Z"/>
    <path class="cls-2" d="M113.732,115.073v3.86c-.147,4.448-3.125,7.61-7.536,7.83-2.72,.147-5.477,.147-8.198,0-4.375-.221-7.426-3.456-7.573-7.83-.074-2.573-.074-5.147,0-7.72,.147-4.411,3.235-7.499,7.683-7.646,2.573-.074,5.147-.074,7.72,0,4.742,.11,7.72,3.198,7.867,7.94v3.639l.037-.074Zm-7.757,.294c0-2.72-1.336-4.08-4.007-4.08s-3.921,1.225-3.75,3.676c.172,2.451,1.507,3.811,4.007,4.08,2.5,.27,3.75-.956,3.75-3.676Z"/>
    <path class="cls-2" d="M144.979,114.999c0-1.581-.11-3.198,0-4.779,.331-3.529,3.161-6.433,6.654-6.654,3.161-.184,6.36-.184,9.558,0,3.86,.221,6.764,3.345,6.948,7.426,.147,2.72,.147,5.477,0,8.198-.221,4.375-3.382,7.426-7.83,7.61-2.353,.074-4.705,.037-7.058,0-5.22-.074-8.308-3.161-8.418-8.345v-3.419h.074l.074-.037Zm15.476,.221c0-2.647-1.299-3.97-3.897-3.97s-3.884,1.262-3.86,3.786c.025,2.524,1.323,3.86,3.897,4.007,2.573,.147,3.86-1.115,3.86-3.786v-.037Z"/>
    <text class="cls-3" transform="translate(135.753 224.143)"><tspan x="0" y="0">DZD</tspan></text>
  </g>
</svg>