<?xml version="1.0" encoding="UTF-8"?>
<svg id="Layer_1" data-name="Layer 1" xmlns="http://www.w3.org/2000/svg" viewBox="0 0 383 300">
  <defs>
    <style>
      .cls-1 {
        fill: #000;
      }

      .cls-2 {
        fill: #fff;
      }
    </style>
  </defs>
  <rect class="cls-1" x="0" y="-.215" width="383" height="300.715"/>
  <path class="cls-2" d="M187.761,257.186c-1.145,2.59-2.136,4.555-3.713,6.168-5.251,5.366-13.719,5.77-19.381,.799-2.074-1.82-3.968-3.846-5.922-5.8-11.945-11.943-23.887-23.89-35.817-35.85-.539-.54-.948-1.211-1.536-1.975-1.163,1.572-1.709,3.05-2.988,3.963-1.764,1.26-3.678,1.899-5.845,1.476-6.02-1.176-12.043-2.339-18.05-3.577-4.6-.948-7.002-4.592-6.082-9.225,2.954-14.891,5.944-29.775,8.929-44.659,.603-3.005,.621-3.002-2.375-3.004-3.455-.002-6.911,.037-10.365-.016-3.053-.047-4.31-1.302-4.318-4.392-.03-11.44-.029-22.881-.002-34.322,.007-3.229,1.246-4.479,4.448-4.519,4.069-.051,8.14-.063,12.208,.01,1.445,.026,2.139-.337,2.524-1.89,2.191-8.836,5.621-17.187,10.384-24.955,.81-1.321,.625-2.073-.446-3.092-2.948-2.803-5.795-5.714-8.654-8.61-2.229-2.257-2.263-4.122-.053-6.342,8.072-8.107,16.16-16.199,24.268-24.27,2.273-2.263,4.042-2.241,6.347,.024,2.957,2.906,5.901,5.827,8.781,8.809,.866,.897,1.475,1.185,2.688,.441,7.901-4.841,16.375-8.362,25.383-10.531,1.464-.352,1.726-1.052,1.704-2.374-.069-4.145-.049-8.292-.017-12.438,.023-3.017,1.359-4.372,4.36-4.377,11.517-.021,23.035-.021,34.552,0,2.983,.005,4.333,1.377,4.358,4.392,.036,4.146,.056,8.293-.017,12.438-.024,1.336,.27,2.02,1.72,2.365,9.018,2.148,17.479,5.701,25.382,10.534,1.234,.755,1.841,.414,2.69-.46,2.887-2.975,5.82-5.907,8.775-8.815,2.29-2.254,4.063-2.265,6.347,.009,8.108,8.071,16.198,16.161,24.268,24.27,2.188,2.198,2.135,4.094-.093,6.355-2.911,2.953-5.811,5.918-8.808,8.781-.978,.935-1.01,1.615-.33,2.731,4.784,7.847,8.244,16.263,10.465,25.173,.351,1.409,.935,1.857,2.331,1.833,4.068-.072,8.139-.053,12.208-.014,3.369,.032,4.631,1.257,4.639,4.574,.026,11.364,.027,22.728,0,34.091-.008,3.343-1.242,4.542-4.615,4.578-3.455,.037-6.916,.127-10.364-.034-2.146-.1-2.698,.387-2.236,2.632,3.063,14.869,5.976,29.769,8.953,44.656,1.038,5.188-1.291,8.714-6.46,9.733-5.416,1.067-10.823,2.186-16.245,3.221-5.202,.993-7.874-.497-10.043-5.701-2.334,2.329-4.58,4.589-6.85,6.823-.622,.612-.311,1.277-.239,1.942,.999,9.29-3.946,15.565-13.245,16.718-.935,.116-1.377,.333-1.387,1.33-.114,10.788-13.116,17.893-22.875,10.517-.114-.086-.284-.097-.539-.178-1.515,4.136-4.151,7.328-8.351,8.904-5.532,2.076-10.601,1.093-14.941-2.913-1.906-1.76-3.542-3.811-5.508-5.955Zm-21.979-103.725c-.056-.166-.112-.331-.168-.497h-2.015c-8.906,0-17.812,.072-26.716-.056-1.962-.028-2.594,.604-2.951,2.431-3.574,18.283-7.217,36.554-10.897,54.816-.261,1.297,.001,2.134,.927,3.038,3.844,3.755,7.62,7.579,11.42,11.38,11.019,11.02,22.047,22.031,33.047,33.071,1.912,1.919,4.08,3.041,6.811,2.466,2.51-.528,4.319-2.057,5.061-4.533,.782-2.612,.248-5.03-1.718-7.011-3.893-3.924-7.822-7.813-11.711-11.74-1.959-1.978-2.145-4.034-.591-5.667,1.623-1.707,3.726-1.531,5.845,.505,.72,.691,1.412,1.41,2.118,2.116,7.764,7.762,15.538,15.514,23.284,23.294,1.955,1.964,4.145,3.197,6.996,2.526,5.441-1.281,7.087-7.566,2.993-11.72-7.222-7.326-14.531-14.566-21.804-21.842-.868-.869-1.769-1.708-2.595-2.615-1.624-1.783-1.686-3.837-.215-5.35,1.467-1.509,3.58-1.489,5.354,.071,.46,.405,.874,.863,1.308,1.297,10.096,10.099,20.192,20.197,30.289,30.295,.488,.489,.961,.996,1.482,1.449,2.283,1.986,5.32,2.307,7.914,.861,2.539-1.415,3.828-4.279,3.249-7.265-.353-1.822-1.504-3.144-2.771-4.408-9.674-9.652-19.338-19.314-29-28.978-.596-.596-1.254-1.17-1.693-1.874-1.026-1.646-.817-3.265,.585-4.593,1.328-1.258,2.908-1.339,4.444-.404,.706,.43,1.28,1.09,1.875,1.684,9.722,9.712,19.441,19.428,29.151,29.153,.929,.931,1.883,1.801,3.129,2.291,2.991,1.177,6.343,.136,8.119-2.529,1.81-2.716,1.474-5.623-.946-8.079-14.064-14.272-28.107-28.566-42.212-42.797-3.801-3.835-8.024-7.134-13.218-8.973-1.465-.519-2.188-.377-2.328,1.458-.267,3.514-.686,7.026-1.236,10.508-1.913,12.098-8.747,19.791-20.696,22.809-3.146,.795-4.831-.224-5.524-3.389-2.329-10.633-4.542-21.293-6.996-31.897-1.444-6.24,.343-11.15,5.21-15.123,2.487-2.031,4.928-4.118,7.39-6.18Zm25.694-113.44c-3.993,0-7.987,.078-11.977-.036-1.718-.049-2.416,.307-2.329,2.222,.168,3.678,.057,7.369,.046,11.054-.01,3.192-.757,4.228-3.954,4.913-10.693,2.292-20.592,6.446-29.766,12.385-2.382,1.542-3.825,1.31-5.908-.756-2.78-2.757-5.577-5.499-8.283-8.328-.908-.949-1.425-.926-2.342,.005-5.876,5.959-11.779,11.892-17.761,17.743-1.168,1.143-.903,1.73,.103,2.694,2.661,2.549,5.234,5.189,7.834,7.801,2.507,2.519,2.662,3.647,.749,6.619-5.831,9.061-9.873,18.85-12.107,29.392-.635,2.997-1.686,3.845-4.759,3.872-3.839,.033-7.679,.052-11.516-.012-1.359-.023-1.896,.373-1.887,1.819,.055,8.292,.05,16.584,.003,24.876-.008,1.361,.358,1.923,1.807,1.872,2.684-.096,5.377-.113,8.059,.006,1.58,.07,2.092-.563,2.356-2.039,.809-4.527,1.754-9.031,2.691-13.535,.969-4.659,4.485-7.014,9.144-6.153,1.734,.32,3.49,.59,5.174,1.09,1.718,.51,2.156-.195,2.255-1.732,.104-1.603,.328-3.206,.606-4.79,7.478-42.533,50.788-69.297,92.329-57.066,28.225,8.31,48.6,32.613,51.827,61.885,.175,1.59,.616,2.182,2.282,1.696,1.687-.492,3.44-.77,5.175-1.087,4.65-.85,8.165,1.524,9.128,6.187,.945,4.58,1.882,9.163,2.732,13.762,.239,1.294,.741,1.825,2.105,1.778,2.684-.092,5.376-.09,8.06-.001,1.439,.048,2.019-.333,2.005-1.902-.069-8.215-.075-16.431,.004-24.645,.016-1.687-.62-2.058-2.148-2.023-3.76,.084-7.524,.052-11.286,.017-2.982-.028-4.083-.871-4.674-3.687-2.246-10.703-6.364-20.622-12.306-29.799-1.753-2.707-1.573-3.908,.758-6.257,2.704-2.725,5.393-5.467,8.158-8.128,.909-.875,1.019-1.405,.051-2.36-6.015-5.928-11.987-11.901-17.913-17.917-.949-.963-1.458-.867-2.338,.049-2.766,2.878-5.61,5.681-8.456,8.481-1.872,1.841-3.425,2.077-5.549,.683-9.343-6.133-19.503-10.266-30.409-12.632-2.6-.564-3.453-1.676-3.471-4.34-.027-3.916-.066-7.833,.023-11.746,.033-1.457-.323-2.001-1.888-1.961-4.143,.108-8.291,.037-12.437,.036Zm2.994,102.568c-2.729-.021-5.147,.847-7.225,2.579-8.258,6.881-16.495,13.785-24.748,20.672-2.086,1.741-2.858,3.903-2.274,6.567,2.034,9.288,4.073,18.574,6.06,27.872,.3,1.406,.751,1.698,2.128,1.073,5.513-2.503,8.791-6.751,10.186-12.561,1.134-4.722,1.405-9.556,1.855-14.365,.388-4.136,3.109-6.7,7.254-6.832,2.603-.083,4.999,.66,7.319,1.73,5.088,2.345,9.439,5.737,13.347,9.686,13.34,13.482,26.661,26.984,39.9,40.565,1.481,1.519,2.217,1.389,3.528-.057,2.215-2.443,4.589-4.75,7-7.004,1.026-.959,1.238-1.852,.962-3.217-3.424-16.91-6.809-33.828-10.111-50.761-.337-1.727-.768-2.073-2.507-1.579-9.043,2.567-18.043,2.382-26.903-.905-6.252-2.319-11.81-5.836-16.963-10.024-2.573-2.091-5.419-3.471-8.806-3.437Zm13.859-22.69c.052-4.201,1.037-7.766,3.368-10.867,5.728-7.62,16.463-9.098,23.958-3.304,7.487,5.787,8.785,16.582,2.763,23.989-1.105,1.36-.97,1.796,.518,2.555,3.036,1.549,5.759,3.635,7.762,6.39,1.614,2.219,2.968,4.161,5.786,1.647,.107-.095,.279-.125,.426-.168q4.092-1.213,3.462-5.513c-.078-.531-.204-1.055-.291-1.585-6.229-37.826-44.718-62.566-81.553-52.418-26.274,7.238-45.137,29.468-48.241,56.786-.158,1.394-.02,2.11,1.588,2.286,1.582,.174,3.25,.471,4.493,1.595,1.116,1.01,1.564,.455,2.224-.52,2.454-3.62,5.622-6.525,9.503-8.525,1.657-.853,1.372-1.385,.392-2.6-4.432-5.494-4.946-12.9-1.46-18.98,3.414-5.953,10.211-9.307,16.933-8.355,7.001,.991,12.565,6.064,14.186,13.016,.324,1.388,.418,2.83,.622,4.277,1.021-.069,1.546-.841,2.298-1.147,1.944-.791,2.581-1.412,.887-3.548-5.262-6.637-4.327-16.328,1.775-22.202,6.08-5.854,15.468-6.354,22.13-1.179,6.729,5.226,8.509,14.576,4.262,21.945-.742,1.287-2.747,2.478-2.189,3.658,.567,1.198,2.588,1.708,4.394,2.767Zm-16.824,1.961c-7.443,.214-13.182,3.338-17.398,9.342-.919,1.309-1.223,2.221,.463,3.256,1.959,1.202,3.639,2.85,4.952,4.749,.983,1.422,1.665,1.478,3.019,.347,5.066-4.231,11.068-5.854,17.175-3.491,3.931,1.521,6.344,.925,9.04-1.853,.987-1.016,1.101-1.504,.388-2.575-4.225-6.349-10.133-9.585-17.64-9.775Zm44.037,29.453c2.228-.074,4.885-.38,7.531-.878,1.482-.279,1.908-.765,1.167-2.233-1.26-2.495-2.82-4.734-4.867-6.636-7.537-7.002-19.67-7.297-27.362-.628-.627,.544-2.006,1.068-.41,2.18,7.068,4.925,14.695,8.216,23.942,8.196Zm-60.421-5.835c-4.613-6.331-10.443-9.485-17.839-9.352-7.09,.128-12.671,3.26-16.995,9.352h34.834Z"/>
</svg>