<?xml version="1.0" encoding="UTF-8"?>
<svg id="Layer_1" data-name="Layer 1" xmlns="http://www.w3.org/2000/svg" viewBox="0 0 383 300">
  <defs>
    <style>
      .cls-1 {
        fill: #fff;
      }

      .cls-2 {
        fill: #0f22b2;
      }
    </style>
  </defs>
  <rect class="cls-2" x="0" y="-.215" width="383" height="300.715"/>
  <g>
    <path class="cls-1" d="M199.108,182.288c5.362,0,10.71-.004,16.058,.005,.752,.001,.986-.274,.898-1.055-.982-8.679-.211-17.389-.431-26.083-.078-3.097-.071-6.199,.008-9.296,.166-6.47,5.244-11.719,11.69-11.77,13.651-.108,27.305-.11,40.956,.003,6.335,.052,11.536,5.234,11.613,11.565,.134,10.97,.013,21.944,.077,32.916,.007,1.218-1.175,2.778-.166,3.462,.934,.633,2.581,.219,3.914,.26,4.674,.144,9.387-.447,14.009,.704,11.646,2.899,19.563,14.027,18.31,25.723-1.316,12.278-11.325,21.616-23.613,21.785-10.216,.14-20.437,.077-30.654,.001-1.887-.014-3.246,.472-4.606,1.85-7.766,7.868-15.675,15.596-23.443,23.462-1.446,1.464-2.474,1.903-4.332,.59-2.932-2.071-6.13-3.762-9.164-5.693-1.101-.701-1.959-.838-3.183-.128-6.613,3.835-13.609,6.802-21.02,8.716-1.43,.37-1.995,1.121-2.295,2.511-.811,3.759-1.853,7.468-2.657,11.228-.285,1.33-.816,1.762-2.163,1.757-11.642-.046-23.284-.051-34.926,.004-1.458,.007-2.014-.453-2.316-1.886-.793-3.762-1.854-7.467-2.666-11.225-.283-1.311-.817-2.027-2.133-2.366-7.496-1.928-14.561-4.937-21.254-8.799-1.147-.662-1.949-.494-2.961,.141-3.331,2.091-6.737,4.062-10.042,6.191-1.108,.713-1.773,.726-2.743-.253-8.253-8.33-16.544-16.622-24.877-24.871-1.004-.994-.902-1.673-.208-2.753,2.081-3.237,4.001-6.578,6.076-9.819,.761-1.189,.859-2.126,.11-3.409-3.81-6.534-6.698-13.47-8.626-20.789-.356-1.353-.973-2.082-2.431-2.388-3.844-.807-7.634-1.869-11.474-2.697-1.248-.269-1.613-.802-1.61-2.019,.035-11.726,.041-23.452-.007-35.178-.006-1.37,.476-1.857,1.783-2.141,3.839-.834,7.629-1.891,11.467-2.733,1.223-.268,1.852-.777,2.172-1.996,1.989-7.564,4.988-14.723,8.918-21.48,.616-1.059,.434-1.802-.151-2.737-2.132-3.404-4.161-6.873-6.317-10.261-.65-1.021-.659-1.65,.245-2.547,8.386-8.316,16.738-16.664,25.05-25.054,.938-.947,1.585-.783,2.558-.168,3.253,2.057,6.596,3.973,9.822,6.071,1.285,.836,2.278,.895,3.625,.11,6.024-3.508,12.412-6.202,19.14-8.033,1.599-.435,2.232-1.031,2.206-2.873-.423-30.59,24.304-54.572,54.868-53.314,29.757,1.225,52.814,28.465,49.212,58.141-3.351,27.61-26.763,47.535-54.558,46.278-10.469-.473-19.974-3.945-28.371-10.245-1.383-1.038-2.681-1.427-4.37-1.227-22.565,2.673-42.086,22.431-44.569,45.015-.619,5.634-.472,11.184,.55,16.746,.265,1.444,.691,2.168,2.381,2.102,3.763-.146,7.539-.126,11.304-.01,1.779,.055,2.158-.457,1.628-2.121-.295-.926-.204-1.989-.205-2.991-.012-10.051-.019-20.102-.004-30.152,.012-8.012,5.003-13.007,13.012-13.016,12.815-.015,25.63-.019,38.444,.001,7.844,.012,12.85,5.037,12.867,12.91,.022,10.135,.023,20.269-.013,30.404-.006,1.571-.255,3.141-.411,4.924Zm48.332,48.259c-9.777,0-19.051,.011-28.325-.015-1.039-.003-1.697,.613-2.433,1.143-15.71,11.308-33.17,16.301-52.5,14.561-37.503-3.375-67.44-34.65-69.121-72.213-1.494-33.395,18.72-63.869,50.09-75.503,1.796-.666,4.667-.841,5.153-2.021,.593-1.441-.931-3.679-1.306-5.617-.317-1.638-1.009-1.708-2.424-1.272-7.239,2.23-14.093,5.29-20.441,9.416-1.406,.914-2.403,.95-3.808-.002-2.767-1.876-5.729-3.464-8.532-5.29-1.135-.739-1.8-.616-2.736,.336-5.225,5.317-10.498,10.588-15.816,15.812-.945,.929-1.098,1.583-.348,2.729,1.879,2.869,3.548,5.875,5.425,8.746,.801,1.225,.814,2.127,.002,3.382-5.462,8.441-9.273,17.59-11.354,27.431-.308,1.459-1.033,2.083-2.405,2.381-3.268,.712-6.507,1.558-9.773,2.278-1.279,.282-1.965,.671-1.942,2.252,.106,7.454,.087,14.91,.012,22.364-.014,1.383,.494,1.873,1.745,2.144,3.351,.724,6.671,1.586,10.019,2.327,1.259,.279,2.017,.791,2.308,2.186,2.071,9.933,5.913,19.159,11.427,27.668,.836,1.29,.694,2.191-.075,3.381-1.861,2.881-3.558,5.869-5.409,8.757-.643,1.003-.678,1.644,.231,2.539,5.373,5.287,10.712,10.611,15.988,15.995,.983,1.003,1.665,.939,2.743,.244,2.812-1.814,5.741-3.449,8.539-5.282,1.277-.837,2.233-.936,3.592-.061,8.45,5.439,17.6,9.247,27.439,11.335,1.324,.281,1.971,.895,2.259,2.219,.746,3.432,1.668,6.825,2.408,10.258,.259,1.2,.759,1.609,1.994,1.601,7.538-.052,15.078-.047,22.616-.003,1.197,.007,1.754-.322,2.018-1.567,.728-3.435,1.662-6.825,2.415-10.255,.287-1.307,.896-1.961,2.238-2.244,9.927-2.096,19.146-5.949,27.659-11.456,1.174-.759,2.041-.702,3.17,.023,2.957,1.899,6.003,3.658,8.971,5.54,.891,.565,1.497,.725,2.344-.14,5.151-5.265,10.358-10.476,15.944-16.106ZM155.311,77.543c-.075,24.433,19.714,44.383,44.078,44.438,24.31,.054,44.245-19.667,44.373-43.897,.129-24.449-19.611-44.458-43.957-44.555-24.449-.098-44.42,19.658-44.494,44.015Zm47.011,153.001c-9.545,0-19.09-.022-28.634,.007-7.35,.022-14.488-1.156-21.442-3.53-23.394-7.985-40.294-30.179-41.121-54.028-.89-25.639,13.656-48.575,36.992-58.354,3.519-1.475,7.195-2.463,11.061-3.508-1.307-1.893-2.627-3.523-3.622-5.332-.831-1.51-1.747-1.597-3.258-1.17-40.541,11.441-61.138,58.392-42.098,96.034,13.227,26.148,40.389,40.753,69.72,37.354,7.925-.918,15.455-3.296,22.402-7.474Zm-35.08-48.25c6.362,0,12.724,.011,19.087-.004,3.777-.009,5.156-1.375,5.161-5.136,.015-9.711,.007-19.421,.004-29.132-.001-4.851-1.246-5.982-6.124-5.978-1.564,.001-1.99,.446-1.951,1.98,.102,4.099-.016,8.204,.062,12.304,.026,1.377-.319,1.881-1.796,1.872-9.543-.062-19.087-.062-28.63,0-1.476,.01-1.822-.494-1.796-1.871,.078-4.1,.053-8.204,0-12.305-.008-.643,.454-1.499-.631-1.91-3.722-1.41-7.366,.959-7.376,4.901-.024,10.129-.022,20.259,0,30.388,.007,3.436,1.454,4.87,4.901,4.884,6.362,.026,12.724,.007,19.087,.008Zm80.528,0c6.279,0,12.557,.009,18.836-.003,3.95-.007,5.296-1.334,5.301-5.249,.012-9.627,.005-19.254,.004-28.881,0-5.025-1.252-6.184-6.237-6.111-1.419,.02-1.865,.406-1.834,1.836,.087,4.1-.027,8.204,.06,12.305,.031,1.468-.283,2.032-1.911,2.018-9.459-.08-18.919-.077-28.378-.002-1.587,.013-1.976-.478-1.94-1.99,.097-4.1,.052-8.203,.013-12.305-.006-.648,.385-1.476-.747-1.821-4.084-1.244-7.265,1.024-7.27,5.287-.011,9.962-.015,19.924,.003,29.886,.006,3.603,1.418,5.012,5.016,5.024,6.362,.021,12.724,.006,19.087,.006Zm-76.74,8.042c-.966,0-1.683,0-2.401,0-14.221,0-28.442-.002-42.663,.002-2.687,0-2.746,.041-1.468,2.503,7.7,14.826,19.789,24.085,35.925,28.128,3.329,.834,6.72,1.372,10.47,1.31-8.867-8.007-11.127-21.181,.136-31.943Zm12.467,4.028c-6.576-.02-12.019,5.325-12.098,11.881-.08,6.68,5.345,12.205,12.006,12.228,6.564,.022,12.023-5.339,12.102-11.886,.08-6.678-5.348-12.203-12.01-12.223Zm60.259,12.061c.003-6.569-5.366-12-11.921-12.061-6.683-.062-12.181,5.372-12.186,12.043-.005,6.666,5.496,12.121,12.168,12.065,6.553-.054,11.936-5.486,11.939-12.048Zm36.283-12.061c-6.578-.04-12.042,5.288-12.141,11.837-.1,6.684,5.304,12.228,11.962,12.271,6.565,.043,12.047-5.302,12.145-11.842,.1-6.682-5.308-12.226-11.966-12.267Zm-84.366-3.892c5.165,4.474,7.889,9.669,7.861,16.088-.028,6.362-2.882,11.476-7.954,15.941h23.804c-9.943-9.029-10.614-22.351-.196-32.029h-23.515Zm72.208,32.029c-5.276-4.579-8.02-9.753-8.005-16.167,.015-6.38,2.838-11.505,7.806-15.874h-23.722c5.009,4.394,7.805,9.536,7.827,15.92,.023,6.447-2.865,11.617-7.916,16.122,7.676,0,14.786,0,21.896,0,.491,0,.982,0,2.114,0Zm24.488,.004c6.167-.455,10.762-3.079,13.63-8.27,3.194-5.781,2.839-11.571-.867-17.038-2.998-4.423-8.458-7.166-12.53-6.502,8.554,7.527,11.303,20.762-.232,31.81Zm-125.122-72.378h2.256c6.116,0,6.071,0,5.943-6.217-.028-1.382-.348-1.913-1.811-1.855-2.753,.108-5.514,.03-8.271,.03-6.313,0-6.274-.001-6.066,6.342,.042,1.27,.327,1.792,1.683,1.725,2.084-.102,4.177-.027,6.266-.026Zm80.534,0c2.005,0,4.02,.125,6.014-.026,4.277-.324,1.257-3.565,1.942-5.34,.518-1.343,.447-2.967-2.06-2.731-2.651,.249-5.343,.056-8.017,.056-6.119,0-6.075,0-5.95,6.21,.028,1.373,.33,1.944,1.804,1.861,2.082-.117,4.176-.03,6.265-.029Z"/>
    <path class="cls-1" d="M199.505,41.569c19.991-.012,36.253,16.276,36.217,36.276-.035,19.861-16.281,36.079-36.155,36.093-19.982,.015-36.248-16.282-36.214-36.282,.033-19.864,16.274-36.076,36.153-36.087Zm.12,8.047c-15.479-.044-28.184,12.581-28.226,28.047-.042,15.476,12.586,28.184,28.049,28.228,15.478,.045,28.183-12.582,28.225-28.051,.042-15.483-12.576-28.18-28.048-28.224Z"/>
    <path class="cls-1" d="M186.552,75.246c.342,.314,.78,.691,1.188,1.098,2.017,2.006,4.111,3.943,6.008,6.057,1.277,1.422,2.079,1.533,3.505,.064,5.885-6.063,11.949-11.951,17.857-17.992,1.262-1.29,1.961-1.495,3.332-.078,4.028,4.167,4.099,4.099-.073,8.271-7.099,7.099-14.228,14.169-21.269,21.325-1.206,1.225-1.873,1.345-3.122,.039-3.873-4.05-7.841-8.015-11.89-11.889-1.318-1.262-1.258-2.04,.072-3.132,1.094-.898,2.019-2,3.042-2.988,.342-.33,.605-.823,1.351-.774Z"/>
  </g>
</svg>