<?xml version="1.0" encoding="UTF-8"?>
<svg id="Layer_1" data-name="Layer 1" xmlns="http://www.w3.org/2000/svg" viewBox="0 0 48 48">
  <defs>
    <style>
      .cls-1 {
        fill: #ea9c00;
      }

      .cls-2 {
        fill: #0f22b2;
      }
    </style>
  </defs>
  <rect class="cls-2" x="0" width="48" height="48" rx="8.5" ry="8.5"/>
  <g>
    <path class="cls-1" d="M38.475,6c.064,.025,.127,.054,.193,.073,.973,.277,1.631,1.066,1.646,2.074,.025,1.616,.012,3.232,.008,4.848,0,.359-.213,.586-.512,.59-.312,.004-.528-.229-.53-.613-.006-1.487-.003-2.974-.004-4.462,0-1.051-.412-1.458-1.47-1.458-9.204,0-18.409,0-27.613,0-.07,0-.141,0-.211,0-.776,.009-1.251,.468-1.258,1.245-.01,1.194-.003,2.389-.003,3.583,0,4.602,0,9.204,.004,13.807,0,.137-.091,.359,.094,.397,.256,.052,.541,.077,.793-.021,.103-.04,.044-.215,.045-.328,.003-2.143,.002-4.286,.002-6.429,0-3.419,0-6.839,0-10.258,0-.774,.287-1.066,1.053-1.066,8.853,0,17.706,0,26.559,0,.786,0,1.067,.288,1.068,1.088,0,4.836,.004,9.673-.008,14.509,0,.341,.083,.434,.422,.421,.523-.021,.524,.005,.524-.521,0-2.529,0-5.059,0-7.588,0-.105-.004-.211,.002-.316,.022-.368,.214-.579,.524-.58,.311,0,.504,.212,.521,.578,.005,.117,.002,.234,.002,.351,0,3.267,.004,6.534-.007,9.802-.001,.306,.072,.396,.386,.391,.734-.011,1.209,.475,1.22,1.201,.006,.363,.008,.726-.001,1.089-.016,.657-.467,1.116-1.126,1.153-.152,.009-.304,.005-.457,.005-5.656,0-11.312,.004-16.968-.009-.366,0-.496,.105-.51,.459-.012,.29-.083,.578-.133,.866-.077,.436-.127,.861-.053,1.314,.082,.5-.09,.974-.417,1.371-.106,.128-.12,.215-.023,.362,.323,.493,.335,1.014,.053,1.528-.078,.142-.047,.221,.029,.34,.407,.643,.365,1.255-.13,1.838-.096,.113-.12,.192-.063,.335,.262,.665,.108,1.241-.429,1.705-.126,.109-.145,.188-.104,.352,.255,1.007-.414,1.886-1.451,1.88-1.379-.009-2.764,.091-4.132-.194-.681-.142-1.304-.444-1.948-.686-.164-.061-.329-.121-.495-.176-.282-.093-.498-.074-.55,.292-.015,.107-.109,.204-.169,.304-.45,.755-2.361,.762-2.758-.113-.083-.183-.206-.215-.386-.213-.726,.008-1.452,.004-2.178,.003-.948-.002-1.436-.483-1.436-1.42-.001-1.651-.002-3.302,0-4.954,.001-.899,.493-1.396,1.385-1.4,.749-.003,1.499-.005,2.248,.002,.168,.002,.272-.038,.362-.196,.253-.443,.656-.65,1.163-.659,.176-.003,.351-.005,.527,0,.551,.018,.981,.257,1.2,.766,.122,.283,.236,.242,.391,.071,.197-.216,.387-.439,.564-.671,.719-.948,1.679-1.382,2.857-1.374,.726,.005,1.452-.013,2.178,.008,.26,.008,.346-.086,.38-.322,.052-.358,.119-.716,.203-1.068,.061-.256,.016-.362-.275-.347-.432,.022-.866,.006-1.3,.006-3.49,0-6.979,0-10.469,0-1.023,0-1.431-.405-1.431-1.417,0-.281-.004-.562,.001-.843,.013-.691,.48-1.201,1.162-1.184,.397,.01,.444-.138,.444-.478-.009-5.644,.01-11.289-.02-16.933-.007-1.242,.357-2.267,1.864-2.708,9.65,0,19.301,0,28.951,0Zm-14.483,3.03c-4.298,0-8.596,.003-12.894-.007-.297,0-.395,.056-.394,.379,.011,5.446,.012,10.892,0,16.338,0,.333,.112,.373,.398,.372,2.295-.01,4.591-.006,6.886-.005,.128,0,.262-.008,.384,.022,.272,.068,.427,.259,.407,.538-.019,.274-.186,.45-.47,.483-.116,.014-.234,.006-.351,.006-3.279,0-6.558,0-9.837,0-1.009,0-1.002,0-1.001,1.008,0,.247,.05,.351,.326,.35,4.029-.008,8.058-.007,12.086-.001,.22,0,.296-.072,.336-.29,.295-1.599,.596-3.196,.92-4.789,.061-.3,.02-.37-.293-.368-2.167,.013-4.333,.007-6.5,.007-.117,0-.237,.011-.35-.012-.275-.056-.438-.24-.437-.516,.001-.276,.164-.46,.441-.512,.113-.022,.233-.011,.35-.011,2.237,0,4.474-.006,6.711,.006,.282,.002,.38-.085,.419-.358,.074-.52,.164-1.041,.295-1.55,.083-.321-.011-.364-.304-.362-2.366,.01-4.731,.006-7.097,.005-.14,0-.284,.003-.418-.031-.273-.07-.42-.268-.394-.546,.026-.274,.194-.446,.481-.471,.116-.01,.234-.006,.351-.006,2.436,0,4.872-.004,7.308,.006,.261,.001,.369-.069,.407-.333,.069-.474,.178-.942,.267-1.413,.098-.522,.097-.523-.425-.523-2.53,0-5.059,0-7.589,0-.538,0-.798-.168-.808-.519-.01-.362,.252-.535,.818-.535,2.682,0,5.364-.002,8.046,.004,.215,0,.359-.054,.505-.228,.572-.68,1.586-.688,2.151-.011,.157,.188,.311,.238,.535,.238,2.893-.005,5.785-.004,8.678-.003,.14,0,.282-.003,.421,.016,.272,.036,.419,.219,.436,.475,.017,.258-.113,.457-.375,.523-.145,.036-.301,.038-.452,.039-2.834,.002-5.668,.01-8.503-.009-.36-.002-.457,.118-.49,.443-.048,.476-.142,.948-.22,1.422-.068,.409-.07,.409,.358,.409,2.951,0,5.903,0,8.854,0,.117,0,.235-.005,.351,.006,.287,.027,.453,.201,.476,.475,.023,.278-.126,.474-.399,.542-.133,.033-.278,.029-.418,.029-3.045,.001-6.09,.004-9.135-.004-.242,0-.348,.049-.378,.311-.061,.534-.15,1.066-.257,1.593-.057,.283-.017,.38,.303,.367,.69-.028,1.382-.01,2.073-.008,.44,.001,.675,.194,.667,.538-.008,.331-.234,.511-.659,.512-.761,.002-1.523,.011-2.284-.005-.25-.005-.34,.066-.378,.318-.239,1.561-.496,3.119-.749,4.678-.073,.447-.076,.447,.363,.447,5.481,0,10.962,0,16.443,0q.896,0,.895-.896,0-.457-.458-.457c-4.931,0-9.861,0-14.792,0-.129,0-.26,.011-.386-.012-.263-.047-.415-.218-.43-.482-.015-.247,.107-.422,.341-.517,.136-.055,.277-.039,.416-.039,2.331-.001,4.661-.01,6.992,.009,.373,.003,.458-.102,.454-.461-.011-1.003,.673-1.661,1.68-1.665,.738-.003,1.476-.016,2.213,.007,.303,.009,.389-.062,.389-.38-.012-4.731-.012-9.463,0-14.194,0-.331-.097-.399-.41-.399-4.298,.01-8.596,.007-12.894,.007Zm-10.88,28.159c0,.761-.002,1.521,.002,2.282,0,.114-.058,.278,.155,.281,.69,.01,1.279,.348,1.897,.587,.548,.212,1.106,.372,1.689,.448,.188,.024,.281-.005,.255-.23-.05-.43,.083-.813,.386-1.122,.112-.115,.101-.201,.049-.338-.24-.634-.117-1.199,.383-1.66,.124-.115,.148-.2,.094-.355-.139-.395-.14-.821,.113-1.143,.269-.342,.383-.651,.19-1.051-.087-.18,.146-.447-.063-.553-.169-.085-.413-.021-.623-.022-.07,0-.14,0-.211,0-.443-.006-.679-.191-.678-.533,0-.344,.227-.52,.682-.521,1.065-.002,2.13-.003,3.195,0,.423,.001,.753-.153,.936-.55,.138-.299,.094-.367-.235-.367-1.416-.002-2.833,.037-4.247-.013-1.11-.039-1.95,.341-2.56,1.271-.294,.447-.689,.802-1.215,.961-.182,.055-.195,.16-.194,.31,.003,.772,.002,1.545,.002,2.317Zm7.842-5.901c.654,.001,.645,0,.732-.541,.524-3.278,1.054-6.555,1.58-9.833,.248-1.547,.493-3.094,.741-4.64,.044-.277-.006-.516-.321-.555-.296-.036-.397,.19-.443,.44-.009,.046-.012,.093-.021,.139-.919,4.798-1.838,9.595-2.759,14.393-.115,.598-.119,.597,.491,.598Zm-11.068,5.964c0-.854-.007-1.707,.005-2.561,.003-.228-.06-.304-.294-.299-.701,.014-1.403,.011-2.105,.002-.252-.003-.356,.088-.355,.349,.007,1.661,.007,3.321,0,4.982-.001,.26,.102,.353,.355,.35,.702-.008,1.403-.012,2.105,.002,.232,.005,.298-.069,.295-.298-.012-.842-.005-1.684-.005-2.526Zm1.052-.017c0,1.064,0,2.129,0,3.193,0,.46,.047,.498,.581,.498,.508,0,.541-.029,.541-.496,0-2.082,0-4.164,0-6.246q0-.644-.645-.638c-.42,.004-.477,.061-.477,.496-.001,1.064,0,2.129,0,3.193Zm25.712-11.13c.783,0,1.566,.002,2.349-.003,.103,0,.231,.053,.277-.125,.145-.558-.129-.936-.698-.937-1.262-.002-2.524-.001-3.787,0-.571,0-.729,.181-.742,.763-.005,.256,.085,.311,.321,.306,.759-.013,1.519-.005,2.279-.005Zm-16.769,12.007c-.326,0-.653-.005-.979,.002-.267,.006-.413,.16-.413,.42,0,.26,.147,.418,.413,.421,.618,.007,1.236,.007,1.854,0,.28-.003,.439-.157,.431-.439-.008-.264-.168-.4-.431-.404-.291-.004-.583-.001-.874,0Zm.361-1.899c-.28,0-.56-.008-.839,.002-.247,.009-.388,.15-.397,.398-.009,.265,.131,.431,.393,.438,.571,.014,1.143,.011,1.714,.003,.262-.004,.417-.16,.417-.419,0-.258-.146-.414-.413-.421-.291-.007-.583-.002-.874,0Zm-.872,4.641c.269,0,.537,.002,.806,0,.27-.003,.419-.158,.423-.413,.004-.255-.142-.422-.41-.426-.537-.008-1.074-.008-1.611,0-.261,.004-.417,.147-.42,.414-.003,.288,.164,.422,.442,.427,.257,.004,.514,0,.771,0Zm1.039-6.54c-.211,0-.422-.005-.632,.001-.255,.007-.39,.162-.401,.4-.011,.241,.122,.419,.368,.431,.432,.021,.866,.02,1.299,.003,.245-.009,.383-.171,.38-.419-.003-.264-.146-.412-.416-.417-.199-.004-.398,0-.597,0Z"/>
    <path class="cls-1" d="M24,13.121c-3.29,0-6.581,0-9.871,0-.07,0-.141,0-.211,0-.472-.004-.724-.189-.718-.529,.006-.337,.256-.517,.733-.517,5.808,0,11.616,0,17.423,0,.937,0,1.873,.001,2.81,0,.298,0,.53,.097,.611,.412,.073,.287-.114,.57-.417,.618-.138,.022-.28,.016-.42,.016-3.314,0-6.627,0-9.941,0Z"/>
  </g>
</svg>