<?xml version="1.0" encoding="UTF-8"?>
<svg id="Layer_1" data-name="Layer 1" xmlns="http://www.w3.org/2000/svg" viewBox="0 0 48 48">
  <defs>
    <style>
      .cls-1 {
        fill: #ea9c00;
      }

      .cls-2 {
        fill: #0f22b2;
      }
    </style>
  </defs>
  <rect class="cls-2" width="48" height="48" rx="8.5" ry="8.5"/>
  <g>
    <path class="cls-1" d="M18.625,8.562c.129,.062,.267,.034,.4,.034,4.073,.002,8.146,.001,12.218,.002,.156,0,.313,.001,.468,.019,.399,.047,.683,.34,.724,.739,.009,.093,.007,.187,.007,.281,0,3.094-.004,6.187,.007,9.281,0,.279-.07,.348-.344,.34-.739-.02-1.479-.018-2.218,0-.244,.006-.291-.075-.29-.301,.008-2.385,0-4.771,.01-7.156,.001-.277-.06-.367-.356-.366-3.344,.011-6.687,.011-10.031,0-.296-.001-.355,.088-.353,.363,.012,1.729,.006,3.458,.006,5.187,0,.497-.043,.541-.53,.541-1.76,0-3.521,.006-5.281-.006-.276-.002-.349,.075-.348,.349,.008,6.489,.008,12.979-.001,19.468,0,.305,.106,.35,.374,.349,3.979-.008,7.958-.002,11.937-.012,.281,0,.367,.065,.36,.355-.021,.843-.009,1.687-.009,2.531H10.5c-.481-.229-.634-.614-.633-1.136,.009-7.686,.018-15.372-.011-23.057-.003-.761,.204-1.285,.757-1.81,1.955-1.858,3.856-3.772,5.781-5.662,.127-.125,.203-.321,.42-.335h1.812Z"/>
    <path class="cls-1" d="M28.812,40.562c-.205-.165-.243-.385-.242-.637,.006-1.853-.004-3.707,.01-5.56,.002-.295-.089-.358-.367-.356-1.843,.012-3.686,.006-5.529,.006-.567,0-.641-.071-.641-.622-.001-1.312-.002-2.624,0-3.936,0-.513,.087-.597,.603-.597,1.864,0,3.728-.007,5.592,.007,.282,.002,.344-.08,.342-.35-.012-1.853-.007-3.707-.006-5.561,0-.539,.103-.643,.632-.644,1.322,0,2.645-.001,3.967,0,.456,0,.574,.117,.575,.571,.001,1.885,.006,3.77-.005,5.654-.001,.259,.068,.329,.328,.327,1.853-.011,3.707-.006,5.561-.006,.532,0,.62,.087,.62,.613,0,1.312,0,2.624,0,3.936,0,.512-.091,.606-.596,.606-1.843,.001-3.686,.01-5.529-.009-.332-.003-.386,.099-.384,.4,.014,1.853,.004,3.707,.01,5.56,0,.244-.045,.449-.252,.595h-4.688Z"/>
  </g>
</svg>