<?xml version="1.0" encoding="UTF-8"?>
<svg id="Layer_1" data-name="Layer 1" xmlns="http://www.w3.org/2000/svg" viewBox="0 0 383 300">
  <defs>
    <style>
      .cls-1 {
        fill: #fff;
      }

      .cls-2 {
        fill: #0f22b2;
      }
    </style>
  </defs>
  <rect class="cls-2" x="0" y="-.215" width="383" height="300.715"/>
  <g>
    <path class="cls-1" d="M151.858,271.142c-23.606,0-47.211,.001-70.817-.001-4.605,0-5.766-1.175-5.766-5.829-.002-41.835-.002-83.669,0-125.504,0-4.628,1.164-5.788,5.801-5.788,23.017-.002,46.035-.002,69.052,0,4.634,0,5.805,1.167,5.805,5.789,.003,18.733,.04,37.467-.052,56.199-.01,2.141,.59,2.595,2.647,2.587,21.337-.079,42.675-.049,64.012-.048,4.853,0,5.987,1.108,5.988,5.86,.002,20.329,.002,40.659,0,60.988,0,4.581-1.189,5.745-5.854,5.746-23.606,.002-47.211,0-70.817,0Zm-36.259-72.595c9.996,0,19.993-.033,29.989,.033,1.631,.011,2.334-.231,2.325-2.129-.076-17.472-.064-34.945-.012-52.418,.005-1.531-.378-2.029-1.957-1.985-4.029,.112-8.067,.14-12.094-.009-1.884-.07-2.176,.655-2.149,2.311,.093,5.627,.051,11.256,.03,16.884-.014,3.617-1.424,5.033-5.035,5.043-7.392,.02-14.785,.02-22.177,0-3.619-.01-5.027-1.419-5.041-5.032-.021-5.628-.1-11.259,.045-16.883,.05-1.961-.579-2.384-2.405-2.319-3.859,.138-7.73,.136-11.59,0-1.778-.063-2.235,.466-2.228,2.232,.067,17.304,.083,34.61-.015,51.914-.012,2.132,.745,2.41,2.577,2.396,9.912-.078,19.825-.037,29.737-.037Zm.004,64.528c10.08,0,20.161-.022,30.241,.025,1.411,.007,2.07-.186,2.063-1.873-.064-17.641-.052-35.281-.015-52.922,.003-1.309-.365-1.745-1.701-1.719-4.031,.077-8.067,.119-12.095-.014-1.815-.06-2.464,.34-2.412,2.312,.147,5.624,.067,11.255,.045,16.883-.014,3.614-1.426,5.029-5.039,5.038-7.392,.02-14.785,.02-22.177,0-3.617-.01-5.023-1.42-5.036-5.036-.021-5.628-.101-11.259,.045-16.883,.051-1.968-.591-2.378-2.41-2.314-3.859,.136-7.73,.137-11.59,0-1.784-.063-2.23,.477-2.224,2.236,.066,17.304,.083,34.61-.016,51.914-.012,2.139,.757,2.405,2.582,2.391,9.912-.076,19.825-.036,29.737-.036Zm72.575,0c9.996,0,19.993-.031,29.989,.032,1.609,.01,2.35-.192,2.341-2.112-.078-17.472-.063-34.945-.015-52.418,.004-1.505-.335-2.049-1.94-2.002-4.029,.117-8.067,.14-12.094-.007-1.862-.068-2.195,.616-2.166,2.295,.098,5.627,.052,11.256,.031,16.884-.014,3.627-1.418,5.048-5.02,5.058-7.392,.021-14.785,.019-22.177,0-3.631-.009-5.042-1.411-5.056-5.017-.022-5.712-.07-11.426,.033-17.136,.031-1.689-.51-2.12-2.126-2.075-3.861,.108-7.732,.143-11.59-.01-1.959-.078-2.514,.463-2.504,2.471,.084,17.22,.09,34.441-.005,51.662-.012,2.104,.7,2.429,2.56,2.413,9.912-.083,19.825-.039,29.737-.039Zm-72.616-104.859c2.097,0,4.197-.079,6.289,.028,1.419,.072,1.881-.379,1.85-1.825-.088-4.191-.095-8.387,.002-12.579,.035-1.506-.536-1.806-1.893-1.782-4.192,.073-8.387,.072-12.579,0-1.305-.022-1.743,.359-1.72,1.697,.076,4.276,.08,8.555-.002,12.831-.027,1.391,.515,1.698,1.763,1.651,2.094-.08,4.193-.022,6.289-.021Zm-.203,64.355c0,.058,0,.116,0,.174,2.181,0,4.366-.088,6.54,.03,1.489,.081,1.824-.499,1.798-1.876-.077-4.192-.07-8.387-.003-12.579,.021-1.285-.325-1.76-1.682-1.735-4.276,.079-8.555,.08-12.831,0-1.374-.026-1.715,.481-1.666,1.749,.083,2.177-.045,4.363,.04,6.54,.1,2.565-1.125,6.001,.524,7.44,1.42,1.239,4.778,.257,7.279,.257Zm80.905-7.802c0-2.181-.045-4.362,.019-6.541,.033-1.132-.241-1.657-1.515-1.638-4.36,.065-8.722,.06-13.083,.002-1.207-.016-1.587,.387-1.572,1.582,.056,4.36,.043,8.722,.007,13.083-.008,1.019,.23,1.519,1.386,1.506,4.444-.05,8.89-.047,13.334,0,1.098,.011,1.472-.366,1.442-1.453-.061-2.179-.018-4.361-.017-6.541Z"/>
    <path class="cls-1" d="M204.291,69.49c-15.205,0-30.411,.042-45.616-.048-2.118-.013-2.819,.37-2.803,2.694,.118,17.053,.033,34.107,.105,51.16,.008,1.952-.257,2.785-2.52,2.719-5.584-.163-5.588-.035-5.588-5.654,0-17.726-.002-35.451,.001-53.177,0-4.606,1.169-5.757,5.831-5.759,5.461-.003,10.922-.047,16.381,.029,1.473,.021,2.015-.289,2.031-1.917,.06-6.18,.129-6.179-6.056-6.179-5.629,0-11.257-.005-16.886,.001-6.286,.007-9.366,3.122-9.367,9.485-.004,20.078-.034,40.156,.045,60.234,.008,2.181-.381,3.033-2.81,2.94-5.296-.202-5.302-.056-5.302-5.438,0-19.238-.004-38.476,.002-57.714,.003-10.922,6.653-17.569,17.571-17.573,11.761-.005,23.523-.059,35.283,.05,2.217,.021,2.464-.63,1.892-2.525-.798-2.647-1.399-5.355-2.036-8.048-.785-3.315,.833-5.572,4.168-5.589,10.501-.053,21.002-.055,31.503,.004,3.209,.018,4.869,2.273,4.14,5.414-.644,2.777-1.275,5.566-2.111,8.288-.628,2.044-.035,2.463,1.995,2.448,11.844-.09,23.69-.053,35.535-.042,10.434,.01,17.233,6.756,17.241,17.147,.017,21.674-.029,43.348,.059,65.022,.009,2.167-.627,2.622-2.665,2.573-5.452-.131-5.455-.034-5.455-5.524,0-20.582,.003-41.164-.002-61.746-.002-6.314-3.11-9.403-9.445-9.407-6.805-.005-13.61,.051-20.414-.037-1.735-.023-2.498,.214-2.462,2.262,.101,5.838-.007,5.84,5.903,5.84,4.452,0,8.905-.017,13.357,.006,3.493,.018,4.984,1.431,4.987,4.83,.018,21.926-.004,43.852,.038,65.778,.003,1.478-.3,2.01-1.921,2.026-6.175,.059-6.174,.127-6.174-6.061,0-18.65-.037-37.3,.051-55.949,.01-2.102-.525-2.628-2.62-2.615-15.289,.095-30.579,.051-45.868,.051Zm-10.896-32.261c.927,3.74,1.832,7.221,2.645,10.723,.724,3.12-.965,5.284-4.184,5.39-2.013,.066-4.03,.016-6.045,.016-5.726,0-5.64,.001-5.726,5.749-.028,1.883,.467,2.375,2.359,2.363,13.349-.086,26.699-.046,40.048-.046,6.338,0,6.294,.002,6.074-6.396-.046-1.33-.426-1.73-1.732-1.695-3.02,.082-6.044,.035-9.067,.023-4.411-.017-5.957-1.952-4.933-6.178,.672-2.769,1.394-5.527,2.045-8.301,.171-.727,.675-1.674-.875-1.665-6.788,.04-13.576,.017-20.61,.017Z"/>
    <path class="cls-1" d="M278.959,167.518q-.123-4.432-4.374-3.151c-27.063,8.103-54.131,16.19-81.184,24.328-2.228,.67-4.347,.867-6.661,.392-4.846-.995-9.734-1.796-14.62-2.578-1.928-.309-3.35-1.133-3.917-3.034-.546-1.828,.269-3.244,1.588-4.472,4.056-3.778,8.107-7.56,12.126-11.376,.95-.902,2.054-1.417,3.274-1.781,35.257-10.546,70.512-21.098,105.769-31.644,9.408-2.814,17.465,3.062,16.719,12.321-.409,5.078-3.236,8.579-8.033,10.271-3.632,1.281-7.345,2.347-11.057,3.385-1.372,.383-1.882,.953-1.764,2.438,.273,3.43,.327,6.877,.501,10.315,.168,3.323-.647,4.628-3.784,5.578-9.387,2.843-18.793,5.621-28.174,8.482-1.262,.385-1.831,.383-2.311-1.113-1.947-6.075-2.019-6.06,3.997-7.861,6.103-1.827,12.213-3.631,18.317-5.455q3.7-1.106,3.588-5.044Zm-1.258-20.88c-.851,.242-1.725,.481-2.593,.74-18.863,5.641-37.726,11.287-56.59,16.927-5.107,1.527-4.978,1.484-3.65,6.614,.602,2.325,1.504,2.544,3.638,1.892,17.709-5.406,35.454-10.692,53.187-16.02q7.173-2.155,6.267-9.548c-.019-.158-.127-.305-.259-.605Zm-96.729,33.043c6.569,1.859,8.151,1.862,14.061,.093,2.409-.721,4.812-1.464,7.22-2.193,6.088-1.843,6.054-1.83,3.95-7.873-.43-1.234-.884-1.484-2.156-1.067-3.903,1.278-7.794,2.763-11.813,3.47-4.908,.864-7.801,4.212-11.261,7.569Zm105.085-32.526c.08,1.229,.202,1.986,.164,2.735-.106,2.057,.574,2.627,2.622,1.846,2.418-.923,4.972-1.481,7.442-2.275,2.765-.889,4-3.001,3.224-5.342-.72-2.174-2.883-3.11-5.605-2.373-1.535,.415-3.023,1.054-4.578,1.335-2.656,.479-4.17,1.599-3.269,4.076Z"/>
    <path class="cls-1" d="M276.925,209.884c0,5.539,.041,11.079-.01,16.617-.086,9.4-7.03,16.333-16.443,16.399-7.301,.051-14.603-.027-21.904,.042-1.489,.014-2.002-.318-2.017-1.928-.057-6.17-.124-6.169,6.053-6.169,5.875,0,11.75,.027,17.624-.009,5.303-.033,8.608-3.355,8.622-8.694,.029-11.078,.063-22.157-.04-33.234-.019-2.004,.543-2.511,2.5-2.474,5.614,.106,5.615,.018,5.615,5.602,0,4.616,0,9.232,0,13.848Z"/>
    <path class="cls-1" d="M164.007,89.408c0-2.52-.057-5.042,.015-7.56,.077-2.688,1.574-4.231,4.256-4.266,5.208-.069,10.417-.068,15.625,0,2.683,.034,4.234,1.573,4.27,4.252,.071,5.208,.07,10.417,0,15.625-.035,2.681-1.582,4.234-4.256,4.27-5.208,.07-10.417,.069-15.625,0-2.683-.035-4.195-1.58-4.269-4.256-.075-2.686-.016-5.376-.017-8.064Zm16.127,.434q0-4.22-4.16-4.22c-.419,0-.85,.066-1.254-.011-2.289-.439-3.024,.589-2.66,2.728,.055,.325,.008,.668,.008,1.003q0,4.346,4.286,4.345,3.78,0,3.78-3.846Z"/>
    <path class="cls-1" d="M188.193,125.931c0,2.604,.058,5.21-.016,7.812-.076,2.689-1.577,4.245-4.248,4.282-5.207,.072-10.417,.069-15.625,.002-2.687-.035-4.241-1.575-4.277-4.245-.07-5.208-.068-10.417-.002-15.625,.034-2.694,1.563-4.241,4.241-4.277,5.208-.07,10.417-.068,15.625-.002,2.688,.034,4.205,1.567,4.285,4.241,.078,2.602,.017,5.208,.017,7.812Zm-11.993,4.055q3.932,0,3.933-3.694,0-4.373-4.259-4.372-3.807,0-3.807,3.82,0,4.247,4.133,4.247Z"/>
    <path class="cls-1" d="M220.452,93.689c7.386,0,14.773,.05,22.158-.038,1.664-.02,2.09,.479,2.091,2.108,.006,5.996,.067,5.996-5.971,5.996-13.346,0-26.692-.045-40.037,.048-1.998,.014-2.514-.535-2.477-2.497,.107-5.616,.019-5.617,5.602-5.617,6.211,0,12.422,0,18.634,0Z"/>
    <path class="cls-1" d="M220.411,138.052c-7.386,0-14.773-.035-22.159,.029-1.465,.013-2.017-.279-2.034-1.911-.062-6.185-.131-6.185,6.04-6.185,13.346,0,26.692,.033,40.037-.04,1.794-.01,2.453,.318,2.42,2.3-.095,5.804,.004,5.806-5.672,5.806-6.211,0-12.422,0-18.634,0Z"/>
    <path class="cls-1" d="M260.793,209.497c0,4.193,.03,8.386-.011,12.578-.031,3.147-1.505,4.667-4.605,4.69-5.953,.044-11.908-.017-17.861,.037-1.263,.011-1.707-.302-1.758-1.664-.239-6.427-.287-6.425,6.033-6.425,2.6,0,5.206-.118,7.796,.04,1.846,.113,2.429-.388,2.39-2.324-.131-6.538,.029-13.082-.098-19.62-.037-1.917,.52-2.368,2.377-2.341,5.737,.082,5.738,0,5.738,5.721,0,3.103,0,6.205,0,9.308Z"/>
    <path class="cls-1" d="M228.268,85.622c-4.614,0-9.231-.077-13.842,.04-1.703,.043-2.065-.539-2.066-2.132-.006-5.974-.062-5.974,5.985-5.974,7.97,0,15.941,.045,23.911-.035,1.724-.017,2.5,.2,2.464,2.254-.102,5.845,.008,5.847-5.881,5.847-3.524,0-7.048,0-10.571,0Z"/>
    <path class="cls-1" d="M228.34,121.92c-4.698,0-9.397-.045-14.095,.027-1.375,.021-1.853-.319-1.887-1.795-.149-6.299-.204-6.298,6.168-6.298,7.97,0,15.941,.049,23.911-.039,1.708-.019,2.287,.363,2.273,2.185-.047,5.919,.034,5.919-5.799,5.919-3.524,0-7.048,0-10.571,0Z"/>
    <path class="cls-1" d="M200.057,85.623q-3.792,0-3.792-3.835,0-4.231,4.149-4.231,3.917,0,3.917,3.961,0,4.106-4.274,4.106Z"/>
    <path class="cls-1" d="M200.523,113.854q3.808,0,3.808,3.818,0,4.248-4.132,4.248c-.586,0-1.183-.074-1.756,.014-1.774,.272-2.463-.444-2.189-2.202,.076-.49,.012-1.003,.012-1.505q0-4.373,4.258-4.373Z"/>
    <path class="cls-1" d="M139.803,186.475q0,4.009-4.875,4.007-3.193-.001-3.191-4.938,.001-3.131,5.001-3.128,3.065,.002,3.065,4.059Z"/>
    <path class="cls-1" d="M135.842,246.944q3.961,0,3.961,4.671,0,3.398-4.985,3.395-3.085-.002-3.082-5.047,.002-3.019,4.105-3.019Z"/>
    <path class="cls-1" d="M208.487,255.01q-4.155,0-4.155-4.225,0-3.841,3.785-3.841,4.281,0,4.281,4.35,0,3.716-3.911,3.716Z"/>
  </g>
</svg>