<?xml version="1.0" encoding="UTF-8"?>
<svg id="Layer_1" data-name="Layer 1" xmlns="http://www.w3.org/2000/svg" viewBox="0 0 383 300">
  <defs>
    <style>
      .cls-1 {
        fill: #fff;
      }

      .cls-2 {
        fill: #0f22b2;
      }
    </style>
  </defs>
  <rect class="cls-2" x="0" y="-.215" width="383" height="300.715"/>
  <g>
    <path class="cls-1" d="M190.589,261.327c-8.894,0-17.789,.068-26.683-.018-11.891-.115-17.426-9.451-11.665-19.773,.946-1.695,2.001-3.119-.004-4.398-2.845-1.815-6.102-1.528-8.976-.298-2.029,.869-1.251,2.459-.241,4.324,5.628,10.387,.016,19.792-11.815,19.864-17.986,.11-35.973,.11-53.959,0-11.774-.072-17.354-9.551-11.645-19.927,1.085-1.972,.805-2.922-.187-4.559-2.8-4.621-2.926-9.479,.189-13.933,1.413-2.021,1.013-3.104-.081-5.039-5.421-9.587,.153-19.248,11.155-19.404,10.276-.146,20.557-.151,30.832,.03,3.408,.06,5.094-.655,5.975-4.417,4.022-17.184,16.82-27.344,34.314-27.769,5.886-.143,6.31-.878,3.644-6.308-4.392-8.945,1.074-18.441,10.969-18.531,18.973-.172,37.95-.17,56.923-.002,9.927,.088,15.588,9.578,10.982,18.377-1.374,2.624-1.994,4.303-.189,7.145,3.408,5.364-.976,10.423-1.259,15.336-.261,4.548,4.719,9.827,1.432,15.264-1.735,2.87-1.893,4.773-.029,7.626,2.426,3.714,2.367,8.124-.183,11.747-1.938,2.753-1.535,4.502,.12,7.128,2.644,4.193,2.221,8.78-.552,12.824-1.302,1.899-1.325,2.926-.096,5.002,5.823,9.837,.303,19.424-11.102,19.704-.395,.01-.791,.005-1.186,.005-8.894,0-17.789,0-26.683,0Zm-43.15-89.217c-15.959,.063-28.937,13.219-28.833,29.23,.101,15.584,13.201,28.649,28.817,28.739,15.842,.092,29.094-13.121,29.118-29.03,.024-15.946-13.105-29.002-29.102-28.939Zm-43.483,82.844c8.897,0,17.794-.032,26.691,.013,4.715,.024,8.443-1.241,8.262-6.829-.172-5.315-3.863-6.065-8.299-6.04-17.596,.1-35.194,.116-52.789-.01-4.514-.032-8.192,.934-8.326,6.076-.141,5.413,3.595,6.853,8.362,6.811,8.699-.075,17.399-.021,26.098-.021Zm86.875-94.812c8.899,0,17.799-.062,26.697,.026,4.567,.045,8.04-1.386,8.068-6.468,.028-5.049-3.293-6.548-7.951-6.522-17.797,.099-35.596,.096-53.393,.001-4.592-.024-8.043,1.302-8.078,6.399-.034,5.061,3.37,6.62,7.961,6.585,8.898-.069,17.798-.02,26.697-.02Zm.132,95.134c9.092,0,18.184-.029,27.276,.012,4.431,.02,7.401-1.722,7.361-6.477-.04-4.762-3.175-6.462-7.492-6.467-18.184-.018-36.368-.029-54.552,.011-4.327,.01-7.423,1.85-7.372,6.589,.05,4.741,3.09,6.385,7.503,6.352,9.092-.067,18.184-.02,27.276-.021Zm-54.847-20.843c-4.916-2.394-9.631-4.519-13.002-8.434-2.015-2.34-4.289-2.925-7.235-2.894-12.41,.131-24.823,.032-37.235,.067-6.158,.017-9.506,2.365-9.138,6.635,.468,5.428,4.277,6.262,8.904,6.234,17.337-.107,34.674-.027,52.011-.068,1.699-.004,3.572,.554,5.695-1.54Zm23.142-.049c1.651,2.346,3.792,1.661,5.647,1.666,17.386,.051,34.772-.009,52.157,.056,4.734,.018,8.52-1.223,8.369-6.716-.141-5.121-3.866-6.263-8.299-6.245-12.842,.051-25.684,.007-38.525,.03-1.723,.003-3.531-.376-4.93,1.241-3.914,4.52-9.005,7.451-14.419,9.969Zm.305-66.71c5.367,2.858,10.683,5.763,14.631,10.484,.883,1.056,2.13,.887,3.291,.888,13.843,.01,27.687,.066,41.529-.042,3.91-.03,6.332-2.23,6.473-6.247,.132-3.731-2.034-5.812-5.583-6.514-.765-.151-1.577-.093-2.367-.093-17.798-.005-35.597-.016-53.395,.019-1.496,.003-3.215-.487-4.579,1.506Zm19.901,17.533c.995,3.675,2.013,6.847,2.677,10.091,.439,2.149,1.399,2.85,3.57,2.831,11.069-.098,22.14,.036,33.209-.104,4.165-.053,6.756-2.382,6.597-6.706-.147-4.005-2.683-6.067-6.608-6.087-13.015-.065-26.031-.025-39.445-.025Zm-63.713,31.841c-1.062-3.891-2.079-7.249-2.865-10.66-.381-1.654-1.17-2.246-2.809-2.24-11.423,.041-22.848-.099-34.267,.106-3.841,.069-6.28,2.536-6.203,6.487,.077,3.939,2.539,6.229,6.436,6.263,13.139,.116,26.28,.044,39.707,.044Zm64.034,.017c12.481,0,25.056-.051,37.63,.027,4.548,.028,8.015-1.383,8.035-6.433,.02-5.048-3.46-6.549-7.986-6.517-7.483,.052-14.967,.012-22.451,.012q-12.289,0-15.439,11.948c-.044,.169,.077,.381,.211,.963Z"/>
    <path class="cls-1" d="M278.231,261.324c-9.092-.001-18.186,.114-27.276-.031-11.062-.177-16.537-9.578-11.206-19.318,1.066-1.948,1.402-3.025,.03-5.088-2.971-4.469-2.942-9.42,.023-13.926,1.325-2.015,1.134-3.152-.094-5.113-2.843-4.54-2.874-9.449,.156-13.937,1.375-2.036,1.247-3.324-.237-5.086-1.587-1.885-2.775-5.071-1.747-6.61,5.655-8.469-3.453-17.76,1.802-25.912,1.459-2.263,1.605-3.785-.205-5.611-.269-.271-.41-.672-.598-1.02-3.148-5.81,2.641-11.404,1.337-15.982-1.582-5.557-3.658-10.35-.382-15.551,1.306-2.075,.934-3.2-.15-5.162-5.185-9.385,.093-19.106,10.82-19.298,18.771-.336,37.557-.333,56.328,0,10.697,.189,15.912,9.793,10.8,19.347-1.095,2.046-1.26,3.219-.038,5.206,2.81,4.568,2.817,9.45-.107,13.971-1.165,1.801-1.482,3.075-.011,4.651,.261,.28,.396,.679,.586,1.025,3.165,5.767-1.711,11.313-1.034,16.038,.79,5.517,3.852,10.62,.547,16.148-1.037,1.734-1.759,3.001-.157,4.627,.268,.272,.405,.675,.593,1.022,3.118,5.741-1.498,11.21-.994,16.012,.569,5.423,3.95,10.638,.622,16.145-1.228,2.032-1.245,3.2-.043,5.168,2.795,4.576,2.873,9.54-.112,13.973-1.476,2.191-.711,3.32,.236,5.153,5.11,9.888-.423,18.996-11.621,19.139-9.288,.118-18.579,.024-27.869,.023Zm.453-6.044c8.895,0,17.79-.073,26.683,.03,4.572,.053,8.058-1.344,8.047-6.435-.01-5.052-3.533-6.555-8.053-6.549-17.789,.023-35.578,.014-53.367,.006-4.481-.002-7.988,1.377-7.999,6.553-.011,5.23,3.487,6.46,8.005,6.419,8.894-.079,17.789-.023,26.683-.023Zm-.066-132.732c8.892,0,17.784-.062,26.675,.026,4.509,.044,8.09-1.203,8.123-6.352,.032-5.09-3.466-6.573-7.993-6.566-17.783,.025-35.567,.025-53.35-.001-4.459-.007-8.026,1.209-8.074,6.429-.049,5.226,3.419,6.517,7.944,6.483,8.891-.066,17.783-.02,26.675-.018Zm-.245,18.841c9.087,0,18.174-.062,27.26,.027,4.288,.042,7.645-1.154,7.794-6.002,.156-5.099-3.241-6.81-7.762-6.817-17.976-.029-35.952-.032-53.928,.002-4.485,.009-7.888,1.572-7.743,6.785,.137,4.949,3.443,6.066,7.712,6.028,8.888-.078,17.778-.024,26.667-.023Zm-.275,19.13c9.09,0,18.18-.035,27.269,.015,4.502,.025,8.07-1.327,8.056-6.461-.014-5.107-3.6-6.513-8.076-6.51-17.784,.012-35.569,.002-53.353,.007-4.434,.001-8.002,1.279-8.003,6.522-.001,5.279,3.58,6.449,8.023,6.436,8.694-.027,17.389-.008,26.084-.008Zm.004,18.822c9.288,0,18.576-.074,27.862,.032,4.479,.051,7.457-1.663,7.462-6.354,.005-4.704-3.152-6.489-7.48-6.495-18.18-.021-36.36-.029-54.54,.006-4.299,.008-7.418,1.709-7.417,6.515,0,4.841,3.024,6.361,7.436,6.32,8.892-.082,17.784-.024,26.677-.024Zm.573,18.968c9.09,0,18.182-.068,27.271,.029,4.455,.047,7.466-1.629,7.484-6.338,.018-4.73-3.194-6.511-7.477-6.522-18.181-.046-36.362-.05-54.542,.002-4.251,.012-7.442,1.656-7.429,6.509,.013,4.837,3.008,6.38,7.423,6.343,9.09-.075,18.181-.023,27.271-.023Zm-.306,19.045c9.09,0,18.181-.053,27.27,.023,4.322,.036,7.618-1.369,7.775-6.11,.166-5.048-3.183-6.822-7.755-6.824-17.982-.01-35.965-.018-53.947,.006-4.522,.006-7.879,1.622-7.713,6.807,.155,4.867,3.392,6.152,7.694,6.119,8.892-.069,17.785-.021,26.677-.021Zm.356,18.776c8.893,0,17.788-.135,26.677,.055,4.646,.1,8.013-1.214,8.021-6.328,.007-4.691-3.21-6.483-7.513-6.491-18.181-.032-36.361-.042-54.542,.01-4.288,.012-7.407,1.782-7.378,6.574,.029,4.829,2.997,6.295,7.465,6.223,9.088-.146,18.18-.044,27.27-.043Z"/>
    <path class="cls-1" d="M280.233,39.181c6.113,.41,12.222,.905,18.341,1.198,3.651,.175,5.422,1.602,5.069,5.506-.695,7.672-1.165,15.364-1.757,23.045-.123,1.592-.338,3.251-2.066,3.97-2.133,.887-3.217-.808-4.467-2.012-.284-.274-.541-.577-.807-.87-2.65-2.92-5.064-7.911-8.007-8.246-3.825-.435-7.015,4.34-10.409,6.943-19.915,15.271-39.822,30.554-59.565,46.046-4.068,3.193-6.675,3.539-10.169-.871-7.606-9.602-15.866-18.683-23.559-28.22-2.536-3.144-4.056-3.371-7.431-.914-26.353,19.189-52.896,38.118-79.382,57.125-1.284,.921-2.583,1.821-3.874,2.733-1.844,1.303-3.931,2.687-5.588,.152-1.609-2.462,.426-3.967,2.245-5.279,2.563-1.849,5.138-3.682,7.705-5.525,26.315-18.901,52.687-37.724,78.882-56.789,3.934-2.863,6.232-2.591,9.232,1.114,7.96,9.829,16.299,19.349,24.345,29.11,2.012,2.441,3.348,2.87,6.101,.719,21.334-16.668,42.783-33.188,64.306-49.612,2.542-1.94,2.874-3.173,.576-5.423-2.252-2.205-4.18-4.741-6.251-7.13-1.286-1.483-3.032-2.907-2.129-5.138,1.102-2.723,3.638-1.679,5.697-1.766,.986-.042,1.976-.007,2.964-.007,0,.048-.002,.095-.003,.143Zm15.844,23.155c.483-5.151,.845-8.992,1.202-12.833,.132-1.422,.251-2.931-1.723-3.085-4.302-.335-8.612-.57-14.142-.924,5.268,6.05,9.576,10.998,14.663,16.841Z"/>
    <path class="cls-1" d="M159.639,210.185c-.236,3.504-1.464,6.57-4.224,8.829-2.164,1.771-5.433,2.46-5.189,6.367,.069,1.101-1.533,1.838-2.746,1.784-1.195-.053-2.705-.75-2.619-1.973,.255-3.658-2.75-4.342-4.826-5.945-1.919-1.482-3.303-3.372-3.917-5.773-.589-2.306-1.666-4.975,1.365-6.144,3.451-1.331,3.679,1.7,4.381,3.929,1.025,3.251,3.294,5.026,6.695,4.458,3.076-.514,4.954-2.778,4.908-5.835-.05-3.33-2.031-5.541-5.512-5.871-6.377-.604-10.914-3.449-12.158-10.076-1.133-6.03,1.746-10.061,6.697-13.25,4.24-2.732,5.999-2.8,10.607,.272,3.106,2.071,5.432,4.531,6.197,8.274,.458,2.245,.774,4.582-2.108,5.272-2.711,.649-3.152-1.549-3.69-3.537-.951-3.511-3.161-5.45-6.956-4.898-2.945,.428-4.688,2.396-4.794,5.224-.181,4.851,3.108,6.155,7.277,6.749,6.58,.937,10.77,5.933,10.612,12.144Z"/>
  </g>
</svg>