<?xml version="1.0" encoding="UTF-8"?>
<svg id="Layer_1" data-name="Layer 1" xmlns="http://www.w3.org/2000/svg" viewBox="0 0 877 720">
  <defs>
    <style>
      .cls-1, .cls-2, .cls-3, .cls-4 {
        fill: #ea9c00;
      }

      .cls-5, .cls-6 {
        fill: #fff;
      }

      .cls-2, .cls-7, .cls-6, .cls-8, .cls-3, .cls-4 {
        font-family: AlSharkTitle-Bold, AlSharkTitle;
        font-weight: 700;
      }

      .cls-2, .cls-9 {
        font-size: 13px;
      }

      .cls-10, .cls-7, .cls-8 {
        fill: #0f22b2;
      }

      .cls-7, .cls-11, .cls-3 {
        font-size: 14.538px;
      }

      .cls-12 {
        fill: none;
        stroke: #fff;
        stroke-miterlimit: 10;
      }

      .cls-6 {
        font-size: 26.793px;
      }

      .cls-8 {
        font-size: 17.603px;
      }

      .cls-13 {
        fill: #c7cfe3;
      }
    </style>
  </defs>
  <g>
    <circle class="cls-12" cx="438.5" cy="360.118" r="129.963" transform="translate(-126.208 415.542) rotate(-45)"/>
    <path class="cls-5" d="M438.5,611.248c-138.473,0-251.129-112.656-251.129-251.13s112.656-251.129,251.129-251.129,251.129,112.656,251.129,251.129-112.656,251.13-251.129,251.13Zm0-485.759c-129.375,0-234.629,105.254-234.629,234.629s105.254,234.63,234.629,234.63,234.629-105.254,234.629-234.63-105.254-234.629-234.629-234.629Z"/>
    <path class="cls-13" d="M350.177,125.038c1.181,5.452,2.843,10.727,4.962,15.766,25.917-9.884,54.014-15.315,83.36-15.315s57.443,5.431,83.36,15.315c2.119-5.04,3.781-10.314,4.962-15.766-27.49-10.362-57.252-16.05-88.322-16.05s-60.833,5.687-88.322,16.05Z"/>
    <path class="cls-13" d="M209.852,256.3c4.651,3.01,9.541,5.584,14.634,7.674,23.562-52.243,65.708-94.37,117.962-117.91-2.064-5.061-4.618-9.964-7.637-14.654-55.217,25.133-99.796,69.69-124.959,124.89Z"/>
    <path class="cls-13" d="M203.871,360.118c0-29.416,5.457-57.578,15.387-83.547-5.081-2.124-10.363-3.761-15.782-4.921-10.397,27.53-16.105,57.343-16.105,88.468s5.678,60.785,16.024,88.256c5.421-1.155,10.704-2.786,15.788-4.906-9.882-25.914-15.311-54.008-15.311-83.351Z"/>
    <path class="cls-13" d="M334.713,588.78c3.019-4.646,5.604-9.533,7.703-14.622-52.306-23.573-94.477-65.772-118.017-118.096-5.092,2.096-9.981,4.678-14.631,7.694,25.133,55.251,69.713,99.856,124.945,125.025Z"/>
    <path class="cls-13" d="M526.872,595.179c-1.168-5.457-2.824-10.733-4.931-15.778-25.939,9.904-54.065,15.346-83.441,15.346s-57.502-5.443-83.441-15.346c-2.107,5.045-3.763,10.321-4.931,15.778,27.504,10.374,57.284,16.069,88.372,16.069s60.869-5.694,88.372-16.069Z"/>
    <path class="cls-13" d="M667.232,463.754c-4.649-3.016-9.538-5.598-14.631-7.694-23.532,52.307-65.683,94.497-117.965,118.074,2.076,5.055,4.635,9.956,7.665,14.638,55.225-25.17,99.799-69.772,124.93-125.019Z"/>
    <path class="cls-13" d="M673.607,448.369c10.345-27.47,16.022-57.208,16.022-88.251s-5.709-60.941-16.107-88.473c-5.419,1.16-10.7,2.797-15.782,4.921,9.931,25.97,15.388,54.133,15.388,83.552s-5.429,57.433-15.31,83.346c5.083,2.119,10.367,3.751,15.788,4.905Z"/>
    <path class="cls-13" d="M542.186,131.409c-3.019,4.69-5.573,9.593-7.637,14.654,52.255,23.54,94.4,65.666,117.963,117.909,5.093-2.089,9.984-4.664,14.634-7.674-25.164-55.2-69.743-99.757-124.96-124.889Z"/>
    <circle class="cls-10" cx="438.5" cy="230.155" r="9.453"/>
    <path class="cls-10" d="M447.953,490.081c0,5.221-4.232,9.453-9.453,9.453s-9.453-4.232-9.453-9.453,4.232-9.453,9.453-9.453,9.453,4.232,9.453,9.453Z"/>
    <path class="cls-10" d="M568.463,369.571c-5.221,0-9.453-4.232-9.453-9.453s4.232-9.453,9.453-9.453,9.453,4.232,9.453,9.453-4.232,9.453-9.453,9.453Z"/>
    <path class="cls-10" d="M308.537,369.571c-5.221,0-9.453-4.232-9.453-9.453s4.232-9.453,9.453-9.453,9.453,4.232,9.453,9.453-4.232,9.453-9.453,9.453Z"/>
    <path class="cls-1" d="M537.081,274.904c-3.692,3.692-9.677,3.692-13.369,0-3.692-3.692-3.692-9.677,0-13.369,3.692-3.692,9.677-3.692,13.369,0,3.692,3.692,3.692,9.677,0,13.369Z"/>
    <path class="cls-1" d="M353.288,458.701c-3.692,3.692-9.677,3.692-13.369,0-3.692-3.692-3.692-9.677,0-13.369,3.692-3.692,9.677-3.692,13.369,0,3.692,3.692,3.692,9.677,0,13.369Z"/>
    <path class="cls-1" d="M523.714,458.699c-3.692-3.692-3.692-9.677,0-13.369,3.692-3.692,9.677-3.692,13.369,0s3.692,9.677,0,13.369c-3.692,3.692-9.677,3.692-13.369,0Z"/>
    <path class="cls-1" d="M339.917,274.906c-3.692-3.692-3.692-9.677,0-13.369,3.692-3.692,9.677-3.692,13.369,0,3.692,3.692,3.692,9.677,0,13.369-3.692,3.692-9.677,3.692-13.369,0Z"/>
    <g>
      <g>
        <rect class="cls-10" x="401.609" y="115.762" width="73.781" height="73.781" transform="translate(20.492 354.777) rotate(-45)"/>
        <circle class="cls-10" cx="438.5" cy="105.884" r="75.384"/>
      </g>
      <circle class="cls-5" cx="438.5" cy="105.884" r="64.862" transform="translate(263.743 521.761) rotate(-80.783)"/>
      <g>
        <path class="cls-10" d="M476,80.344c-.079,.681-.138,1.364-.239,2.041-.907,6.037-3.718,11.014-8.404,14.911-3.515,2.923-7.568,4.693-12.112,5.199-7.302,.814-13.704-1.273-19.084-6.287-3.925-3.658-6.348-8.187-7.123-13.497-1.134-7.774,1.036-14.574,6.506-20.219,4.168-4.302,9.328-6.603,15.311-7.034,.092-.007,.189,.009,.271-.053h2.5c.112,.077,.242,.05,.364,.058,.665,.044,1.327,.115,1.985,.22,4.947,.795,9.237,2.914,12.831,6.408,3.847,3.741,6.159,8.277,6.954,13.584,.101,.677,.162,1.361,.241,2.042v2.625Zm-23.361,14.567c2.871-.048,5.649-.152,8.397-.631,1.088-.19,2.166-.426,3.156-.951,.696-.37,1.022-.897,.932-1.728-.177-1.617-.404-3.223-.822-4.796-.536-2.016-1.27-3.945-2.548-5.623-1.313-1.724-3-2.837-5.206-2.949-2.934-.149-5.872-.124-8.807-.015-1.368,.051-2.603,.53-3.686,1.376-1.336,1.043-2.206,2.427-2.844,3.966-1.099,2.653-1.511,5.442-1.61,8.293-.02,.589,.21,1.004,.682,1.309,.209,.135,.428,.259,.656,.359,.883,.389,1.817,.6,2.763,.761,2.988,.511,6.004,.608,8.937,.63Zm-.378-18.775c1.658-.024,3.226-.609,4.551-1.798,2.376-2.132,3.095-5.565,1.808-8.552-1.701-3.946-6.443-5.533-10.043-3.28-2.673,1.673-3.775,4.184-3.444,7.304,.374,3.533,3.466,6.302,7.129,6.325Z"/>
        <path class="cls-10" d="M401,79.094c.957-.05,1.914-.096,2.87-.15,.904-.051,1.267-.345,1.509-1.208,.172-.612,.39-1.208,.644-1.791,.286-.655,.175-1.187-.348-1.665-.684-.625-1.368-1.251-2.06-1.868-.146-.131-.171-.206-.025-.366,1.217-1.329,2.425-2.665,3.628-4.006,.128-.143,.205-.15,.346-.019,.642,.594,1.295,1.176,1.944,1.763,.666,.603,1.143,.66,1.919,.229,.556-.309,1.128-.582,1.722-.81,.689-.265,.984-.736,.945-1.479-.048-.915-.085-1.831-.139-2.746-.011-.193,.044-.249,.236-.258,1.779-.08,3.558-.166,5.336-.262,.24-.013,.326,.048,.334,.296,.032,.885,.085,1.768,.128,2.652,.037,.763,.367,1.183,1.106,1.393,.652,.185,1.29,.406,1.907,.688,.582,.266,1.156,.16,1.595-.312,.639-.686,1.273-1.376,1.891-2.08,.158-.18,.243-.182,.413-.025,.758,.699,1.524,1.389,2.299,2.069,.166,.146,.13,.263,.062,.43-1.263,3.073-1.89,6.274-1.869,9.594,.027,4.304,1.098,8.34,3.212,12.093,.127,.225,.122,.362-.06,.557-.766,.823-1.517,1.661-2.262,2.504-.149,.168-.232,.162-.39,.016-.666-.615-1.343-1.217-2.018-1.821-.56-.501-1.1-.565-1.744-.199-.59,.335-1.201,.622-1.832,.87-.643,.253-.946,.711-.922,1.402,.02,.562,.056,1.123,.084,1.685,.041,.807-.472,1.394-1.272,1.436-1.414,.074-2.83,.134-4.244,.211-.236,.013-.323-.039-.331-.294-.027-.874-.081-1.748-.126-2.621-.041-.805-.371-1.221-1.14-1.435-.643-.179-1.268-.406-1.88-.673-.628-.273-1.178-.154-1.64,.352-.617,.677-1.237,1.352-1.845,2.038-.144,.163-.225,.204-.411,.034-1.311-1.205-2.631-2.401-3.96-3.586-.188-.168-.153-.254-.007-.412,.615-.666,1.219-1.341,1.824-2.015,.494-.551,.545-1.106,.169-1.744-.324-.548-.583-1.128-.819-1.718-.309-.773-.72-1.044-1.56-1.007-.832,.037-1.664,.081-2.496,.12-.439,.021-.44,.019-.461-.41-.071-1.456-.141-2.913-.214-4.369-.007-.133-.034-.265-.052-.398,0-.229,0-.458,0-.688Zm24.162,2.132c0-4.114-3.313-7.469-7.37-7.462-4.153,.007-7.479,3.308-7.477,7.421,.002,4.105,3.306,7.419,7.402,7.424,4.105,.005,7.446-3.308,7.446-7.384Z"/>
        <path class="cls-10" d="M438.25,124.594c-.092-.848-.166-1.7-.283-2.545-.078-.561-.43-.911-.989-1.033-.581-.126-1.15-.287-1.71-.488-.582-.209-1.064-.084-1.455,.393-.462,.564-.92,1.131-1.357,1.714-.161,.214-.259,.205-.456,.045-1.084-.878-2.178-1.744-3.277-2.605-.171-.134-.185-.221-.045-.391,.458-.554,.899-1.121,1.345-1.684,.414-.521,.445-1.028,.086-1.583-.311-.482-.589-.981-.833-1.5-.27-.575-.693-.823-1.331-.76-.725,.071-1.449,.155-2.172,.249-.226,.03-.307-.022-.333-.261-.149-1.408-.311-2.815-.481-4.22-.024-.199,.037-.25,.221-.269,.725-.074,1.448-.163,2.172-.245,.655-.075,1.036-.411,1.178-1.062,.122-.56,.28-1.109,.473-1.649,.213-.594,.078-1.084-.41-1.479-.574-.465-1.152-.927-1.737-1.378-.163-.125-.167-.212-.04-.37,.887-1.104,1.768-2.212,2.641-3.327,.133-.17,.217-.187,.387-.045,.561,.464,1.136,.913,1.709,1.363,.511,.401,1.008,.424,1.557,.072,.483-.31,.981-.59,1.501-.832,.573-.267,.825-.692,.764-1.33-.07-.735-.164-1.467-.255-2.272,.198,.175,.349,.307,.499,.442,3.404,3.066,7.347,5.069,11.839,5.982,.219,.044,.323,.109,.306,.355-.016,.231,.09,.444,.219,.64,.322,.487,.601,.998,.848,1.527,.27,.577,.724,.823,1.366,.751,.714-.08,1.429-.152,2.14-.251,.239-.033,.304,.042,.328,.265,.15,1.397,.306,2.794,.475,4.189,.027,.224-.036,.283-.248,.303-.694,.067-1.386,.158-2.08,.233-.723,.078-1.104,.419-1.252,1.134-.11,.531-.269,1.047-.448,1.559-.228,.653-.09,1.12,.446,1.548,.561,.448,1.117,.904,1.686,1.343,.166,.128,.161,.21,.037,.366-.885,1.105-1.764,2.214-2.637,3.329-.126,.161-.208,.174-.367,.044-.557-.454-1.126-.893-1.689-1.339-.535-.424-1.041-.456-1.609-.09-.473,.305-.964,.577-1.474,.817-.607,.285-.844,.716-.77,1.384,.077,.704,.146,1.409,.246,2.109,.039,.273-.054,.33-.301,.355-1.305,.136-2.608,.29-3.911,.439-.071,.008-.139,.037-.208,.056h-.313Zm.814-9.289c2.671-.008,4.817-2.168,4.811-4.843-.005-2.665-2.176-4.816-4.848-4.805-2.681,.011-4.803,2.175-4.792,4.888,.01,2.621,2.188,4.768,4.829,4.76Z"/>
        <path class="cls-10" d="M452.362,93.563c-2.898-.014-5.787-.137-8.646-.654-.809-.146-1.61-.327-2.378-.638-.302-.122-.412-.295-.393-.635,.141-2.508,.497-4.972,1.43-7.322,.461-1.161,1.065-2.237,1.953-3.132,1.071-1.08,2.369-1.628,3.89-1.65,2.498-.036,4.997-.021,7.495-.012,2.254,.009,3.927,.991,5.18,2.794,1.185,1.705,1.825,3.636,2.287,5.635,.289,1.249,.482,2.513,.592,3.791,.022,.252-.054,.382-.274,.48-.894,.398-1.844,.583-2.798,.745-2.76,.468-5.546,.586-8.339,.597Z"/>
        <path class="cls-10" d="M457.91,68.788c.03,2.993-2.105,5.515-5.042,5.956-2.41,.362-4.868-1.054-5.929-3.415-1.244-2.767-.253-6.11,2.272-7.658,3.11-1.907,7.132-.428,8.344,3.066,.231,.665,.35,1.348,.356,2.051Z"/>
      </g>
      <text class="cls-7" transform="translate(406.07 145.577)"><tspan x="0" y="0">RESSOURCES</tspan><tspan x="5.324" y="12">HUMAINES</tspan></text>
    </g>
    <g>
      <g>
        <rect class="cls-10" x="401.609" y="530.457" width="73.781" height="73.781" transform="translate(1149.742 658.456) rotate(135)"/>
        <circle class="cls-10" cx="438.5" cy="614.116" r="75.384" transform="translate(-305.812 489.937) rotate(-45)"/>
      </g>
      <circle class="cls-5" cx="438.5" cy="614.116" r="64.862" transform="translate(-238.665 947.085) rotate(-80.656)"/>
      <text class="cls-7" transform="translate(417.713 653.231)"><tspan x="0" y="0">VENTES</tspan></text>
      <g>
        <path class="cls-10" d="M437.776,632.5c-2.564,0-5.127,.02-7.69-.005-3.427-.033-5.023-2.724-3.362-5.699,.273-.489,.577-.899-.001-1.268-.82-.523-1.759-.44-2.587-.086-.585,.25-.361,.709-.069,1.246,1.622,2.994,.005,5.704-3.405,5.725-5.184,.032-10.368,.032-15.552,0-3.394-.021-5.002-2.753-3.356-5.743,.313-.568,.232-.842-.054-1.314-.807-1.332-.843-2.732,.055-4.016,.407-.582,.292-.895-.023-1.452-1.562-2.763,.044-5.548,3.215-5.593,2.962-.042,5.925-.043,8.886,.009,.982,.017,1.468-.189,1.722-1.273,1.159-4.953,4.848-7.881,9.89-8.003,1.696-.041,1.819-.253,1.05-1.818-1.266-2.578,.31-5.315,3.162-5.341,5.468-.05,10.938-.049,16.406,0,2.861,.025,4.493,2.761,3.165,5.297-.396,.756-.575,1.24-.054,2.059,.982,1.546-.281,3.004-.363,4.42-.075,1.311,1.36,2.832,.413,4.399-.5,.827-.546,1.376-.008,2.198,.699,1.07,.682,2.341-.053,3.386-.559,.793-.443,1.298,.035,2.054,.762,1.209,.64,2.531-.159,3.696-.375,.547-.382,.843-.028,1.442,1.678,2.835,.087,5.598-3.2,5.679-.114,.003-.228,.001-.342,.001-2.564,0-5.127,0-7.691,0Zm-12.437-25.714c-4.6,.018-8.34,3.81-8.31,8.425,.029,4.491,3.805,8.257,8.306,8.283,4.566,.026,8.385-3.782,8.392-8.367,.007-4.596-3.777-8.359-8.388-8.341Zm-12.532,23.877c2.564,0,5.129-.009,7.693,.004,1.359,.007,2.433-.358,2.381-1.968-.05-1.532-1.113-1.748-2.392-1.741-5.071,.029-10.143,.033-15.215-.003-1.301-.009-2.361,.269-2.4,1.751-.041,1.56,1.036,1.975,2.41,1.963,2.507-.022,5.015-.006,7.522-.006Zm25.039-27.326c2.565,0,5.13-.018,7.694,.007,1.316,.013,2.317-.4,2.325-1.864,.008-1.455-.949-1.887-2.292-1.88-5.13,.028-10.259,.028-15.389,0-1.323-.007-2.318,.375-2.328,1.844-.01,1.459,.971,1.908,2.295,1.898,2.565-.02,5.13-.006,7.694-.006Zm.038,27.419c2.62,0,5.241-.008,7.861,.004,1.277,.006,2.133-.496,2.122-1.867-.011-1.372-.915-1.863-2.159-1.864-5.241-.005-10.482-.008-15.723,.003-1.247,.003-2.139,.533-2.125,1.899,.015,1.366,.89,1.84,2.162,1.831,2.62-.019,5.241-.006,7.861-.006Zm-15.808-6.007c-1.417-.69-2.776-1.302-3.747-2.431-.581-.674-1.236-.843-2.085-.834-3.577,.038-7.154,.009-10.732,.019-1.775,.005-2.74,.682-2.634,1.912,.135,1.565,1.233,1.805,2.566,1.797,4.997-.031,9.994-.008,14.991-.02,.49-.001,1.03,.16,1.641-.444Zm6.67-.014c.476,.676,1.093,.479,1.628,.48,5.011,.015,10.022-.003,15.033,.016,1.364,.005,2.456-.352,2.412-1.936-.041-1.476-1.114-1.805-2.392-1.8-3.701,.015-7.402,.002-11.104,.009-.497,0-1.018-.108-1.421,.358-1.128,1.303-2.595,2.148-4.156,2.873Zm.088-19.227c1.547,.824,3.079,1.661,4.217,3.022,.255,.304,.614,.256,.949,.256,3.99,.003,7.98,.019,11.969-.012,1.127-.009,1.825-.643,1.866-1.801,.038-1.075-.586-1.675-1.609-1.877-.221-.044-.454-.027-.682-.027-5.13-.001-10.26-.005-15.389,.005-.431,0-.927-.14-1.32,.434Zm5.736,5.053c.287,1.059,.58,1.973,.771,2.908,.127,.619,.403,.821,1.029,.816,3.19-.028,6.381,.01,9.571-.03,1.201-.015,1.947-.686,1.901-1.933-.042-1.154-.773-1.749-1.904-1.754-3.751-.019-7.503-.007-11.369-.007Zm-18.363,9.177c-.306-1.121-.599-2.089-.826-3.072-.11-.477-.337-.647-.81-.646-3.292,.012-6.585-.029-9.876,.03-1.107,.02-1.81,.731-1.788,1.87,.022,1.135,.732,1.795,1.855,1.805,3.787,.034,7.574,.013,11.444,.013Zm18.456,.005c3.597,0,7.221-.015,10.846,.008,1.311,.008,2.31-.399,2.316-1.854,.006-1.455-.997-1.888-2.302-1.878-2.157,.015-4.314,.004-6.471,.003q-3.542,0-4.45,3.444c-.013,.049,.022,.11,.061,.278Z"/>
        <path class="cls-10" d="M463.036,632.499c-2.62,0-5.242,.033-7.861-.009-3.188-.051-4.766-2.761-3.23-5.568,.307-.561,.404-.872,.009-1.466-.856-1.288-.848-2.715,.007-4.014,.382-.581,.327-.909-.027-1.474-.82-1.308-.828-2.723,.045-4.017,.396-.587,.359-.958-.068-1.466-.457-.543-.8-1.462-.504-1.905,1.63-2.441-.995-5.119,.519-7.468,.42-.652,.462-1.091-.059-1.617-.077-.078-.118-.194-.172-.294-.907-1.675,.761-3.287,.385-4.606-.456-1.602-1.054-2.983-.11-4.482,.377-.598,.269-.922-.043-1.488-1.495-2.705,.027-5.507,3.119-5.562,5.41-.097,10.824-.096,16.235,0,3.083,.055,4.586,2.823,3.113,5.576-.316,.59-.363,.928-.011,1.5,.81,1.317,.812,2.724-.031,4.027-.336,.519-.427,.886-.003,1.34,.075,.081,.114,.196,.169,.296,.912,1.662-.493,3.261-.298,4.623,.228,1.59,1.11,3.061,.158,4.654-.299,.5-.507,.865-.045,1.334,.077,.078,.117,.194,.171,.294,.899,1.655-.432,3.231-.286,4.615,.164,1.563,1.138,3.066,.179,4.653-.354,.586-.359,.922-.012,1.489,.805,1.319,.828,2.75-.032,4.027-.425,.632-.205,.957,.068,1.485,1.473,2.85-.122,5.475-3.349,5.516-2.677,.034-5.355,.007-8.032,.007Zm.131-1.742c2.564,0,5.127-.021,7.691,.009,1.318,.015,2.322-.387,2.319-1.855-.003-1.456-1.018-1.889-2.321-1.888-5.127,.007-10.254,.004-15.381,.002-1.291,0-2.302,.397-2.305,1.889-.003,1.507,1.005,1.862,2.307,1.85,2.563-.023,5.127-.007,7.691-.007Zm-.019-38.256c2.563,0,5.126-.018,7.688,.007,1.3,.013,2.332-.347,2.341-1.831,.009-1.467-.999-1.894-2.304-1.892-5.126,.007-10.251,.007-15.377,0-1.285-.002-2.313,.348-2.327,1.853-.014,1.506,.985,1.878,2.29,1.869,2.563-.019,5.125-.006,7.688-.005Zm-.071,5.43c2.619,0,5.238-.018,7.857,.008,1.236,.012,2.204-.333,2.246-1.73,.045-1.47-.934-1.963-2.237-1.965-5.181-.008-10.362-.009-15.543,0-1.293,.002-2.274,.453-2.232,1.956,.04,1.426,.992,1.748,2.223,1.737,2.562-.022,5.124-.007,7.686-.007Zm-.079,5.514c2.62,0,5.24-.01,7.859,.004,1.298,.007,2.326-.382,2.322-1.862-.004-1.472-1.038-1.877-2.328-1.876-5.126,.003-10.251,0-15.377,.002-1.278,0-2.306,.369-2.307,1.88,0,1.521,1.032,1.859,2.312,1.855,2.506-.008,5.012-.002,7.518-.002Zm.001,5.425c2.677,0,5.354-.021,8.03,.009,1.291,.015,2.149-.479,2.151-1.831,.001-1.356-.909-1.87-2.156-1.872-5.24-.006-10.48-.008-15.719,.002-1.239,.002-2.138,.492-2.138,1.878,0,1.395,.871,1.833,2.143,1.822,2.563-.024,5.126-.007,7.689-.007Zm.165,5.467c2.62,0,5.24-.019,7.86,.008,1.284,.014,2.152-.47,2.157-1.827,.005-1.363-.921-1.877-2.155-1.88-5.24-.013-10.48-.014-15.72,0-1.225,.004-2.145,.477-2.141,1.876,.004,1.394,.867,1.839,2.139,1.828,2.62-.022,5.24-.007,7.86-.007Zm-.088,5.489c2.62,0,5.24-.015,7.86,.007,1.246,.01,2.196-.394,2.241-1.761,.048-1.455-.917-1.966-2.235-1.967-5.183-.003-10.366-.005-15.549,.002-1.303,.002-2.271,.468-2.223,1.962,.045,1.403,.978,1.773,2.218,1.764,2.563-.02,5.126-.006,7.689-.006Zm.103,5.411c2.563,0,5.127-.039,7.689,.016,1.339,.029,2.31-.35,2.312-1.824,.002-1.352-.925-1.869-2.165-1.871-5.24-.009-10.48-.012-15.72,.003-1.236,.004-2.135,.514-2.127,1.895,.008,1.392,.864,1.814,2.152,1.794,2.619-.042,5.24-.013,7.86-.012Z"/>
        <path class="cls-10" d="M463.613,568.473c1.762,.118,3.523,.261,5.286,.345,1.052,.05,1.563,.462,1.461,1.587-.2,2.211-.336,4.428-.507,6.642-.035,.459-.097,.937-.595,1.144-.615,.256-.927-.233-1.287-.58-.082-.079-.156-.166-.232-.251-.764-.842-1.459-2.28-2.308-2.377-1.102-.125-2.022,1.251-3,2.001-5.74,4.401-11.477,8.806-17.168,13.271-1.173,.92-1.924,1.02-2.931-.251-2.192-2.767-4.573-5.385-6.79-8.133-.731-.906-1.169-.972-2.142-.263-7.595,5.531-15.246,10.986-22.879,16.464-.37,.266-.745,.525-1.117,.788-.531,.376-1.133,.775-1.611,.044-.464-.709,.123-1.143,.647-1.522,.739-.533,1.481-1.061,2.221-1.593,7.584-5.448,15.185-10.873,22.735-16.367,1.134-.825,1.796-.747,2.661,.321,2.294,2.833,4.698,5.577,7.017,8.39,.58,.704,.965,.827,1.758,.207,6.149-4.804,12.331-9.565,18.534-14.299,.733-.559,.828-.915,.166-1.563-.649-.635-1.205-1.366-1.802-2.055-.371-.427-.874-.838-.614-1.481,.318-.785,1.049-.484,1.642-.509,.284-.012,.569-.002,.854-.002,0,.014,0,.027,0,.041Zm4.567,6.674c.139-1.485,.244-2.592,.346-3.699,.038-.41,.072-.845-.497-.889-1.24-.097-2.482-.164-4.076-.266,1.518,1.744,2.76,3.17,4.226,4.854Z"/>
        <path class="cls-10" d="M428.856,617.76c-.068,1.01-.422,1.894-1.217,2.545-.624,.51-1.566,.709-1.496,1.835,.02,.317-.442,.53-.792,.514-.344-.015-.78-.216-.755-.569,.074-1.054-.792-1.251-1.391-1.714-.553-.427-.952-.972-1.129-1.664-.17-.665-.48-1.434,.394-1.771,.995-.384,1.06,.49,1.263,1.132,.295,.937,.949,1.449,1.93,1.285,.887-.148,1.428-.801,1.414-1.682-.015-.96-.585-1.597-1.589-1.692-1.838-.174-3.146-.994-3.504-2.904-.326-1.738,.503-2.9,1.93-3.819,1.222-.787,1.729-.807,3.057,.079,.895,.597,1.566,1.306,1.786,2.385,.132,.647,.223,1.321-.607,1.519-.781,.187-.908-.447-1.063-1.019-.274-1.012-.911-1.571-2.005-1.412-.849,.123-1.351,.69-1.382,1.506-.052,1.398,.896,1.774,2.097,1.945,1.897,.27,3.104,1.71,3.059,3.5Z"/>
      </g>
    </g>
    <g>
      <g>
        <rect class="cls-10" x="608.957" y="323.107" width="73.781" height="73.781" transform="translate(443.713 -351.24) rotate(44.999)"/>
        <circle class="cls-10" cx="692.616" cy="359.997" r="75.384" transform="translate(-51.694 595.194) rotate(-45)"/>
      </g>
      <circle class="cls-5" cx="692.616" cy="359.997" r="64.862" transform="translate(-80.074 470.745) rotate(-35.62)"/>
      <text class="cls-8" transform="translate(659.836 399.912)"><tspan x="0" y="0">INVNTAIRE</tspan></text>
    </g>
    <g>
      <path class="cls-10" d="M682.693,379.864c-6.961,0-13.922,0-20.883,0-1.358,0-1.7-.347-1.7-1.719,0-12.337,0-24.674,0-37.01,0-1.365,.343-1.707,1.711-1.707,6.788,0,13.575,0,20.363,0,1.367,0,1.712,.344,1.712,1.707,0,5.524,.012,11.049-.015,16.573-.003,.631,.174,.765,.781,.763,6.292-.023,12.584-.014,18.877-.014,1.431,0,1.766,.327,1.766,1.728,0,5.995,0,11.99,0,17.985,0,1.351-.351,1.694-1.726,1.694-6.961,0-13.922,0-20.883,0Zm-10.692-21.408c2.948,0,5.896-.01,8.844,.01,.481,.003,.688-.068,.686-.628-.022-5.152-.019-10.305-.004-15.458,.001-.452-.111-.598-.577-.585-1.188,.033-2.379,.041-3.566-.003-.555-.021-.642,.193-.634,.681,.027,1.659,.015,3.319,.009,4.979-.004,1.067-.42,1.484-1.485,1.487-2.18,.006-4.36,.006-6.54,0-1.067-.003-1.482-.418-1.486-1.484-.006-1.66-.029-3.32,.013-4.979,.015-.578-.171-.703-.709-.684-1.138,.041-2.28,.04-3.418,0-.524-.018-.659,.137-.657,.658,.02,5.103,.025,10.206-.004,15.309-.004,.629,.22,.711,.76,.707,2.923-.023,5.846-.011,8.769-.011Zm.001,19.029c2.973,0,5.945-.007,8.918,.007,.416,.002,.61-.055,.608-.552-.019-5.202-.015-10.404-.004-15.606,0-.386-.108-.514-.502-.507-1.189,.023-2.379,.035-3.567-.004-.535-.018-.727,.1-.711,.682,.043,1.659,.02,3.319,.013,4.979-.004,1.066-.421,1.483-1.486,1.486-2.18,.006-4.36,.006-6.54,0-1.067-.003-1.481-.419-1.485-1.485-.006-1.66-.03-3.32,.013-4.979,.015-.58-.174-.701-.711-.682-1.138,.04-2.28,.04-3.418,0-.526-.019-.658,.141-.656,.659,.02,5.103,.025,10.206-.005,15.309-.004,.631,.223,.709,.761,.705,2.923-.022,5.846-.011,8.769-.011Zm21.402,0c2.948,0,5.896-.009,8.844,.009,.474,.003,.693-.057,.69-.623-.023-5.152-.019-10.305-.004-15.458,.001-.444-.099-.604-.572-.59-1.188,.034-2.379,.041-3.566-.002-.549-.02-.647,.182-.639,.677,.029,1.659,.015,3.319,.009,4.979-.004,1.069-.418,1.489-1.48,1.492-2.18,.006-4.36,.006-6.54,0-1.071-.003-1.487-.416-1.491-1.479-.007-1.684-.021-3.369,.01-5.053,.009-.498-.151-.625-.627-.612-1.139,.032-2.28,.042-3.418-.003-.578-.023-.741,.136-.739,.729,.025,5.078,.027,10.157-.002,15.235-.003,.62,.207,.716,.755,.712,2.923-.024,5.846-.011,8.769-.011Zm-21.414-30.922c.618,0,1.238-.023,1.854,.008,.418,.021,.555-.112,.546-.538-.026-1.236-.028-2.473,0-3.709,.01-.444-.158-.533-.558-.526-1.236,.022-2.473,.021-3.709,0-.385-.006-.514,.106-.507,.5,.022,1.261,.024,2.523,0,3.784-.008,.41,.152,.501,.52,.487,.617-.023,1.236-.006,1.855-.006Zm-.06,18.978c0,.017,0,.034,0,.051,.643,0,1.287-.026,1.929,.009,.439,.024,.538-.147,.53-.553-.023-1.236-.021-2.473,0-3.71,.006-.379-.096-.519-.496-.512-1.261,.023-2.523,.024-3.784,0-.405-.008-.506,.142-.491,.516,.024,.642-.013,1.287,.012,1.929,.029,.757-.332,1.77,.155,2.194,.419,.365,1.409,.076,2.147,.076Zm23.858-2.301c0-.643-.013-1.286,.005-1.929,.01-.334-.071-.489-.447-.483-1.286,.019-2.572,.018-3.858,0-.356-.005-.468,.114-.464,.467,.017,1.286,.013,2.572,.002,3.858-.002,.301,.068,.448,.409,.444,1.311-.015,2.622-.014,3.932,0,.324,.003,.434-.108,.425-.428-.018-.643-.005-1.286-.005-1.929Z"/>
      <path class="cls-10" d="M698.155,320.398c-4.484,0-8.968,.012-13.452-.014-.624-.004-.831,.109-.827,.795,.035,5.029,.01,10.058,.031,15.087,.002,.576-.076,.821-.743,.802-1.647-.048-1.648-.01-1.648-1.667,0-5.227,0-10.454,0-15.682,0-1.358,.345-1.698,1.719-1.698,1.61,0,3.221-.014,4.831,.009,.434,.006,.594-.085,.599-.565,.018-1.822,.038-1.822-1.786-1.822-1.66,0-3.32-.001-4.979,0-1.854,.002-2.762,.921-2.762,2.797-.001,5.921-.01,11.842,.013,17.763,.003,.643-.112,.894-.829,.867-1.562-.06-1.563-.016-1.563-1.604,0-5.673-.001-11.346,0-17.019,.001-3.221,1.962-5.181,5.182-5.182,3.468-.001,6.937-.018,10.405,.015,.654,.006,.727-.186,.558-.745-.235-.78-.412-1.579-.6-2.373-.231-.977,.246-1.643,1.229-1.648,3.097-.015,6.193-.016,9.29,.001,.946,.005,1.436,.67,1.221,1.597-.19,.819-.376,1.641-.622,2.444-.185,.603-.01,.726,.588,.722,3.493-.027,6.986-.015,10.479-.012,3.077,.003,5.082,1.992,5.084,5.056,.005,6.392-.009,12.783,.017,19.175,.003,.639-.185,.773-.786,.759-1.608-.039-1.608-.01-1.608-1.629,0-6.07,.001-12.139,0-18.209,0-1.862-.917-2.773-2.785-2.774-2.007-.001-4.014,.015-6.02-.011-.512-.007-.737,.063-.726,.667,.03,1.722-.002,1.722,1.741,1.722,1.313,0,2.626-.005,3.939,.002,1.03,.005,1.47,.422,1.471,1.424,.005,6.466-.001,12.932,.011,19.398,0,.436-.088,.593-.566,.597-1.821,.017-1.821,.037-1.821-1.787,0-5.5-.011-10.999,.015-16.499,.003-.62-.155-.775-.773-.771-4.509,.028-9.017,.015-13.526,.015Zm-3.213-9.514c.273,1.103,.54,2.129,.78,3.162,.214,.92-.285,1.558-1.234,1.589-.594,.02-1.188,.005-1.783,.005-1.689,0-1.663,0-1.688,1.695-.008,.555,.138,.7,.696,.697,3.936-.025,7.873-.014,11.81-.014,1.869,0,1.856,0,1.791-1.886-.013-.392-.126-.51-.511-.5-.891,.024-1.782,.01-2.674,.007-1.301-.005-1.757-.576-1.455-1.822,.198-.817,.411-1.63,.603-2.448,.05-.214,.199-.494-.258-.491-2.002,.012-4.003,.005-6.078,.005Z"/>
      <path class="cls-10" d="M720.174,349.306q-.036-1.307-1.29-.929c-7.981,2.39-15.963,4.774-23.941,7.174-.657,.198-1.282,.256-1.964,.116-1.429-.293-2.87-.53-4.311-.76-.569-.091-.988-.334-1.155-.895-.161-.539,.079-.956,.468-1.319,1.196-1.114,2.391-2.229,3.576-3.355,.28-.266,.606-.418,.965-.525,10.397-3.11,20.794-6.222,31.191-9.331,2.775-.83,5.15,.903,4.93,3.633-.121,1.497-.954,2.53-2.369,3.029-1.071,.378-2.166,.692-3.261,.998-.405,.113-.555,.281-.52,.719,.08,1.011,.096,2.028,.148,3.042,.05,.98-.191,1.365-1.116,1.645-2.768,.838-5.542,1.658-8.308,2.501-.372,.114-.54,.113-.682-.328-.574-1.791-.595-1.787,1.179-2.318,1.8-.539,3.602-1.071,5.402-1.609q1.091-.326,1.058-1.487Zm-.371-6.157c-.251,.071-.509,.142-.765,.218-5.563,1.664-11.125,3.329-16.688,4.992-1.506,.45-1.468,.438-1.076,1.95,.177,.686,.444,.75,1.073,.558,5.222-1.594,10.455-3.153,15.685-4.724q2.115-.635,1.848-2.816c-.006-.047-.038-.09-.076-.178Zm-28.525,9.744c1.937,.548,2.404,.549,4.146,.028,.711-.213,1.419-.432,2.129-.647,1.795-.544,1.785-.54,1.165-2.322-.127-.364-.261-.438-.636-.315-1.151,.377-2.298,.815-3.484,1.023-1.447,.255-2.301,1.242-3.321,2.232Zm30.989-9.592c.024,.362,.06,.586,.048,.806-.031,.606,.169,.775,.773,.544,.713-.272,1.466-.437,2.195-.671,.815-.262,1.18-.885,.951-1.575-.212-.641-.85-.917-1.653-.7-.453,.122-.891,.311-1.35,.394-.783,.141-1.23,.471-.964,1.202Z"/>
      <path class="cls-10" d="M719.574,361.799c0,1.633,.012,3.267-.003,4.9-.025,2.772-2.073,4.817-4.849,4.836-2.153,.015-4.306-.008-6.459,.012-.439,.004-.59-.094-.595-.568-.017-1.819-.036-1.819,1.785-1.819,1.732,0,3.465,.008,5.197-.003,1.564-.01,2.539-.989,2.543-2.564,.008-3.267,.018-6.534-.012-9.801-.005-.591,.16-.741,.737-.73,1.655,.031,1.656,.005,1.656,1.652,0,1.361,0,2.722,0,4.084Z"/>
      <path class="cls-10" d="M686.275,326.272c0-.743-.017-1.487,.005-2.229,.023-.793,.464-1.248,1.255-1.258,1.536-.02,3.072-.02,4.608,0,.791,.01,1.248,.464,1.259,1.254,.021,1.536,.021,3.072,0,4.608-.01,.791-.466,1.249-1.255,1.259-1.536,.021-3.072,.02-4.608,0-.791-.01-1.237-.466-1.259-1.255-.022-.792-.005-1.585-.005-2.378Zm4.756,.128q0-1.244-1.227-1.244c-.123,0-.251,.02-.37-.003-.675-.13-.892,.174-.784,.805,.016,.096,.002,.197,.002,.296q0,1.281,1.264,1.281,1.115,0,1.115-1.134Z"/>
      <path class="cls-10" d="M693.408,337.042c0,.768,.017,1.536-.005,2.304-.022,.793-.465,1.252-1.253,1.263-1.536,.021-3.072,.02-4.608,0-.792-.01-1.251-.464-1.261-1.252-.021-1.536-.02-3.072,0-4.608,.01-.794,.461-1.251,1.251-1.261,1.536-.021,3.072-.02,4.608,0,.793,.01,1.24,.462,1.264,1.251,.023,.767,.005,1.536,.005,2.304Zm-3.537,1.196q1.16,0,1.16-1.089,0-1.289-1.256-1.289-1.123,0-1.123,1.126,0,1.252,1.219,1.252Z"/>
      <path class="cls-10" d="M702.921,327.534c2.178,0,4.356,.015,6.534-.011,.491-.006,.616,.141,.617,.622,.002,1.768,.02,1.768-1.761,1.768-3.936,0-7.871-.013-11.807,.014-.589,.004-.741-.158-.73-.736,.032-1.656,.005-1.656,1.652-1.656,1.832,0,3.663,0,5.495,0Z"/>
      <path class="cls-10" d="M702.909,340.617c-2.178,0-4.356-.01-6.534,.009-.432,.004-.595-.082-.6-.564-.018-1.824-.039-1.824,1.781-1.824,3.936,0,7.871,.01,11.807-.012,.529-.003,.723,.094,.714,.678-.028,1.712,.001,1.712-1.673,1.712-1.832,0-3.663,0-5.495,0Z"/>
      <path class="cls-10" d="M714.817,361.685c0,1.236,.009,2.473-.003,3.709-.009,.928-.444,1.376-1.358,1.383-1.756,.013-3.512-.005-5.267,.011-.373,.003-.503-.089-.518-.491-.07-1.895-.085-1.895,1.779-1.895,.767,0,1.535-.035,2.299,.012,.544,.033,.716-.114,.705-.685-.039-1.928,.009-3.858-.029-5.786-.011-.565,.153-.698,.701-.69,1.692,.024,1.692,0,1.692,1.687,0,.915,0,1.83,0,2.745Z"/>
      <path class="cls-10" d="M705.226,325.156c-1.361,0-2.722-.023-4.082,.012-.502,.013-.609-.159-.609-.629-.002-1.762-.018-1.762,1.765-1.762,2.35,0,4.701,.013,7.051-.01,.508-.005,.737,.059,.727,.665-.03,1.724,.002,1.724-1.734,1.724-1.039,0-2.078,0-3.117,0Z"/>
      <path class="cls-10" d="M705.247,335.859c-1.386,0-2.771-.013-4.156,.008-.406,.006-.546-.094-.557-.529-.044-1.858-.06-1.857,1.819-1.857,2.35,0,4.701,.014,7.051-.011,.504-.006,.675,.107,.67,.644-.014,1.745,.01,1.746-1.71,1.746-1.039,0-2.078,0-3.117,0Z"/>
      <path class="cls-10" d="M696.906,325.156q-1.118,0-1.118-1.131,0-1.248,1.223-1.248,1.155,0,1.155,1.168,0,1.211-1.261,1.211Z"/>
      <path class="cls-10" d="M697.044,333.481q1.123,0,1.123,1.126,0,1.253-1.219,1.253c-.173,0-.349-.022-.518,.004-.523,.08-.726-.131-.646-.649,.023-.145,.003-.296,.003-.444q0-1.29,1.256-1.29Z"/>
      <path class="cls-10" d="M679.138,354.896q0,1.182-1.438,1.182-.942,0-.941-1.456,0-.923,1.475-.922,.904,0,.904,1.197Z"/>
      <path class="cls-10" d="M677.97,372.728q1.168,0,1.168,1.377,0,1.002-1.47,1.001-.91,0-.909-1.488,0-.89,1.211-.89Z"/>
      <path class="cls-10" d="M699.392,375.107q-1.225,0-1.225-1.246,0-1.133,1.116-1.133,1.262,0,1.262,1.283,0,1.096-1.153,1.096Z"/>
    </g>
    <g>
      <g>
        <rect class="cls-10" x="194.262" y="323.112" width="73.781" height="73.781" transform="translate(140.046 778.013) rotate(-135.001)"/>
        <circle class="cls-10" cx="184.384" cy="360.003" r="75.384" transform="translate(-200.556 235.822) rotate(-45)"/>
      </g>
      <circle class="cls-5" cx="184.384" cy="360.003" r="64.862" transform="translate(-207.203 461.289) rotate(-77.382)"/>
      <g>
        <path class="cls-10" d="M186.917,356.198c1.64,0,3.276-.001,4.913,.001,.23,0,.302-.084,.275-.323-.3-2.655-.065-5.32-.132-7.979-.024-.947-.022-1.896,.003-2.844,.051-1.979,1.604-3.585,3.576-3.601,4.176-.033,8.353-.034,12.529,0,1.938,.016,3.529,1.601,3.553,3.538,.041,3.356,.004,6.713,.024,10.069,.002,.373-.359,.85-.051,1.059,.286,.194,.789,.067,1.197,.08,1.43,.044,2.872-.137,4.286,.215,3.563,.887,5.985,4.291,5.601,7.869-.402,3.756-3.465,6.613-7.224,6.664-3.125,.043-6.252,.024-9.378,0-.577-.004-.993,.145-1.409,.566-2.376,2.407-4.795,4.771-7.172,7.177-.442,.448-.757,.582-1.325,.18-.897-.634-1.875-1.151-2.804-1.742-.337-.214-.599-.256-.974-.039-2.023,1.173-4.163,2.081-6.43,2.666-.438,.113-.61,.343-.702,.768-.248,1.15-.567,2.285-.813,3.435-.087,.407-.25,.539-.662,.537-3.561-.014-7.123-.016-10.685,.001-.446,.002-.616-.139-.709-.577-.243-1.151-.567-2.284-.816-3.434-.087-.401-.25-.62-.653-.724-2.293-.59-4.454-1.51-6.502-2.692-.351-.202-.596-.151-.906,.043-1.019,.64-2.061,1.243-3.072,1.894-.339,.218-.542,.222-.839-.077-2.525-2.548-5.061-5.085-7.61-7.609-.307-.304-.276-.512-.064-.842,.637-.99,1.224-2.012,1.859-3.004,.233-.364,.263-.65,.034-1.043-1.165-1.999-2.049-4.121-2.639-6.36-.109-.414-.298-.637-.744-.73-1.176-.247-2.335-.572-3.51-.825-.382-.082-.494-.245-.492-.618,.011-3.587,.013-7.174-.002-10.761-.002-.419,.146-.568,.545-.655,1.174-.255,2.334-.578,3.508-.836,.374-.082,.566-.238,.665-.611,.608-2.314,1.526-4.504,2.728-6.571,.188-.324,.133-.551-.046-.837-.652-1.041-1.273-2.102-1.933-3.139-.199-.312-.202-.505,.075-.779,2.565-2.544,5.121-5.098,7.663-7.664,.287-.29,.485-.24,.782-.051,.995,.629,2.018,1.215,3.005,1.857,.393,.256,.697,.274,1.109,.034,1.843-1.073,3.797-1.897,5.855-2.457,.489-.133,.683-.315,.675-.879-.129-9.358,7.435-16.694,16.785-16.31,9.103,.375,16.157,8.708,15.055,17.786-1.025,8.446-8.187,14.542-16.69,14.157-3.203-.145-6.11-1.207-8.679-3.134-.423-.317-.82-.436-1.337-.375-6.903,.818-12.875,6.862-13.634,13.771-.189,1.724-.144,3.421,.168,5.123,.081,.442,.211,.663,.728,.643,1.151-.045,2.306-.039,3.458-.003,.544,.017,.66-.14,.498-.649-.09-.283-.062-.609-.063-.915-.004-3.075-.006-6.149-.001-9.224,.004-2.451,1.531-3.979,3.981-3.982,3.92-.005,7.84-.006,11.761,0,2.4,.004,3.931,1.541,3.936,3.949,.007,3.1,.007,6.201-.004,9.301-.002,.481-.078,.961-.126,1.506Zm14.785,14.763c-2.991,0-5.828,.003-8.665-.005-.318,0-.519,.188-.744,.35-4.806,3.459-10.147,4.987-16.06,4.455-11.473-1.032-20.631-10.6-21.145-22.091-.457-10.216,5.727-19.539,15.323-23.098,.55-.204,1.428-.257,1.576-.618,.182-.441-.285-1.125-.399-1.718-.097-.501-.309-.522-.741-.389-2.215,.682-4.311,1.618-6.253,2.88-.43,.28-.735,.291-1.165,0-.847-.574-1.753-1.06-2.61-1.618-.347-.226-.551-.188-.837,.103-1.598,1.627-3.211,3.239-4.838,4.837-.289,.284-.336,.484-.106,.835,.575,.878,1.085,1.797,1.66,2.676,.245,.375,.249,.651,0,1.035-1.671,2.582-2.837,5.381-3.473,8.392-.094,.446-.316,.637-.736,.729-1,.218-1.99,.477-2.99,.697-.391,.086-.601,.205-.594,.689,.032,2.28,.027,4.561,.004,6.842-.004,.423,.151,.573,.534,.656,1.025,.222,2.041,.485,3.065,.712,.385,.085,.617,.242,.706,.669,.633,3.039,1.809,5.861,3.496,8.464,.256,.395,.212,.67-.023,1.034-.569,.881-1.088,1.795-1.655,2.679-.197,.307-.207,.503,.071,.777,1.644,1.618,3.277,3.246,4.891,4.893,.301,.307,.509,.287,.839,.075,.86-.555,1.756-1.055,2.612-1.616,.391-.256,.683-.286,1.099-.019,2.585,1.664,5.384,2.829,8.394,3.468,.405,.086,.603,.274,.691,.679,.228,1.05,.51,2.088,.737,3.138,.079,.367,.232,.492,.61,.49,2.306-.016,4.612-.014,6.919-.001,.366,.002,.536-.099,.617-.479,.223-1.051,.508-2.088,.739-3.137,.088-.4,.274-.6,.685-.687,3.037-.641,5.857-1.82,8.461-3.505,.359-.232,.624-.215,.97,.007,.904,.581,1.836,1.119,2.744,1.695,.273,.173,.458,.222,.717-.043,1.576-1.611,3.169-3.205,4.878-4.927Zm-28.184-46.806c-.023,7.474,6.031,13.578,13.484,13.594,7.437,.017,13.535-6.016,13.575-13.429,.04-7.479-5.999-13.6-13.447-13.63-7.479-.03-13.589,6.014-13.611,13.465Zm14.382,46.805c-2.92,0-5.84-.007-8.76,.002-2.248,.007-4.432-.354-6.559-1.08-7.157-2.443-12.326-9.232-12.58-16.528-.272-7.843,4.178-14.86,11.316-17.851,1.076-.451,2.201-.754,3.384-1.073-.4-.579-.804-1.078-1.108-1.631-.254-.462-.535-.488-.997-.358-12.402,3.5-18.703,17.863-12.878,29.378,4.046,7.999,12.356,12.467,21.328,11.427,2.424-.281,4.728-1.008,6.853-2.286Zm-10.731-14.76c1.946,0,3.893,.003,5.839-.001,1.156-.003,1.577-.421,1.579-1.571,.005-2.971,.002-5.941,.001-8.912,0-1.484-.381-1.83-1.873-1.829-.479,0-.609,.137-.597,.606,.031,1.254-.005,2.51,.019,3.764,.008,.421-.098,.576-.549,.573-2.919-.019-5.839-.019-8.758,0-.452,.003-.557-.151-.549-.572,.024-1.254,.016-2.51,0-3.764-.002-.197,.139-.459-.193-.584-1.139-.431-2.253,.293-2.256,1.499-.007,3.099-.007,6.197,0,9.296,.002,1.051,.445,1.49,1.499,1.494,1.946,.008,3.893,.002,5.839,.002Zm24.635,0c1.921,0,3.841,.003,5.762,0,1.208-.002,1.62-.408,1.622-1.606,.004-2.945,.002-5.89,.001-8.835,0-1.537-.383-1.892-1.908-1.87-.434,.006-.57,.124-.561,.562,.027,1.254-.008,2.51,.018,3.764,.01,.449-.087,.622-.585,.617-2.894-.024-5.788-.024-8.681,0-.486,.004-.604-.146-.594-.609,.03-1.254,.016-2.51,.004-3.764-.002-.198,.118-.452-.229-.557-1.249-.38-2.223,.313-2.224,1.617-.003,3.047-.004,6.095,0,9.142,.002,1.102,.434,1.533,1.534,1.537,1.946,.006,3.893,.002,5.839,.002Zm-23.476,2.46c-.295,0-.515,0-.734,0-4.35,0-8.701,0-13.051,0-.822,0-.84,.013-.449,.766,2.355,4.536,6.054,7.368,10.99,8.605,1.018,.255,2.056,.42,3.203,.401-2.712-2.45-3.404-6.48,.042-9.772Zm3.814,1.232c-2.012-.006-3.677,1.629-3.701,3.635-.025,2.043,1.635,3.734,3.673,3.741,2.008,.007,3.678-1.633,3.702-3.636,.024-2.043-1.636-3.733-3.674-3.739Zm18.434,3.69c0-2.009-1.642-3.671-3.647-3.69-2.044-.019-3.726,1.643-3.728,3.684-.002,2.039,1.681,3.708,3.723,3.691,2.005-.017,3.651-1.678,3.652-3.686Zm11.1-3.69c-2.012-.012-3.684,1.618-3.714,3.621-.031,2.045,1.623,3.741,3.659,3.754,2.008,.013,3.685-1.622,3.715-3.623,.031-2.044-1.624-3.74-3.661-3.753Zm-25.809-1.19c1.58,1.369,2.413,2.958,2.405,4.922-.009,1.946-.882,3.511-2.433,4.877h7.282c-3.042-2.762-3.247-6.838-.06-9.798h-7.194Zm22.09,9.798c-1.614-1.401-2.453-2.983-2.449-4.946,.005-1.952,.868-3.519,2.388-4.856h-7.257c1.532,1.344,2.388,2.917,2.395,4.87,.007,1.972-.876,3.554-2.422,4.932,2.348,0,4.523,0,6.698,0,.15,0,.301,0,.647,0Zm7.491,.001c1.887-.139,3.292-.942,4.17-2.53,.977-1.769,.869-3.54-.265-5.212-.917-1.353-2.587-2.192-3.833-1.989,2.617,2.303,3.458,6.351-.071,9.731Zm-38.277-22.142h.69c1.871,0,1.857,0,1.818-1.902-.009-.423-.107-.585-.554-.568-.842,.033-1.687,.009-2.53,.009-1.931,0-1.919,0-1.856,1.94,.013,.388,.1,.548,.515,.528,.638-.031,1.278-.008,1.917-.008Zm24.637,0c.614,0,1.23,.038,1.84-.008,1.308-.099,.384-1.09,.594-1.634,.159-.411,.137-.908-.63-.835-.811,.076-1.634,.017-2.452,.017-1.872,0-1.858,0-1.82,1.9,.008,.42,.101,.595,.552,.569,.637-.036,1.278-.009,1.917-.009Z"/>
        <path class="cls-10" d="M187.039,313.15c6.116-.004,11.09,4.979,11.079,11.097-.011,6.076-4.981,11.037-11.06,11.041-6.113,.004-11.089-4.981-11.079-11.099,.01-6.077,4.979-11.036,11.06-11.04Zm.037,2.462c-4.735-.013-8.622,3.849-8.635,8.58-.013,4.734,3.85,8.622,8.581,8.636,4.735,.014,8.622-3.849,8.634-8.581,.013-4.737-3.847-8.621-8.58-8.634Z"/>
        <path class="cls-10" d="M183.076,323.452c.105,.096,.239,.211,.364,.336,.617,.614,1.258,1.206,1.838,1.853,.391,.435,.636,.469,1.072,.02,1.8-1.855,3.656-3.656,5.463-5.504,.386-.395,.6-.457,1.019-.024,1.232,1.275,1.254,1.254-.022,2.53-2.172,2.172-4.353,4.334-6.507,6.524-.369,.375-.573,.412-.955,.012-1.185-1.239-2.399-2.452-3.637-3.637-.403-.386-.385-.624,.022-.958,.335-.275,.618-.612,.931-.914,.105-.101,.185-.252,.413-.237Z"/>
      </g>
      <text class="cls-7" transform="translate(150.894 407.231)"><tspan x="0" y="0">FABRICATION</tspan></text>
    </g>
    <g>
      <g>
        <rect class="cls-1" x="548.226" y="176.492" width="73.781" height="73.781"/>
        <circle class="cls-1" cx="618.187" cy="180.313" r="75.384"/>
      </g>
      <circle class="cls-5" cx="618.187" cy="180.313" r="64.862"/>
      <g>
        <path class="cls-1" d="M612.745,127.103c1.515,.474,2.602,1.365,2.926,2.996,.046,.254,.069,.52,.069,.786q.023,1.099,1.157,1.099h13.393c.44,0,.752,.127,1.064,.44,4.835,4.858,9.681,9.704,14.527,14.538,.289,.289,.416,.578,.416,.995-.012,5.875-.012,11.751,0,17.615,0,.555-.173,.671-.682,.659-1.77-.012-1.77,0-1.77-1.793,0-4.846,0-9.692,.012-14.538,0-.613-.127-.81-.775-.798-4.372,.035-8.744,0-13.104,.035-.625,0-.798-.15-.798-.786,.035-4.395,0-8.79,.035-13.173,0-.601-.162-.752-.752-.752-3.99,.023-7.969,.035-11.959,0-.671,0-.763,.22-.763,.81,.012,9.843,.012,19.673,0,29.516,0,1.978-1.087,3.435-2.88,3.84-.393,.093-.81,.093-1.203,.093-6.141,0-12.271,.012-18.413,0-.601,0-.74,.173-.74,.752,.023,9.287,.023,18.575,0,27.862,0,.671,.208,.763,.81,.763,16.597-.012,33.182-.012,49.779,0,.659,0,.775-.185,.775-.798-.023-4.395,0-8.79-.023-13.173,0-.567,.15-.729,.717-.729,1.735,.012,1.735,0,1.735,1.689,0,4.846-.012,9.692,.012,14.538,0,.682-.104,.914-.879,.914-18.17-.023-36.34-.023-54.51,0-.682,0-.867-.139-.867-.844,.023-10.028,0-20.055,.035-30.083,0-.729-.173-.937-.902-.902-1.33,.058-2.672,.035-4.013,.012-2.093-.035-3.666-1.596-3.666-3.689,0-11.415,0-22.796,.012-34.189,0-1.989,1.191-3.123,2.996-3.701h28.232Zm-28.799,20.784v16.539c0,1.434,.347,1.793,1.758,1.793h25.85c1.376,0,1.746-.37,1.746-1.723v-33.229c0-1.353-.382-1.723-1.758-1.723h-25.85c-1.376,0-1.746,.37-1.746,1.735,0,5.54,0,11.08,0,16.609Zm47.744-11.508s-.046,.116-.046,.173c0,3.204,0,6.396-.012,9.6,0,.59,.335,.509,.694,.509h9.021c.197,0,.428,.093,.555-.093-3.4-3.4-6.801-6.789-10.213-10.189Z"/>
        <path class="cls-1" d="M654.868,169.226c-.289,1.214-1.087,2.07-1.943,2.915-6.581,6.558-13.139,13.127-19.697,19.697-.393,.393-.821,.706-1.342,.937-1.874,.844-3.736,1.7-5.586,2.568-.601,.278-1.145,.359-1.642-.139-.497-.509-.405-1.076-.116-1.654,0-.023,.023-.046,.035-.058,.96-2.07,1.677-4.314,2.961-6.176,1.261-1.816,3.077-3.238,4.673-4.823,5.378-5.39,10.768-10.768,16.146-16.146,1.399-1.399,3.285-1.642,4.823-.659,.948,.601,1.376,1.538,1.677,2.556v1.006l.012-.023Zm-26.705,22.496c1.261-.636,2.672-.925,3.724-1.989,4.592-4.626,9.206-9.218,13.81-13.833,.37-.37,.995-.752,1.018-1.133,.012-.463-.694-.763-1.029-1.191-.37-.474-.625-.497-1.099-.035-4.615,4.661-9.23,9.334-13.937,13.914-1.249,1.226-1.816,2.73-2.487,4.268Zm22.808-24.219c-.555,0-1.018,.567-1.353,1.099-.266,.405,.393,.578,.613,.879,.185,.266,.463,.474,.694,.706,.15,.162,.289,.231,.463,.035,.254-.278,.544-.532,.775-.833,.301-.393,.312-.844,.069-1.272-.22-.393-.578-.613-1.261-.613Zm-1.527,4.742c-.093-.139-.127-.208-.173-.254-.451-.451-.902-.902-1.353-1.365-.162-.162-.266-.093-.416,.023-.636,.486-.659,.613-.104,1.168,.289,.289,.567,.578,.856,.856,.127,.116,.231,.37,.451,.208,.266-.197,.509-.428,.74-.636Z"/>
        <path class="cls-1" d="M621.859,183.325c.023,6.708-5.459,12.225-12.179,12.26s-12.248-5.436-12.283-12.144c-.023-6.812,5.447-12.329,12.225-12.329,6.708,0,12.202,5.494,12.225,12.214h.012Zm-2.452-.012c-.035-5.413-4.453-9.796-9.831-9.75-5.401,.046-9.75,4.453-9.727,9.866,.023,5.355,4.441,9.738,9.796,9.715,5.39-.012,9.796-4.453,9.762-9.831Z"/>
        <path class="cls-1" d="M632.8,165.005c-2.221,0-4.441-.012-6.65,0-.497,0-.648-.15-.648-.648,0-1.816-.023-1.816,1.827-1.816,4.036,0,8.061,.012,12.098-.012,.625,0,.81,.162,.798,.798-.035,1.677,0,1.677-1.7,1.677h-5.725Z"/>
        <path class="cls-1" d="M632.835,160.101c-2.221,0-4.441-.012-6.65,.012-.544,0-.682-.162-.682-.682,.012-1.77,0-1.77,1.793-1.77,4.06,0,8.108,.012,12.167-.012,.601,0,.763,.162,.763,.763-.023,1.7,0,1.7-1.665,1.7h-5.725v-.012Z"/>
        <path class="cls-1" d="M632.847,155.208h-6.731c-.451,0-.625-.093-.625-.59-.012-1.862-.035-1.862,1.851-1.862h12.167c.52,0,.706,.104,.706,.659,0,1.793,.023,1.793-1.781,1.793s-3.724,0-5.586,0Z"/>
        <path class="cls-1" d="M632.87,167.456c2.221,0,4.441,.012,6.65,0,.52,0,.694,.127,.694,.682,0,1.781,.012,1.781-1.723,1.781-4.083,0-8.154-.012-12.237,.012-.59,0-.775-.15-.763-.752,.035-1.712,0-1.712,1.723-1.712h5.656v-.012Z"/>
        <path class="cls-1" d="M623.074,163.79c0,.81-.416,1.214-1.249,1.214s-1.23-.401-1.191-1.203c.039-.802,.466-1.218,1.284-1.249,.817-.031,1.203,.382,1.157,1.238Z"/>
        <path class="cls-1" d="M621.778,169.908c-.763,0-1.145-.389-1.145-1.168s.42-1.203,1.261-1.272,1.234,.332,1.18,1.203c-.054,.871-.486,1.288-1.295,1.249v-.012Z"/>
        <path class="cls-1" d="M623.074,154.005c0,.81-.416,1.214-1.249,1.214s-1.23-.397-1.191-1.191c.039-.794,.466-1.211,1.284-1.249s1.203,.374,1.157,1.238v-.012Z"/>
        <path class="cls-1" d="M623.074,158.886c0,.81-.416,1.214-1.249,1.214s-1.234-.397-1.203-1.191c.031-.794,.459-1.211,1.284-1.249s1.211,.374,1.157,1.238l.012-.012Z"/>
        <path class="cls-1" d="M598.658,139.317h-12.746c-.544,0-.74-.116-.729-.706,.035-2.383,.023-4.777,0-7.159,0-.52,.116-.694,.671-.694,8.524,.023,17.048,.012,25.572,0,.486,0,.659,.116,.659,.625-.023,2.44-.023,4.869,0,7.31,0,.532-.197,.625-.671,.613-4.245-.012-8.501,0-12.746,0l-.012,.012Zm-.081-2.44c3.458,0,6.916-.012,10.375,.012,.544,0,.706-.15,.671-.682-.046-.74-.058-1.48,0-2.221,.058-.659-.197-.775-.798-.775-6.465,.023-12.919,.012-19.384,.012-.451,0-.902,.012-1.365,0-.347-.012-.463,.127-.451,.463,.012,.833,.046,1.677,0,2.498-.035,.59,.197,.694,.729,.694,3.412-.023,6.824,0,10.236,0h-.012Z"/>
        <path class="cls-1" d="M594.969,161.338v-1.145c.023-1.434,.948-2.44,2.383-2.521,.833-.046,1.677-.046,2.51,0,1.469,.069,2.406,1.076,2.429,2.556,0,.786,.012,1.573,0,2.359-.035,1.295-.914,2.278-2.209,2.383-.925,.069-1.862,.069-2.787,.012-1.399-.081-2.29-1.087-2.325-2.498,0-.382,0-.763,0-1.145Zm3.678-1.238c-.825,0-1.238,.409-1.238,1.226v.069c0,.771,.389,1.157,1.168,1.157s1.203-.42,1.272-1.261c.069-.84-.332-1.238-1.203-1.191Z"/>
        <path class="cls-1" d="M603.527,161.28c0-.382-.012-.763,0-1.145,.058-1.434,.995-2.406,2.44-2.464,.81-.035,1.619-.035,2.429,0,1.434,.069,2.406,1.052,2.452,2.475,.023,.786,.023,1.573,0,2.359-.046,1.434-.983,2.417-2.429,2.487-.763,.035-1.527,.023-2.29,0-1.654-.035-2.591-.995-2.614-2.66v-1.076h0l.012,.023Zm3.701-1.168c-.833,0-1.249,.409-1.249,1.226s.397,1.222,1.191,1.214,1.214-.416,1.261-1.226c.046-.81-.351-1.214-1.191-1.214h-.012Z"/>
        <path class="cls-1" d="M593.708,161.338c0,.474,.023,.96,0,1.434-.069,1.122-.902,2.036-2.012,2.174-1.064,.127-2.151,.127-3.215,0-1.168-.139-2.012-1.087-2.07-2.29-.035-.879-.046-1.77,0-2.649,.058-1.307,1.018-2.255,2.359-2.336,.856-.046,1.723-.046,2.579,0,1.411,.069,2.336,1.052,2.383,2.452,.012,.405,0,.81,0,1.214h-.023Zm-2.429,0c0-.825-.413-1.238-1.238-1.238s-1.226,.401-1.203,1.203c.023,.802,.44,1.214,1.249,1.238,.81,.023,1.211-.378,1.203-1.203h-.012Z"/>
        <path class="cls-1" d="M598.647,140.566c.451,0,.914-.023,1.365,0,1.226,.069,2.221,1.029,2.267,2.255,.046,.925,.046,1.862,0,2.787-.058,1.214-1.052,2.209-2.267,2.255-.925,.035-1.862,.046-2.787,0-1.214-.058-2.186-1.064-2.232-2.29-.035-.879-.023-1.77,0-2.649,.035-1.33,1.041-2.325,2.383-2.371,.428-.012,.856,0,1.284,0h0l-.012,.012Zm1.203,3.666c0-.817-.386-1.226-1.157-1.226s-1.199,.416-1.284,1.249c-.085,.833,.316,1.23,1.203,1.191,.887-.039,1.299-.443,1.238-1.214Z"/>
        <path class="cls-1" d="M590.042,140.566c.474,0,.96-.023,1.434,0,1.203,.069,2.163,1.006,2.232,2.209,.046,.948,.046,1.908,0,2.857-.058,1.226-1.041,2.186-2.29,2.232-.879,.035-1.77,.023-2.649,0-1.295-.035-2.302-1.018-2.359-2.325-.046-.879-.046-1.77,0-2.649,.058-1.342,1.076-2.302,2.417-2.336h1.214v.012Zm.035,4.869c.802,0,1.203-.393,1.203-1.18,0-1.18,0-.046,0-.069,0-.794-.397-1.191-1.191-1.191-.794,0-1.211,.405-1.249,1.214-.039,.81,.374,1.218,1.238,1.226Z"/>
        <path class="cls-1" d="M607.159,147.876c-.428,0-.856,.012-1.284,0-1.272-.058-2.267-.995-2.325-2.267-.046-.925-.046-1.862,0-2.787,.058-1.272,1.052-2.209,2.336-2.244,.81-.023,1.619-.012,2.429,0,1.492,.023,2.498,1.018,2.544,2.521,.023,.74,.012,1.48,0,2.221-.035,1.585-1.041,2.568-2.625,2.579h-1.076v-.023Zm.046-2.44c.81,0,1.214-.393,1.214-1.18,0-1.18,0-.046,0-.069,0-.794-.401-1.191-1.203-1.191-.802,0-1.214,.405-1.238,1.214-.023,.81,.389,1.218,1.238,1.226h-.012Z"/>
        <path class="cls-1" d="M594.969,152.768c0-.451-.023-.902,0-1.365,.058-1.203,.972-2.198,2.174-2.267,.972-.058,1.955-.058,2.938,0,1.203,.069,2.14,1.029,2.198,2.244,.035,.925,.046,1.862,0,2.787-.058,1.238-1.052,2.198-2.348,2.267-.879,.046-1.77,.046-2.649,0-1.342-.081-2.278-1.099-2.313-2.452v-1.214h0Zm2.44,.023c0,.81,.393,1.214,1.18,1.214,1.18,0,.046,0,.069,0,.794,0,1.191-.401,1.191-1.203s-.405-1.218-1.214-1.249c-.81-.031-1.218,.378-1.226,1.226v.012Z"/>
        <path class="cls-1" d="M593.72,152.768v1.214c-.046,1.399-.983,2.394-2.371,2.464-.856,.046-1.723,.046-2.579,0-1.376-.069-2.336-1.087-2.383-2.464-.023-.81-.023-1.619,0-2.429,.046-1.388,1.018-2.359,2.417-2.406,.81-.023,1.619-.023,2.429,0,1.492,.035,2.429,1.006,2.475,2.498v1.145l.012-.023Zm-2.44,.093c0-.856-.42-1.284-1.261-1.284s-1.234,.386-1.18,1.157c.054,.771,.474,1.199,1.261,1.284,.786,.085,1.18-.301,1.18-1.157Z"/>
        <path class="cls-1" d="M603.55,152.745c0-.497-.035-1.006,0-1.504,.104-1.11,.995-2.024,2.093-2.093,.995-.058,2.001-.058,3.007,0,1.214,.069,2.128,1.052,2.186,2.336,.046,.856,.046,1.723,0,2.579-.069,1.376-1.064,2.336-2.464,2.394-.74,.023-1.48,.012-2.221,0-1.642-.023-2.614-.995-2.649-2.625v-1.076h.023l.023-.012Zm4.869,.069c0-.833-.409-1.249-1.226-1.249s-1.222,.397-1.214,1.191c.008,.794,.416,1.214,1.226,1.261s1.214-.351,1.214-1.191v-.012Z"/>
        <text class="cls-2" transform="translate(600.647 187.084)"><tspan x="0" y="0">DZD</tspan></text>
      </g>
      <text class="cls-3" transform="translate(581.466 226.065)"><tspan x="0" y="0">COMPTABILITÉ</tspan></text>
    </g>
    <g>
      <g>
        <rect class="cls-1" x="254.992" y="469.726" width="73.781" height="73.781" transform="translate(583.766 1013.234) rotate(180)"/>
        <circle class="cls-1" cx="258.813" cy="539.687" r="75.384"/>
      </g>
      <circle class="cls-5" cx="258.813" cy="539.687" r="64.862"/>
      <g>
        <path class="cls-1" d="M265.191,552.23h-11.892c-.298,.695,.284,1.153,.437,1.69,.707,2.478-.184,5.005-2.303,6.342-2.107,1.329-4.935,1.105-6.736-.534-1.885-1.716-2.48-4.374-1.212-6.601,.641-1.125,.425-1.523-.558-2.216-3.461-2.442-3.694-7.428-.442-10.12,.972-.805,.98-1.416,.627-2.471-2.579-7.692-5.103-15.403-7.63-23.113-.814-2.484-.42-3.029,2.155-3.031,9.63-.005,19.259-.024,28.889,.025,1.235,.006,2.089-.324,2.839-1.317,1.009-1.335,2.189-2.54,3.253-3.835,.859-1.046,1.683-1.07,2.668-.159,1.368,1.265,2.94,2.34,4.148,3.736,1.194,1.379,2.521,1.641,4.209,1.581,3.089-.11,3.46,.459,2.487,3.314-2.736,8.033-5.524,16.049-8.183,24.108-.572,1.734-1.485,2.263-3.243,2.248-8.697-.074-17.395-.034-26.093-.033-.559,0-1.119-.018-1.677,.011-2.486,.132-4.106,1.736-4.018,3.96,.086,2.149,1.713,3.643,4.118,3.649,8.76,.022,17.52,.009,26.28,.009,.87,0,1.74-.01,2.609,.009,.936,.02,1.606,.47,1.579,1.439-.025,.889-.701,1.22-1.55,1.258-.74,.034-1.691-.304-1.089,1.225,1.078,2.74,.262,5.253-1.891,6.767-1.947,1.368-4.888,1.236-6.77-.305-1.932-1.582-2.446-4.112-1.371-6.76,.087-.215,.177-.429,.361-.874Zm-6.097-19.615c.613-.041,1.136-.665,1.673-1.272,4.891-5.531,9.775-11.069,14.68-16.588,2.05-2.306,2.036-2.248-.174-4.279-.867-.797-1.35-.848-2.156,.118-3.577,4.287-7.228,8.512-10.874,12.741-3.837,4.45-2.806,4.292-7.247,.52-2.443-2.075-2.407-2.05-4.522,.349-.692,.785-.691,1.212,.129,1.901,2.136,1.796,4.183,3.698,6.269,5.553,.557,.495,1.108,1.014,2.222,.957Z"/>
        <path class="cls-1" d="M226.431,494.18c.372,0,.744,0,1.116,0,4.154,0,4.433,.23,5.285,4.401,.169,.83,.238,1.673-.807,1.969-.987,.279-1.656-.302-1.758-1.174-.281-2.393-1.757-2.723-3.762-2.517-1.227,.126-2.477,.004-3.716,.028-1.005,.019-1.791-.331-1.767-1.415,.022-.966,.752-1.318,1.691-1.297,1.239,.028,2.479,.007,3.719,.006Z"/>
        <path class="cls-1" d="M235.786,507.438c.124,1.198-.192,1.696-.889,1.858-.653,.152-1.278-.004-1.539-.691-.394-1.037-.738-2.095-1.048-3.161-.221-.76,.082-1.346,.825-1.632,.786-.303,1.359,.063,1.643,.763,.438,1.081,.779,2.201,1.008,2.864Z"/>
      </g>
      <text class="cls-3" transform="translate(241.915 580.231)"><tspan x="0" y="0">ACHAT</tspan></text>
    </g>
    <g>
      <g>
        <rect class="cls-1" x="548.228" y="469.725" width="73.781" height="73.781" transform="translate(1091.728 -78.508) rotate(89.999)"/>
        <circle class="cls-1" cx="618.189" cy="539.685" r="75.384"/>
      </g>
      <circle class="cls-5" cx="618.189" cy="539.685" r="64.862" transform="translate(-56.29 1007.121) rotate(-75.845)"/>
      <text class="cls-3" transform="translate(579.965 584.231)"><tspan x="0" y="0">ACHAT SERVICE</tspan></text>
    </g>
    <g>
      <path class="cls-1" d="M595.355,505.72c-1.829,0-3.658,.009-5.487-.003-2.247-.015-3.872-1.648-3.86-3.857,.012-2.155,1.645-3.765,3.863-3.772,3.423-.012,6.846-.009,10.269,0,1.997,.005,3.512,1.217,3.844,3.211,.562,3.371,1.044,6.756,1.554,10.136,.428,2.838,.858,5.676,1.26,8.518,.081,.574,.361,.722,.892,.716,1.724-.021,3.449,.015,5.173-.018,.643-.012,.88,.197,.858,.85-.04,1.201-.026,2.404-.007,3.605,.008,.508-.195,.692-.695,.686-1.515-.017-3.031,.013-4.546-.013-.597-.01-.801,.183-.683,.785,.349,1.782-.086,1.618,1.905,1.621,1.097,.002,2.195,.02,3.292-.006,.545-.013,.74,.197,.729,.735-.025,1.228-.026,2.456,0,3.684,.012,.554-.215,.731-.743,.72-1.123-.023-2.247,.01-3.37-.012-.556-.011-.797,.093-.688,.755,.334,2.033,.106,1.6,1.949,1.646,.731,.018,1.464,.018,2.195,.001,.464-.011,.659,.174,.654,.646-.016,1.28-.016,2.561,0,3.841,.006,.473-.191,.654-.654,.645-.81-.017-1.62,.016-2.43-.008-.513-.015-.684,.122-.589,.681,.276,1.62,.467,3.255,.737,4.876,.096,.577,.025,.872-.642,.755-.201-.035-.417-.006-.623,.018-1.337,.156-1.328,.157-1.523-1.148-1.248-8.335-2.499-16.67-3.75-25.005-.728-4.851-1.47-9.7-2.169-14.556-.09-.628-.354-.753-.914-.745-1.933,.025-3.867,.01-5.801,.009Z"/>
      <path class="cls-1" d="M618.618,500.217c0-2.391,.021-4.35-.012-6.309-.011-.649,.213-.841,.854-.855,4.978-.108,9.574-1.461,13.679-4.33,.438-.306,.76-.289,1.188,.009,4.084,2.851,8.655,4.204,13.604,4.315,.742,.017,.917,.272,.912,.96-.028,3.578,.13,7.164-.044,10.734-.457,9.34-4.943,16.189-13.163,20.6-1.251,.671-2.584,.657-3.842-.009-7.499-3.975-11.873-10.152-13.024-18.582-.316-2.316-.06-4.644-.152-6.532Zm27.594,.187c0-1.202,0-2.404,0-3.605,0-1.111,.002-1.134-1.076-1.253-3.876-.425-7.484-1.65-10.828-3.639-.457-.272-.785-.232-1.209,.029-1.316,.809-2.708,1.466-4.154,2.011-2.135,.804-4.329,1.356-6.601,1.607-.48,.053-1.145-.078-1.117,.824,.091,3.027-.133,6.06,.133,9.085,.679,7.722,4.466,13.427,11.179,17.245,.81,.461,1.528,.469,2.349,.016,5.35-2.951,8.884-7.341,10.547-13.223,.843-2.98,.811-6.039,.778-9.097Z"/>
      <path class="cls-1" d="M598.61,530.678c1.463-.039,2.847,.297,4.208,.801,.508,.188,.741,.503,.818,1.021,.728,4.904,1.463,9.807,2.209,14.708,.092,.602-.02,.991-.606,1.339-1.499,.892-2.589,2.191-3.272,3.796-.212,.498-.53,.713-1.026,.826-6.802,1.548-13.548-3.849-13.705-10.818-.122-5.398,3.724-10.722,9.89-11.592,.489-.069,.99-.055,1.485-.08Zm4.953,15.412c0-.47,.017-.941-.003-1.411-.096-2.266-1.572-3.743-3.837-3.832-.6-.024-1.202-.005-1.803-.007-1.54-.003-1.959-.458-1.886-1.97,.022-.463,.181-.658,.651-.651,1.045,.017,2.09,.008,3.136,.005,.586-.002,1.024,.262,1.241,.79,.161,.393,.413,.485,.79,.466,.391-.019,.784-.015,1.176-.003,.385,.012,.503-.141,.44-.525-.212-1.29-.872-2.408-2.094-2.703-1.413-.341-1.801-1.028-1.578-2.323,.052-.299-.029-.543-.423-.613-1.637-.29-1.947-.05-1.967,1.59,0,.078-.008,.157-.001,.235,.045,.506-.186,.701-.688,.688-.809-.022-1.62,.012-2.43-.008-.469-.012-.659,.168-.649,.643,.021,.993-.025,1.987,.016,2.978,.085,2.064,1.284,3.426,3.329,3.726,.769,.113,1.563,.065,2.346,.071,1.498,.012,1.896,.443,1.848,1.934-.016,.5-.187,.702-.692,.691-.993-.021-1.986-.018-2.979-.001-.645,.011-1.127-.236-1.38-.829-.134-.314-.319-.443-.651-.431-.417,.016-.837,.017-1.254,0-.423-.018-.532,.143-.476,.565,.179,1.359,1.284,2.654,2.713,2.909,.808,.144,.979,.513,.964,1.254-.032,1.611-.219,1.388,1.475,1.451,.738,.028,.933-.227,.924-.938-.023-1.785-.246-1.574,1.574-1.583,2.173-.011,2.173-.003,2.169-2.169Z"/>
      <path class="cls-1" d="M598.621,560.904c-2.016-.034-1.581,.314-2.211-1.628-.239-.738-.586-1.108-1.363-1.255-1.919-.363-3.694-1.137-5.312-2.227-.582-.392-1.041-.376-1.65-.074-2.037,1.009-1.348,1.128-3.026-.486-.207-.199-.397-.416-.61-.609-.302-.273-.362-.592-.119-.902,1.058-1.35,.845-2.565-.113-3.929-.901-1.281-1.347-2.823-1.641-4.374-.108-.57-.352-.905-.934-1.094-1.914-.62-1.914-.642-1.905-2.642,.007-1.495-.178-1.314,1.242-1.701,1.033-.281,1.559-.777,1.746-1.859,.311-1.794,1.102-3.429,2.113-4.936,.385-.574,.414-1.036,.094-1.649-.886-1.697-.865-1.714,.518-3.086,1.132-1.122,.85-1.071,2.143-.33,.971,.556,1.692,.511,2.619-.122,1.474-1.006,3.153-1.636,4.915-1.967,.674-.127,1.017-.431,1.234-1.088,.71-2.144,.198-1.727,2.42-1.777,.052-.001,.105,0,.157,0,1.505,.021,1.281-.186,1.757,1.294,.254,.789,.445,1.57,1.502,1.61,.303,.012,.491,.244,.534,.582,.066,.517,.174,1.029,.253,1.545,.113,.742,.009,.839-.734,.635-2.503-.687-4.997-.665-7.493,.048-5.364,1.532-9.27,6.353-9.79,11.901-.683,7.292,4.506,13.685,11.538,14.805,1.293,.206,2.6,.245,3.898,.024,.511-.087,.663,.043,.82,.582,.476,1.641-.453,2.951-.861,4.385-.078,.272-.316,.322-.565,.323-.392,.001-.784,0-1.176,0Z"/>
      <path class="cls-1" d="M616.217,555.82c.003,3.576-2.769,6.347-6.347,6.342-3.529-.004-6.3-2.777-6.303-6.308-.003-3.578,2.767-6.345,6.347-6.341,3.532,.004,6.299,2.774,6.303,6.307Z"/>
      <path class="cls-1" d="M645.037,549.513c3.563,.004,6.313,2.791,6.301,6.387-.011,3.514-2.802,6.267-6.348,6.263-3.56-.004-6.313-2.795-6.301-6.388,.011-3.514,2.801-6.266,6.348-6.262Z"/>
      <path class="cls-1" d="M614.641,548.303h25.641c.041,.056,.082,.112,.122,.168-.964,.631-1.76,1.426-2.5,2.279-.162,.187-.443,.123-.675,.123-6.524,.002-13.049-.001-19.573,.008-.43,0-.734-.129-.996-.48-.574-.772-1.358-1.337-2.02-2.097Z"/>
      <path class="cls-1" d="M649.459,520.664c.809,0,1.619,.014,2.427-.006,.483-.012,.707,.145,.714,.667,.019,1.339-.269,2.644-.394,3.966-.036,.383-.298,.5-.663,.498-1.566-.009-3.132-.013-4.698,.002-.479,.004-.64-.208-.635-.663,.014-1.279,.015-2.558,0-3.836-.006-.481,.213-.641,.665-.632,.861,.016,1.722,.005,2.584,.004Z"/>
      <path class="cls-1" d="M649.074,528.189c.678,0,1.357,.015,2.035-.005,.497-.014,.732,.162,.663,.687-.166,1.266-.324,2.533-.473,3.801-.057,.481-.304,.657-.784,.648-1.2-.022-2.401-.02-3.6-.002-.487,.007-.715-.154-.707-.673,.02-1.252,.025-2.505-.002-3.757-.012-.565,.24-.724,.755-.706,.704,.025,1.409,.006,2.113,.006Z"/>
      <path class="cls-1" d="M618.671,520.666c.652,0,1.304,.01,1.956-.004,.428-.009,.612,.175,.608,.605-.01,1.304-.01,2.609,0,3.913,.003,.428-.175,.612-.605,.608-1.304-.01-2.609-.01-3.913,0-.428,.003-.612-.175-.608-.605,.01-1.304,.01-2.609,0-3.913-.003-.428,.175-.617,.605-.608,.652,.013,1.304,.003,1.956,.003Z"/>
      <path class="cls-1" d="M618.678,528.192c.652,0,1.304,.01,1.956-.003,.434-.009,.605,.187,.602,.612-.01,1.304-.011,2.609,0,3.913,.003,.433-.187,.605-.612,.602-1.304-.01-2.609-.011-3.913,0-.433,.003-.605-.187-.602-.612,.01-1.304,.011-2.609,0-3.913-.003-.433,.187-.61,.612-.601,.652,.013,1.304,.003,1.956,.004Z"/>
      <path class="cls-1" d="M628.759,530.783c0,.626-.013,1.252,.005,1.878,.013,.46-.168,.661-.641,.656-1.278-.016-2.556-.015-3.834,0-.46,.005-.661-.168-.656-.642,.016-1.278,.015-2.556,0-3.834-.005-.46,.168-.661,.642-.656,1.278,.016,2.556,.015,3.834,0,.46-.005,.669,.168,.655,.642-.019,.652-.005,1.304-.005,1.956Z"/>
      <path class="cls-1" d="M633.668,533.314c-.548,0-1.098-.029-1.643,.008-.622,.043-.9-.155-.876-.828,.043-1.172,.03-2.348,.004-3.521-.012-.552,.149-.81,.749-.794,1.225,.032,2.452,.028,3.678,.002,.558-.012,.723,.227,.713,.748-.022,1.226-.026,2.452,0,3.678,.012,.558-.227,.734-.748,.712-.625-.026-1.252-.006-1.878-.006Z"/>
      <path class="cls-1" d="M643.812,530.803c0,.6-.024,1.201,.007,1.8,.028,.554-.216,.728-.742,.718-1.226-.023-2.452-.026-3.678,0-.554,.012-.728-.217-.718-.743,.023-1.226,.026-2.452,0-3.678-.012-.554,.217-.728,.743-.718,1.226,.023,2.452,.026,3.678,0,.553-.012,.74,.216,.717,.743-.027,.625-.006,1.252-.006,1.878Z"/>
      <path class="cls-1" d="M621.234,538.323c0,.626-.015,1.253,.005,1.878,.015,.474-.194,.647-.655,.642-1.278-.014-2.556-.015-3.834,0-.474,.006-.647-.195-.642-.655,.014-1.278,.015-2.556,0-3.834-.006-.474,.195-.647,.656-.642,1.278,.014,2.556,.015,3.834,0,.474-.006,.654,.195,.641,.655-.018,.652-.005,1.304-.005,1.956Z"/>
      <path class="cls-1" d="M626.413,535.716c.646,.101,1.653-.36,2.184,.2,.489,.517,.129,1.497,.16,2.273,.026,.651-.013,1.305,.009,1.956,.017,.494-.167,.708-.679,.7-1.252-.02-2.504-.019-3.756,0-.493,.007-.708-.167-.7-.679,.02-1.252,.019-2.504,0-3.756-.007-.493,.167-.718,.68-.699,.651,.024,1.304,.006,2.103,.006Z"/>
      <path class="cls-1" d="M631.165,538.204c0-.626,.009-1.252-.004-1.878-.009-.425,.168-.615,.601-.612,1.304,.01,2.609,.01,3.913,0,.425-.003,.615,.168,.612,.602-.01,1.304-.01,2.609,0,3.913,.003,.425-.168,.615-.602,.612-1.304-.01-2.609-.01-3.913,0-.425,.003-.62-.168-.612-.602,.013-.678,.004-1.356,.003-2.035Z"/>
      <path class="cls-1" d="M641.25,540.836c-.652,0-1.304-.01-1.956,.003-.43,.009-.61-.178-.606-.607,.01-1.304,.01-2.609,0-3.913-.003-.43,.179-.61,.607-.606,1.304,.01,2.609,.01,3.913,0,.43-.003,.61,.179,.606,.607-.01,1.304-.01,2.609,0,3.913,.003,.43-.178,.615-.607,.606-.652-.013-1.304-.003-1.956-.003Z"/>
      <path class="cls-1" d="M648.531,535.721c.599,0,1.197,0,1.796,0,.296,0,.474,.101,.515,.441,.24,1.968-1.077,4.01-2.952,4.55-.1,.029-.199,.063-.301,.082-1.195,.224-1.376,.078-1.377-1.111,0-1.093,.015-2.187-.004-3.279-.009-.496,.176-.715,.683-.693,.546,.024,1.093,.005,1.639,.005,0,.002,0,.003,0,.005Z"/>
      <path class="cls-1" d="M627.548,525.766c-1.181,0-2.362,.007-3.544-.005-.309-.003-.359-.256-.361-.504-.005-.781-.007-1.563-.002-2.344,.002-.338,.142-.558,.455-.255,1.095,1.064,2.285,2.017,3.452,3.108Z"/>
      <path class="cls-1" d="M639.845,525.573c1.252-.878,2.401-1.875,3.524-2.904,.253-.232,.432-.139,.435,.203,.006,.831,0,1.661-.008,2.492-.003,.293-.186,.413-.456,.413-1.138,.003-2.275,.001-3.413,.001-.027-.068-.055-.137-.082-.205Z"/>
      <path class="cls-1" d="M643.813,502.431c.173,2.672-.165,5.785-1.418,8.762-1.647,3.91-4.316,6.92-7.944,9.105-.511,.307-.932,.312-1.442,.001-5.223-3.187-8.342-7.78-9.207-13.846-.385-2.698-.094-5.423-.166-8.134-.011-.425,.199-.612,.589-.679,3.191-.545,6.219-1.565,9.058-3.126,.341-.187,.636-.138,.957,.036,2.801,1.517,5.774,2.539,8.914,3.066,.476,.08,.674,.282,.665,.769-.021,1.175-.007,2.35-.007,4.045Zm-1.926,1.659c-.048-.303-.26-.432-.42-.597q-1.079-1.109-2.151-.039c-2.511,2.51-5.03,5.013-7.524,7.54-.428,.434-.732,.482-1.14,.004-.355-.416-.769-.781-1.156-1.169-1.211-1.212-1.196-1.197-2.383,.043-.347,.363-.293,.574,.03,.891,1.213,1.187,2.415,2.385,3.599,3.601,.365,.374,.621,.331,.969-.019,3.278-3.294,6.567-6.577,9.851-9.865,.126-.126,.229-.274,.325-.39Z"/>
    </g>
    <g>
      <g>
        <rect class="cls-1" x="254.991" y="176.494" width="73.781" height="73.781" transform="translate(78.5 505.268) rotate(-90.001)"/>
        <circle class="cls-1" cx="258.811" cy="180.315" r="75.384" transform="translate(-51.698 235.82) rotate(-45)"/>
      </g>
      <circle class="cls-5" cx="258.811" cy="180.315" r="64.862" transform="translate(-51.698 235.82) rotate(-45)"/>
      <text class="cls-4" transform="translate(250.246 211.231)"><tspan class="cls-11"><tspan x="0" y="0">CRM</tspan></tspan><tspan class="cls-9"><tspan x="-17.155" y="10">Gestion de la</tspan></tspan><tspan class="cls-9"><tspan x="-19.985" y="20">relation client</tspan></tspan></text>
    </g>
    <path class="cls-1" d="M259.097,189.269c-.339,.767-.633,1.349-1.1,1.826-1.555,1.589-4.063,1.709-5.74,.237-.614-.539-1.175-1.139-1.754-1.718-3.538-3.537-7.074-7.075-10.607-10.617-.16-.16-.281-.359-.455-.585-.344,.465-.506,.903-.885,1.174-.522,.373-1.089,.562-1.731,.437-1.783-.348-3.567-.693-5.346-1.059-1.362-.281-2.073-1.36-1.801-2.732,.875-4.41,1.76-8.818,2.644-13.226,.178-.89,.184-.889-.703-.889-1.023,0-2.047,.011-3.07-.005-.904-.014-1.276-.386-1.279-1.301-.009-3.388-.008-6.776,0-10.164,.002-.956,.369-1.326,1.317-1.338,1.205-.015,2.411-.019,3.615,.003,.428,.008,.634-.1,.748-.56,.649-2.617,1.664-5.09,3.075-7.39,.24-.391,.185-.614-.132-.916-.873-.83-1.716-1.692-2.563-2.55-.66-.668-.67-1.221-.016-1.878,2.391-2.401,4.786-4.797,7.187-7.188,.673-.67,1.197-.664,1.88,.007,.876,.861,1.748,1.726,2.601,2.609,.257,.266,.437,.351,.796,.131,2.34-1.434,4.849-2.476,7.517-3.119,.434-.104,.511-.312,.505-.703-.021-1.228-.014-2.456-.005-3.684,.007-.893,.402-1.295,1.291-1.296,3.411-.006,6.822-.006,10.232,0,.883,.002,1.283,.408,1.291,1.301,.011,1.228,.017,2.456-.005,3.684-.007,.396,.08,.598,.509,.7,2.671,.636,5.176,1.688,7.517,3.12,.365,.223,.545,.123,.797-.136,.855-.881,1.724-1.749,2.599-2.611,.678-.667,1.203-.671,1.88,.003,2.401,2.39,4.797,4.786,7.187,7.188,.648,.651,.632,1.212-.028,1.882-.862,.874-1.721,1.753-2.609,2.601-.29,.277-.299,.478-.098,.809,1.417,2.324,2.441,4.816,3.099,7.455,.104,.417,.277,.55,.69,.543,1.205-.021,2.41-.016,3.615-.004,.998,.01,1.371,.372,1.374,1.355,.008,3.365,.008,6.731,0,10.096-.002,.99-.368,1.345-1.367,1.356-1.023,.011-2.048,.038-3.069-.01-.636-.03-.799,.115-.662,.78,.907,4.403,1.77,8.816,2.652,13.225,.307,1.537-.382,2.581-1.913,2.882-1.604,.316-3.205,.647-4.811,.954-1.541,.294-2.332-.147-2.974-1.688-.691,.69-1.356,1.359-2.029,2.021-.184,.181-.092,.378-.071,.575,.296,2.751-1.169,4.61-3.922,4.951-.277,.034-.408,.099-.411,.394-.034,3.195-3.884,5.299-6.774,3.115-.034-.025-.084-.029-.16-.053-.449,1.225-1.229,2.17-2.473,2.637-1.638,.615-3.14,.324-4.425-.863-.564-.521-1.049-1.129-1.631-1.764Zm-6.509-30.718c-.017-.049-.033-.098-.05-.147h-.597c-2.637,0-5.275,.021-7.912-.017-.581-.008-.768,.179-.874,.72-1.058,5.415-2.137,10.825-3.227,16.234-.077,.384,0,.632,.275,.9,1.138,1.112,2.257,2.245,3.382,3.37,3.263,3.264,6.529,6.524,9.787,9.794,.566,.568,1.208,.901,2.017,.73,.743-.156,1.279-.609,1.499-1.342,.232-.773,.073-1.49-.509-2.076-1.153-1.162-2.316-2.314-3.468-3.477-.58-.586-.635-1.195-.175-1.678,.481-.506,1.103-.453,1.731,.15,.213,.205,.418,.418,.627,.627,2.299,2.299,4.601,4.594,6.895,6.898,.579,.582,1.227,.947,2.072,.748,1.611-.379,2.099-2.241,.886-3.471-2.139-2.17-4.303-4.314-6.457-6.468-.257-.257-.524-.506-.769-.775-.481-.528-.499-1.136-.064-1.584,.435-.447,1.06-.441,1.586,.021,.136,.12,.259,.255,.387,.384,2.99,2.991,5.98,5.981,8.97,8.972,.145,.145,.285,.295,.439,.429,.676,.588,1.575,.683,2.344,.255,.752-.419,1.134-1.267,.962-2.151-.105-.54-.446-.931-.821-1.305-2.865-2.859-5.727-5.72-8.588-8.582-.176-.176-.371-.347-.501-.555-.304-.487-.242-.967,.173-1.36,.393-.373,.861-.397,1.316-.12,.209,.127,.379,.323,.555,.499,2.879,2.876,5.757,5.754,8.633,8.634,.275,.276,.558,.533,.927,.679,.886,.349,1.878,.04,2.404-.749,.536-.804,.437-1.665-.28-2.393-4.165-4.227-8.324-8.46-12.501-12.674-1.126-1.136-2.376-2.113-3.915-2.657-.434-.154-.648-.112-.689,.432-.079,1.041-.203,2.081-.366,3.112-.567,3.583-2.59,5.861-6.129,6.755-.932,.235-1.431-.066-1.636-1.004-.69-3.149-1.345-6.306-2.072-9.446-.428-1.848,.102-3.302,1.543-4.479,.737-.601,1.46-1.22,2.189-1.83Zm7.609-33.595c-1.182,0-2.365,.023-3.547-.011-.509-.015-.716,.091-.69,.658,.05,1.089,.017,2.182,.014,3.274-.003,.945-.224,1.252-1.171,1.455-3.167,.679-6.098,1.909-8.815,3.668-.705,.457-1.133,.388-1.75-.224-.823-.816-1.652-1.629-2.453-2.466-.269-.281-.422-.274-.694,.001-1.74,1.765-3.488,3.522-5.26,5.255-.346,.338-.267,.512,.031,.798,.788,.755,1.55,1.537,2.32,2.31,.742,.746,.788,1.08,.222,1.96-1.727,2.683-2.924,5.582-3.585,8.704-.188,.888-.499,1.139-1.409,1.147-1.137,.01-2.274,.015-3.411-.004-.403-.007-.562,.11-.559,.539,.016,2.456,.015,4.911,0,7.367-.002,.403,.106,.57,.535,.554,.795-.028,1.592-.033,2.387,.002,.468,.021,.619-.167,.698-.604,.24-1.341,.52-2.675,.797-4.008,.287-1.38,1.328-2.077,2.708-1.822,.513,.095,1.033,.175,1.532,.323,.509,.151,.638-.058,.668-.513,.031-.475,.097-.949,.18-1.419,2.215-12.596,15.041-20.522,27.343-16.9,8.359,2.461,14.393,9.658,15.348,18.327,.052,.471,.182,.646,.676,.502,.5-.146,1.019-.228,1.532-.322,1.377-.252,2.418,.451,2.703,1.832,.28,1.356,.557,2.714,.809,4.075,.071,.383,.219,.54,.623,.527,.795-.027,1.592-.027,2.387,0,.426,.014,.598-.099,.594-.563-.02-2.433-.022-4.866,.001-7.299,.005-.5-.184-.609-.636-.599-1.114,.025-2.228,.015-3.342,.005-.883-.008-1.209-.258-1.384-1.092-.665-3.17-1.885-6.107-3.644-8.825-.519-.802-.466-1.157,.224-1.853,.801-.807,1.597-1.619,2.416-2.407,.269-.259,.302-.416,.015-.699-1.781-1.756-3.55-3.524-5.305-5.306-.281-.285-.432-.257-.693,.014-.819,.852-1.661,1.683-2.504,2.512-.554,.545-1.014,.615-1.643,.202-2.767-1.816-5.776-3.04-9.006-3.741-.77-.167-1.022-.496-1.028-1.285-.008-1.16-.02-2.32,.007-3.479,.01-.431-.096-.593-.559-.581-1.227,.032-2.455,.011-3.683,.011Zm.887,30.375c-.808-.006-1.524,.251-2.14,.764-2.445,2.038-4.885,4.082-7.329,6.122-.618,.515-.846,1.156-.674,1.945,.602,2.75,1.206,5.501,1.795,8.254,.089,.416,.222,.503,.63,.318,1.633-.741,2.603-1.999,3.017-3.72,.336-1.398,.416-2.83,.549-4.254,.115-1.225,.921-1.984,2.148-2.023,.771-.024,1.48,.196,2.167,.512,1.507,.695,2.795,1.699,3.953,2.868,3.951,3.993,7.896,7.991,11.816,12.013,.438,.45,.656,.411,1.045-.017,.656-.723,1.359-1.407,2.073-2.074,.304-.284,.367-.548,.285-.953-1.014-5.008-2.017-10.018-2.994-15.033-.1-.511-.227-.614-.743-.468-2.678,.76-5.343,.705-7.967-.268-1.851-.687-3.497-1.728-5.023-2.969-.762-.619-1.605-1.028-2.608-1.018Zm4.104-6.72c.015-1.244,.307-2.3,.998-3.218,1.696-2.257,4.875-2.694,7.095-.979,2.217,1.714,2.602,4.911,.818,7.104-.327,.403-.287,.532,.153,.757,.899,.459,1.705,1.076,2.299,1.892,.478,.657,.879,1.232,1.714,.488,.032-.028,.083-.037,.126-.05q1.212-.359,1.025-1.633c-.023-.157-.06-.313-.086-.469-1.845-11.202-13.243-18.529-24.152-15.524-7.781,2.144-13.367,8.727-14.286,16.817-.047,.413-.006,.625,.47,.677,.468,.051,.962,.139,1.331,.472,.331,.299,.463,.135,.659-.154,.727-1.072,1.665-1.932,2.814-2.525,.491-.253,.406-.41,.116-.77-1.312-1.627-1.465-3.82-.432-5.621,1.011-1.763,3.024-2.756,5.015-2.474,2.073,.294,3.721,1.796,4.201,3.855,.096,.411,.124,.838,.184,1.267,.302-.02,.458-.249,.681-.34,.576-.234,.764-.418,.263-1.051-1.558-1.966-1.281-4.835,.526-6.575,1.801-1.734,4.581-1.882,6.554-.349,1.993,1.548,2.52,4.317,1.262,6.499-.22,.381-.814,.734-.648,1.083,.168,.355,.767,.506,1.301,.819Zm-4.982,.581c-2.204,.063-3.904,.989-5.152,2.767-.272,.388-.362,.658,.137,.964,.58,.356,1.078,.844,1.467,1.407,.291,.421,.493,.438,.894,.103,1.5-1.253,3.278-1.734,5.086-1.034,1.164,.45,1.879,.274,2.677-.549,.292-.301,.326-.445,.115-.763-1.251-1.88-3.001-2.839-5.224-2.895Zm13.041,8.723c.66-.022,1.447-.113,2.23-.26,.439-.083,.565-.226,.346-.661-.373-.739-.835-1.402-1.441-1.965-2.232-2.074-5.825-2.161-8.103-.186-.186,.161-.594,.316-.121,.646,2.093,1.459,4.352,2.433,7.09,2.427Zm-17.894-1.728c-1.366-1.875-3.093-2.809-5.283-2.77-2.1,.038-3.752,.965-5.033,2.77h10.316Z"/>
  </g>
  <g>
    <rect class="cls-10" x="342.116" y="390.188" width="199.404" height="20.041" rx="4.25" ry="4.25"/>
    <path class="cls-1" d="M500.859,312.837h-16.895c-.791,.001-1.29,.852-.904,1.543l39.684,70.918c.183,.327,.529,.53,.904,.53h16.895c.791-.001,1.29-.852,.904-1.543l-39.684-70.918c-.183-.327-.529-.53-.904-.53Z"/>
    <g>
      <path class="cls-10" d="M380.603,348.33c0-21.57,9.93-37.813,30.974-37.813s31.105,16.243,31.105,37.813c0,21.438-10.127,37.681-31.105,37.681s-30.974-16.243-30.974-37.681Zm44.455,0c0-14.007-3.551-25.449-13.481-25.449-9.996,0-13.481,11.442-13.481,25.449s3.485,25.45,13.481,25.45c9.93,0,13.481-11.443,13.481-25.45Z"/>
      <path class="cls-10" d="M382.333,312.656c-5.416-1.162-9.439-2.139-15.406-2.139-10.917,0-17.135,3.697-20.667,7.996,.957,.05,1.829-.165,2.751-.636,2.826-1.433,6.228,.421,6.523,3.422,.256,2.57-1.653,4.92-4.093,5.045-2.821,.14-4.885-1.814-4.82-4.649,.03-1.067,.19-2.124-.496-3.016-4.279,5.321-4.519,11.493-4.519,12.686,0,25.978,28.673,19.139,28.673,33.277,0,5.917-5.261,8.743-10.652,8.743-5.216,0-9.264-1.749-13.407-3.507-1.288-.551-2.736,.341-2.826,1.739l-.631,9.82c-.06,.957,.551,1.829,1.473,2.089,3.713,1.032,10.466,2.485,18.087,2.485,8.537,0,15.867-2.876,20.466-8.026,.581-.656,.656-1.623,.2-2.375-4.429-7.255-6.588-16.699-6.588-27.27,0-.967,.02-1.929,.055-2.876,.03-.802-.401-1.543-1.112-1.909-7.761-3.998-16.243-5.471-16.243-12.716,0-5.391,4.209-7.956,9.665-7.956,3.783,0,8.157,1.007,11.909,2.525,.01,.005,.02,.01,.03,.01,1.303,.521,2.736-.376,2.806-1.779l.18-3.793,.245-5.1c.05-.997-.631-1.879-1.603-2.089Zm-25.216,6.107c-.752,.05-1.248-.291-1.298-1.032-.055-.737,.406-1.142,1.127-1.258,.737,.035,1.182,.466,1.202,1.167,.015,.621-.326,1.082-1.032,1.122Z"/>
      <path class="cls-10" d="M467.811,375.774l-1.396-2.496c-.23-.411-.664-.666-1.136-.666h-10.962c-.719,0-1.301-.583-1.301-1.301v-57.174c0-.719-.583-1.301-1.301-1.301h-14.693c-.719,0-1.301,.583-1.301,1.301h0c0,.344,.14,.671,.382,.915,7.573,7.613,11.281,19.478,11.281,33.286,0,13.729-3.708,25.553-11.281,33.155-.243,.244-.383,.571-.383,.916v2.119c0,.719,.583,1.301,1.301,1.301h34.196c.994,0,1.621-1.069,1.135-1.936l-4.543-8.119Z"/>
      <path class="cls-10" d="M500.06,351.589c-6.462,10.905-12.924,21.81-19.385,32.714-.399,.674,.086,1.526,.869,1.526h14.948c5.577-9.688,6.963-12.094,12.54-21.782-2.41-4.15-4.819-8.3-7.229-12.45-.388-.667-1.35-.672-1.743-.008Zm38.965-38.753h-14.793c-4.859,8.582-6.021,10.633-10.88,19.215l7.253,12.089c.394,.657,1.348,.653,1.737-.007,5.851-9.925,11.702-19.849,17.553-29.774,.397-.674-.089-1.524-.871-1.524Z"/>
      <path class="cls-10" d="M495.494,385.829h-16.955c-.366,0-.703-.198-.881-.517l-5.337-9.539-14.626-26.144c-.084-.151-.129-.32-.129-.493v-30.304c0-1.04,1.383-1.401,1.891-.493l36.919,65.986c.377,.673-.11,1.503-.881,1.503Z"/>
      <g>
        <path class="cls-10" d="M345.919,318.443c.015,.015,.03,.035,.05,.05-.03,0-.06,0-.09-.005l.04-.045Z"/>
        <path class="cls-10" d="M346.26,318.513c-.045,.055-.09,.11-.135,.165-.05-.06-.1-.125-.155-.185,.1,.015,.195,.02,.291,.02Z"/>
        <path class="cls-10" d="M345.879,318.486c-.412-.804-.807-1.564-.856-2.546-.075-1.526-1.449-2.482-2.887-2.249-1.37,.222-2.289,1.568-1.997,2.922,.328,1.519,1.703,2.34,3.274,1.829,.869-.283,1.67-.311,2.506-.002,0,0-.041,.046-.041,.046Z"/>
        <path class="cls-10" d="M337.595,312.084c1.333-.015,2.385-1.11,2.349-2.443-.036-1.32-1.155-2.389-2.484-2.292-1.416,.104-2.181,.934-2.243,2.337-.059,1.332,1.053,2.413,2.378,2.398Z"/>
        <path class="cls-10" d="M336.619,318.424c1.136-.094,1.883-.588,1.921-1.798,.037-1.177-.604-1.882-1.733-1.954-1.223-.077-1.98,.612-2.002,1.854-.02,1.166,.72,1.739,1.813,1.898Z"/>
        <path class="cls-10" d="M342.78,310.308c.04,.861,.499,1.402,1.374,1.429,.89,.027,1.376-.502,1.405-1.39,.03-.909-.492-1.438-1.346-1.457-.857-.02-1.367,.506-1.434,1.419Z"/>
        <path class="cls-10" d="M342.638,304.014c-.385,.016-.662,.194-.702,.585-.049,.48,.229,.753,.692,.748,.388-.005,.618-.288,.624-.662,.006-.378-.216-.624-.614-.671Z"/>
      </g>
    </g>
    <text class="cls-6" transform="translate(346.216 407.482)"><tspan x="0" y="0">TO HIGHER BUSINESS </tspan></text>
  </g>
</svg>